{
.appVersion = "3134";
.formatVersion = 3;
axes = (
{
default = 300;
name = Weight;
tag = wght;
}
);
customParameters = (
{
name = vendorID;
value = "    ";
},
{
name = panose;
value = (
0,
0,
0,
0,
0,
0,
0,
0,
0,
0
);
},
{
name = unicodeRanges;
value = (
0,
1,
2,
5,
6,
7,
31,
32
);
},
{
name = codePageRanges;
value = (
"1252",
"1250",
"1253",
"1254",
"1257"
);
},
{
name = fsType;
value = (
);
},
{
name = glyphOrder;
value = (
.notdef,
.null,
space,
uni000D,
exclam,
quotedbl,
numbersign,
dollar,
percent,
ampersand,
quotesingle,
parenleft,
parenright,
asterisk,
plus,
comma,
hyphen,
period,
slash,
zero,
one,
two,
three,
four,
five,
six,
seven,
eight,
nine,
colon,
semicolon,
less,
equal,
greater,
question,
at,
A,
B,
C,
D,
E,
F,
G,
H,
J,
K,
L,
M,
N,
O,
P,
Q,
R,
S,
T,
U,
V,
W,
X,
Y,
Z,
bracketleft,
backslash,
bracketright,
asciicircum,
underscore,
grave,
a,
b,
c,
d,
e,
f,
g,
h,
i,
j,
k,
l,
m,
n,
o,
p,
q,
r,
s,
t,
u,
v,
w,
x,
y,
z,
braceleft,
bar,
braceright,
asciitilde,
uni00A0,
exclamdown,
cent,
sterling,
currency,
yen,
brokenbar,
section,
dieresis,
copyright,
ordfeminine,
guillemotleft,
logicalnot,
uni00AD,
registered,
degree,
plusminus,
uni00B2,
uni00B3,
acute,
uni00B5,
paragraph,
periodcentered,
cedilla,
uni00B9,
ordmasculine,
guillemotright,
onequarter,
onehalf,
threequarters,
questiondown,
Agrave,
Aacute,
Acircumflex,
Atilde,
Adieresis,
Aring,
AE,
Egrave,
Eacute,
Ecircumflex,
Edieresis,
Eth,
Ntilde,
Ograve,
Oacute,
Ocircumflex,
Otilde,
Odieresis,
multiply,
Oslash,
Ugrave,
Uacute,
Ucircumflex,
Udieresis,
Yacute,
Thorn,
germandbls,
agrave,
aacute,
acircumflex,
atilde,
adieresis,
aring,
ae,
ccedilla,
egrave,
eacute,
ecircumflex,
edieresis,
igrave,
iacute,
idieresis,
eth,
ntilde,
ograve,
oacute,
ocircumflex,
otilde,
odieresis,
divide,
oslash,
ugrave,
uacute,
ucircumflex,
udieresis,
yacute,
thorn,
ydieresis,
Amacron,
amacron,
Abreve,
abreve,
Aogonek,
aogonek,
Cacute,
cacute,
Ccircumflex,
ccircumflex,
cdotaccent,
Ccaron,
ccaron,
Dcaron,
dcaron,
Dcroat,
dcroat,
Emacron,

glyphs = (
{
glyphname = .notdef;
layers = (
{
layerId = m01;
shapes = (
{
closed = 1;
nodes = (
(600,720,l),
(473,0,l),
(-52,0,l),
(75,720,l)
);
},
{
closed = 1;
nodes = (
(162,663,l),
(284,419,l),
(492,663,l)
);
},
{
closed = 1;
nodes = (
(514,599,l),
(311,360,l),
(430,123,l)
);
},
{
closed = 1;
nodes = (
(263,303,l),
(55,57,l),
(385,57,l)
);
},
{
closed = 1;
nodes = (
(236,360,l),
(119,600,l),
(35,123,l)
);
}
);
width = 515;
},
{
layerId = "6E397364-29F0-430D-8798-B3D240BA8B9C";
shapes = (
{
closed = 1;
nodes = (
(608,720,l),
(481,0,l),
(-45,0,l),
(82,720,l)
);
},
{
closed = 1;
nodes = (
(170,663,l),
(292,419,l),
(499,663,l)
);
},
{
closed = 1;
nodes = (
(520,598,l),
(319,360,l),
(437,124,l)
);
},
{
closed = 1;
nodes = (
(271,303,l),
(63,57,l),
(392,57,l)
);
},
{
closed = 1;
nodes = (
(243,360,l),
(127,599,l),
(43,124,l)
);
}
);
width = 529;
},
{
layerId = "97194E86-8399-4162-8293-D906943AC4AA";
shapes = (
{
closed = 1;
nodes = (
(645,720,l),
(518,0,l),
(-11,0,l),
(116,720,l)
);
},
{
closed = 1;
nodes = (
(208,663,l),
(328,421,l),
(532,663,l)
);
},
{
closed = 1;
nodes = (
(553,593,l),
(356,360,l),
(471,128,l)
);
},
{
closed = 1;
nodes = (
(307,300,l),
(101,57,l),
(425,57,l)
);
},
{
closed = 1;
nodes = (
(277,360,l),
(164,594,l),
(82,128,l)
);
}
);
width = 600;
}
);
note = ".notdef";
},
{
glyphname = exclam;
layers = (
{
layerId = m01;
shapes = (
{
closed = 1;
nodes = (
(252,621,l),
(162,203,l),
(107,203,l),
(162,621,l),
(173,705,l),
(271,705,l)
);
},
{
closed = 1;
nodes = (
(142,109,o),
(171,74,o),
(167,50,qs),
(162,23,o),
(122,-10,o),
(97,-10,qs),
(72,-10,o),
(44,23,o),
(48,50,qs),
(53,81,o),
(96,109,o),
(118,109,qs)
);
}
);
width = 290;
},
{
layerId = "6E397364-29F0-430D-8798-B3D240BA8B9C";
shapes = (
{
closed = 1;
nodes = (
(268,620,l),
(171,207,l),
(109,207,l),
(157,620,l),
(169,704,l),
(286,704,l)
);
},
{
closed = 1;
nodes = (
(154,121,o),
(186,83,o),
(181,56,q),
(176,26,o),
(132,-11,o),
(102,-11,q),
(74,-11,o),
(42,26,o),
(46,56,q),
(52,92,o),
(99,121,o),
(125,121,q)
);
}
);
width = 299;
},
{
layerId = "97194E86-8399-4162-8293-D906943AC4AA";
shapes = (
{
closed = 1;
nodes = (
(340,615,l),
(214,228,l),
(114,228,l),
(124,615,l),
(139,700,l),
(355,700,l)
);
},
{
closed = 1;
nodes = (
(202,180,o),
(254,130,o),
(246,84,q),
(238,38,o),
(168,-13,o),
(121,-13,q),
(74,-13,o),
(22,38,o),
(31,84,q),
(41,133,o),
(114,180,o),
(155,180,q)
);
}
);
width = 341;
}
);
note = exclam;
unicode = 33;
},
{
glyphname = quotedbl;
layers = (
{
layerId = m01;
shapes = (
{
closed = 1;
nodes = (
(192,708,l),
(283,708,l),
(283,708,l),
(261,655,l),
(174,443,l),
(119,443,l)
);
},
{
closed = 1;
nodes = (
(462,708,l),
(462,708,l),
(440,655,l),
(353,443,l),
(298,443,l),
(371,708,l)
);
}
);
width = 437;
},
{
layerId = "6E397364-29F0-430D-8798-B3D240BA8B9C";
shapes = (
{
closed = 1;
nodes = (
(194,707,l),
(304,707,l),
(304,707,l),
(286,662,l),
(181,426,l),
(119,426,l)
);
},
{
closed = 1;
nodes = (
(496,707,l),
(496,707,l),
(478,662,l),
(373,426,l),
(311,426,l),
(386,707,l)
);
}
);
width = 474;
},
{
layerId = "97194E86-8399-4162-8293-D906943AC4AA";
shapes = (
{
closed = 1;
nodes = (
(194,700,l),
(398,700,l),
(398,699,l),
(398,697,l),
(208,341,l),
(109,341,l)
);
},
{
closed = 1;
nodes = (
(655,700,l),
(655,699,l),
(655,697,l),
(465,341,l),
(365,341,l),
(451,700,l)
);
}
);
width = 660;
}
);
note = quotedbl;
unicode = 34;
},
{
glyphname = numbersign;
layers = (
{
layerId = m01;
shapes = (
{
closed = 1;
nodes = (
(12,195,l),
(25,266,l),
(141,266,l),
(201,446,l),
(90,446,l),
(102,518,l),
(223,518,l),
(285,706,l),
(357,706,l),
(297,518,l),
(460,518,l),
(520,706,l),
(592,706,l),
(533,518,l),
(632,518,l),
(620,446,l),
(510,446,l),
(449,266,l),
(555,266,l),
(542,194,l),
(425,194,l),
(363,0,l),
(290,0,l),
(352,194,l),
(189,194,l),
(126,0,l),
(53,0,l),
(117,195,l)
);
},
{
closed = 1;
nodes = (
(213,266,l),
(376,266,l),
(437,446,l),
(273,446,l)
);
}
);
width = 608;
},
{
layerId = "6E397364-29F0-430D-8798-B3D240BA8B9C";
shapes = (
{
closed = 1;
nodes = (
(13,185,l),
(28,271,l),
(142,271,l),
(199,440,l),
(91,440,l),
(106,527,l),
(227,527,l),
(285,705,l),
(370,705,l),
(312,527,l),
(469,527,l),
(526,705,l),
(611,705,l),
(554,527,l),
(650,527,l),
(635,440,l),
(525,440,l),
(468,271,l),
(572,271,l),
(556,184,l),
(438,184,l),
(379,0,l),
(294,0,l),
(353,184,l),
(196,184,l),
(136,0,l),
(51,0,l),
(113,185,l)
);
},
{
closed = 1;
nodes = (
(225,270,l),
(384,270,l),
(441,440,l),
(282,440,l)
);
}
);
width = 625;
},
{
layerId = "97194E86-8399-4162-8293-D906943AC4AA";
shapes = (
{
closed = 1;
nodes = (
(11,135,l),
(39,296,l),
(145,296,l),
(184,408,l),
(92,408,l),
(120,569,l),
(240,569,l),
(285,700,l),
(430,700,l),
(384,569,l),
(511,569,l),
(556,700,l),
(701,700,l),
(656,569,l),
(734,569,l),
(706,408,l),
(600,408,l),
(561,296,l),
(653,296,l),
(625,135,l),
(506,135,l),
(458,0,l),
(313,0,l),
(361,135,l),
(234,135,l),
(187,0,l),
(42,0,l),
(89,135,l)
);
},
{
closed = 1;
nodes = (
(284,292,l),
(418,292,l),
(460,412,l),
(327,412,l)
);
}
);
width = 712;
}
);
note = numbersign;
unicode = 35;
},
{
glyphname = dollar;
layers = (
{
layerId = m01;
shapes = (
{
closed = 1;
nodes = (
(205,-4,l),
(137,-4,o),
(34,52,o),
(0,98,q),
(58,151,l),
(88,114,o),
(165,68,o),
(217,65,q),
(263,322,l),
(173,356,o),
(92,452,o),
(105,525,qs),
(118,601,o),
(246,702,o),
(331,710,q),
(343,777,l),
(408,777,l),
(396,711,l),
(456,705,o),
(528,658,o),
(546,624,q),
(486,572,l),
(472,599,o),
(417,634,o),
(382,638,q),
(339,389,l),
(438,352,o),
(517,260,o),
(505,192,qs),
(491,113,o),
(360,6,o),
(270,-4,q),
(254,-95,l),
(189,-95,l)
);
},
{
closed = 1;
nodes = (
(283,66,l),
(343,75,o),
(413,135,o),
(421,179,qs),
(429,222,o),
(378,283,o),
(324,302,q)
);
},
{
closed = 1;
nodes = (
(319,640,l),
(263,634,o),
(194,577,o),
(188,534,qs),
(183,504,o),
(207,458,o),
(244,429,o),
(267,418,qs),
(279,412,l)
);
}
);
width = 564;
},
{
layerId = "6E397364-29F0-430D-8798-B3D240BA8B9C";
shapes = (
{
closed = 1;
nodes = (
(212,-3,l),
(143,-3,o),
(38,53,o),
(2,101,q),
(71,165,l),
(100,128,o),
(178,82,o),
(228,78,q),
(269,314,l),
(174,348,o),
(90,444,o),
(104,519,q),
(117,597,o),
(248,701,o),
(338,709,q),
(349,774,l),
(421,774,l),
(410,709,l),
(470,703,o),
(545,655,o),
(566,620,q),
(497,559,l),
(483,586,o),
(428,620,o),
(393,624,q),
(353,396,l),
(456,360,o),
(538,267,o),
(525,195,q),
(511,115,o),
(377,7,o),
(284,-3,q),
(268,-96,l),
(196,-96,l)
);
},
{
closed = 1;
nodes = (
(298,79,l),
(355,87,o),
(419,142,o),
(425,182,q),
(431,220,o),
(386,277,o),
(336,294,q)
);
},
{
closed = 1;
nodes = (
(324,626,l),
(273,621,o),
(211,569,o),
(203,529,q),
(197,496,o),
(218,454,o),
(251,433,o),
(276,423,q),
(288,418,l)
);
}
);
width = 578;
},
{
layerId = "97194E86-8399-4162-8293-D906943AC4AA";
shapes = (
{
closed = 1;
nodes = (
(233,2,l),
(164,2,o),
(39,59,o),
(-7,115,q),
(125,234,l),
(148,198,o),
(224,150,o),
(265,145,q),
(287,272,l),
(167,301,o),
(67,400,o),
(82,490,q),
(98,579,o),
(245,693,o),
(359,701,q),
(369,758,l),
(473,758,l),
(462,698,l),
(523,691,o),
(620,639,o),
(650,599,q),
(534,491,l),
(515,519,o),
(466,549,o),
(432,555,q),
(410,430,l),
(528,401,o),
(626,301,o),
(610,212,q),
(595,122,o),
(447,10,o),
(337,0,q),
(320,-98,l),
(216,-98,l)
);
},
{
closed = 1;
nodes = (
(359,146,l),
(394,150,o),
(431,178,o),
(435,199,q),
(439,220,o),
(408,246,o),
(378,256,q)
);
},
{
closed = 1;
nodes = (
(338,555,l),
(302,552,o),
(264,525,o),
(261,505,q),
(259,492,o),
(272,471,o),
(296,455,o),
(310,450,q),
(319,447,l)
);
}
);
width = 646;
}
);
note = dollar;
unicode = 36;
},
{
glyphname = percent;
layers = (
{
layerId = m01;
shapes = (
{
closed = 1;
nodes = (
(178,361,o),
(111,409,o),
(84,492,o),
(93,543,qs),
(101,593,o),
(159,675,o),
(243,723,o),
(290,723,qs),
(339,723,o),
(405,676,o),
(432,594,o),
(424,544,qs),
(417,499,o),
(367,415,o),
(282,361,o),
(226,361,qs)
);
},
{
closed = 1;
nodes = (
(235,663,o),
(169,596,o),
(160,543,qs),
(150,488,o),
(192,421,o),
(237,421,qs),
(284,421,o),
(348,487,o),
(356,539,qs),
(362,578,o),
(337,634,o),
(295,663,o),
(279,663,qs)
);
},
{
closed = 1;
nodes = (
(530,-11,o),
(464,37,o),
(438,118,o),
(447,168,qs),
(455,218,o),
(513,300,o),
(596,348,o),
(643,348,qs),
(691,348,o),
(758,301,o),
(785,219,o),
(777,169,qs),
(770,126,o),
(720,43,o),
(635,-11,o),
(579,-11,qs)
);
},
{
closed = 1;
nodes = (
(587,288,o),
(523,222,o),
(514,168,qs),
(504,113,o),
(548,49,o),
(591,49,qs),
(636,49,o),
(700,116,o),
(710,168,qs),
(721,222,o),
(676,288,o),
(632,288,qs)
);
},
{
closed = 1;
nodes = (
(94,-4,l),
(704,723,l),
(780,723,l),
(171,-4,l)
);
}
);
width = 838;
},
{
layerId = "6E397364-29F0-430D-8798-B3D240BA8B9C";
shapes = (
{
closed = 1;
nodes = (
(178.165,356,o),
(110,405,o),
(82,488.619,o),
(91,540,q),
(100,590,o),
(158,673,o),
(244,721,o),
(291.58,721,q),
(341.185,721,o),
(408,673,o),
(435,591,o),
(427,541,q),
(420,494,o),
(370.61,411.002,o),
(286.646,357.646,o),
(227,356,q)
);
},
{
closed = 1;
nodes = (
(237.729,653,o),
(175.822,589.829,o),
(167.38,539.857,q),
(158,488,o),
(198,425,o),
(239.576,425,q),
(283,425,o),
(343.444,487.085,o),
(351,536,q),
(358,578,o),
(340,630,o),
(302,653,o),
(279,653,q)
);
},
{
closed = 1;
nodes = (
(540,-11,o),
(472,37,o),
(445,120,o),
(454,170,q),
(463,220,o),
(521,303,o),
(605.865,351,o),
(653.921,351,q),
(703,351,o),
(770,303.737,o),
(797,221.279,o),
(789,171,q),
(781,124,o),
(728,41,o),
(643,-11,o),
(589,-11,q)
);
},
{
closed = 1;
nodes = (
(598.812,283,o),
(538.812,220.771,o),
(530.375,169.857,q),
(521,118,o),
(562,58,o),
(601.58,58,q),
(643,58,o),
(703.541,121.059,o),
(713,170,q),
(724,229,o),
(679,283,o),
(641,283,q)
);
},
{
closed = 1;
nodes = (
(90,-3,l),
(709,719,l),
(795,719,l),
(177,-3,l)
);
}
);
width = 849;
},
{
layerId = "97194E86-8399-4162-8293-D906943AC4AA";
shapes = (
{
closed = 1;
nodes = (
(177,333,o),
(104,384,o),
(74,470,o),
(83,522,q),
(92,574,o),
(153,660,o),
(244,710,o),
(297,710,q),
(349,710,o),
(422,659,o),
(452,574,o),
(444,523,q),
(436,473,o),
(382,386,o),
(291,333,o),
(230,333,q)
);
},
{
closed = 1;
nodes = (
(251,600,o),
(211,556,o),
(205,523,q),
(199,489,o),
(225,443,o),
(250,443,q),
(276,443,o),
(317,489,o),
(322,522,q),
(325,542,o),
(317,578,o),
(294,600,o),
(277,600,q)
);
},
{
closed = 1;
nodes = (
(585,-10,o),
(512,41,o),
(482,128,o),
(491,179,q),
(500,231,o),
(561,317,o),
(652,367,o),
(705,367,q),
(758,367,o),
(830,317,o),
(860,232,o),
(852,180,q),
(845,132,o),
(789,44,o),
(697,-10,o),
(638,-10,q)
);
},
{
closed = 1;
nodes = (
(657,257,o),
(619,214,o),
(613,180,q),
(607,147,o),
(633,100,o),
(658,100,q),
(684,100,o),
(723,145,o),
(730,179,q),
(737,214,o),
(711,257,o),
(684,257,q)
);
},
{
closed = 1;
nodes = (
(68,0,l),
(731,700,l),
(866,700,l),
(203,0,l)
);
}
);
width = 904;
}
);
note = percent;
unicode = 37;
},
{
glyphname = ampersand;
layers = (
{
layerId = m01;
shapes = (
{
closed = 1;
nodes = (
(278,352,l),
(211,325,o),
(135,249,o),
(126,196,qs),
(119,158,o),
(143,94,o),
(200,57,o),
(241,57,qs),
(329,57,o),
(420,150,q)
);
},
{
closed = 1;
nodes = (
(663,347,l),
(606,258,o),
(522,158,q),
(629,12,l),
(534,-5,l),
(458,91,l),
(401,41,o),
(288,-11,o),
(224,-11,qs),
(161,-11,o),
(69,39,o),
(27,131,o),
(38,192,qs),
(51,268,o),
(158,375,o),
(246,406,q),
(219,448,o),
(197,522,o),
(204,561,qs),
(212,608,o),
(270,679,o),
(357,719,o),
(406,719,qs),
(455,719,o),
(525,678,o),
(556,609,o),
(549,568,qs),
(538,505,o),
(441,420,o),
(360,388,q),
(484,217,l),
(552,299,o),
(594,371,q)
);
},
{
closed = 1;
nodes = (
(279,535,o),
(301,477,o),
(327,438,q),
(384,458,o),
(461,523,o),
(468,563,qs),
(475,602,o),
(432,651,o),
(393,651,qs),
(347,651,o),
(290,597,o),
(284,562,qs)
);
}
);
width = 684;
},
{
layerId = "6E397364-29F0-430D-8798-B3D240BA8B9C";
shapes = (
{
closed = 1;
nodes = (
(283,340,l),
(223,315,o),
(154,245,o),
(146,197,q),
(140,162,o),
(162,103,o),
(215,69,o),
(253,69,q),
(331,69,o),
(418,152,q)
);
},
{
closed = 1;
nodes = (
(676,346,l),
(611,246,o),
(537,161,q),
(644,16,l),
(534,-5,l),
(462,86,l),
(405,38,o),
(294,-11,o),
(231,-11,q),
(167,-11,o),
(72,39,o),
(29,131,o),
(40,192,q),
(53,267,o),
(157,372,o),
(242,403,q),
(217,445,o),
(197,517,o),
(204,556,q),
(212,603,o),
(272,678,o),
(362,719,o),
(415,719,q),
(466,719,o),
(538,677,o),
(570,605,o),
(563,563,q),
(552,501,o),
(458,415,o),
(378,383,q),
(492,227,l),
(551,299,o),
(598,373,q)
);
},
{
closed = 1;
nodes = (
(293,529,o),
(313,475,o),
(337,439,q),
(392,459,o),
(463,520,o),
(470,558,q),
(477,595,o),
(437,640,o),
(400,640,q),
(366,640,o),
(305,598,o),
(298,555,q)
);
}
);
width = 695;
},
{
layerId = "97194E86-8399-4162-8293-D906943AC4AA";
shapes = (
{
closed = 1;
nodes = (
(288,278,l),
(260,263,o),
(229,224,o),
(224,200,q),
(221,180,o),
(236,148,o),
(270,131,o),
(294,131,q),
(335,131,o),
(382,161,q)
);
},
{
closed = 1;
nodes = (
(721,341,l),
(632,217,o),
(593,173,q),
(694,34,l),
(512,-5,l),
(463,59,l),
(410,24,o),
(302,-12,o),
(243,-12,q),
(171,-12,o),
(66,37,o),
(18,129,o),
(29,192,q),
(40,258,o),
(128,356,o),
(205,388,q),
(188,423,o),
(178,493,o),
(184,529,q),
(193,580,o),
(262,667,o),
(372,719,o),
(438,719,q),
(501,719,o),
(587,672,o),
(623,589,o),
(614,537,q),
(603,476,o),
(515,386,o),
(445,355,q),
(508,274,l),
(549,320,o),
(594,385,q)
);
},
{
closed = 1;
nodes = (
(343,503,o),
(354,466,o),
(369,442,q),
(410,461,o),
(453,504,o),
(458,530,q),
(463,556,o),
(438,586,o),
(414,586,q),
(383,586,o),
(351,546,o),
(347,522,q)
);
}
);
width = 748;
}
);
note = ampersand;
unicode = 38;
},
{
glyphname = quotesingle;
layers = (
{
layerId = m01;
shapes = (
{
closed = 1;
nodes = (
(266,708,l),
(266,708,l),
(244,655,l),
(157,443,l),
(102,443,l),
(174,708,l)
);
}
);
width = 259;
},
{
layerId = "6E397364-29F0-430D-8798-B3D240BA8B9C";
shapes = (
{
closed = 1;
nodes = (
(288,707,l),
(288,707,l),
(270,662,l),
(165,426,l),
(102,426,l),
(177,707,l)
);
}
);
width = 284;
},
{
layerId = "97194E86-8399-4162-8293-D906943AC4AA";
shapes = (
{
closed = 1;
nodes = (
(442,700,l),
(442,699,l),
(442,697,l),
(252,341,l),
(149,341,l),
(234,700,l)
);
}
);
width = 408;
}
);
note = quotesingle;
unicode = 39;
},
{
glyphname = parenleft;
layers = (
{
layerId = m01;
shapes = (
{
closed = 1;
nodes = (
(227,-164,l),
(134,-75,o),
(56,150,o),
(79,284,qs),
(103,417,o),
(254,639,o),
(384,737,q),
(419,686,l),
(309,595,o),
(182,397,o),
(161,284,qs),
(146,205,o),
(155,82,o),
(215,-41,o),
(277,-114,q)
);
}
);
width = 396;
},
{
layerId = "6E397364-29F0-430D-8798-B3D240BA8B9C";
shapes = (
{
closed = 1;
nodes = (
(235,-158,l),
(136,-74,o),
(54,148,o),
(78,285,q),
(102,420,o),
(258,636,o),
(391,732,q),
(432,671,l),
(324,585,o),
(199,395,o),
(177,285,q),
(162,209,o),
(172,89,o),
(233,-30,o),
(296,-99,q)
);
}
);
width = 409;
},
{
layerId = "97194E86-8399-4162-8293-D906943AC4AA";
shapes = (
{
closed = 1;
nodes = (
(271,-130,l),
(149,-61,o),
(47,139,o),
(73,287,q),
(99,432,o),
(275,631,o),
(422,706,q),
(498,597,l),
(389,529,o),
(275,384,o),
(259,287,q),
(249,224,o),
(262,124,o),
(325,28,o),
(389,-23,q)
);
}
);
width = 474;
}
);
note = parenleft;
unicode = 40;
},
{
glyphname = parenright;
layers = (
{
layerId = m01;
shapes = (
{
closed = 1;
nodes = (
(179,737,l),
(274,637,o),
(348,415,o),
(325,284,qs),
(302,152,o),
(146,-70,o),
(19,-164,q),
(-15,-114,l),
(98,-24,o),
(222,168,o),
(243,284,qs),
(257,358,o),
(249,485,o),
(189,616,o),
(125,686,q)
);
}
);
width = 398;
},
{
layerId = "6E397364-29F0-430D-8798-B3D240BA8B9C";
shapes = (
{
closed = 1;
nodes = (
(184,732,l),
(284,636,o),
(362,418,o),
(339,285,q),
(316,151,o),
(156,-70,o),
(26,-158,q),
(-15,-99,l),
(97,-13,o),
(223,178,o),
(240,285,q),
(253,367,o),
(244,487,o),
(185,605,o),
(119,671,q)
);
}
);
width = 411;
},
{
layerId = "97194E86-8399-4162-8293-D906943AC4AA";
shapes = (
{
closed = 1;
nodes = (
(205,706,l),
(329,633,o),
(433,433,o),
(408,287,q),
(382,139,o),
(210,-60,o),
(62,-130,q),
(-18,-23,l),
(91,44,o),
(204,189,o),
(222,287,q),
(234,350,o),
(220,450,o),
(156,546,o),
(91,597,q)
);
}
);
width = 474;
}
);
note = parenright;
unicode = 41;
},
{
glyphname = asterisk;
layers = (
{
layerId = m01;
shapes = (
{
closed = 1;
nodes = (
(196,725,l),
(245,644,l),
(320,725,l),
(364,693,l),
(288,607,l),
(379,573,l),
(350,515,l),
(258,548,l),
(239,440,l),
(178,440,l),
(197,549,l),
(92,515,l),
(82,573,l),
(188,608,l),
(140,690,l)
);
}
);
width = 353;
},
{
layerId = "6E397364-29F0-430D-8798-B3D240BA8B9C";
shapes = (
{
closed = 1;
nodes = (
(198,723,l),
(248,637,l),
(327,723,l),
(374,688,l),
(294,598,l),
(390,563,l),
(360,502,l),
(263,536,l),
(243,423,l),
(179,423,l),
(199,537,l),
(89,502,l),
(78,563,l),
(190,599,l),
(139,686,l)
);
}
);
width = 364;
},
{
layerId = "97194E86-8399-4162-8293-D906943AC4AA";
shapes = (
{
closed = 1;
nodes = (
(210,710,l),
(268,602,l),
(364,710,l),
(422,663,l),
(327,552,l),
(443,510,l),
(405,435,l),
(288,476,l),
(264,340,l),
(182,340,l),
(206,478,l),
(72,435,l),
(61,510,l),
(195,554,l),
(136,663,l)
);
}
);
width = 417;
}
);
note = asterisk;
unicode = 42;
},
{
glyphname = plus;
layers = (
{
layerId = m01;
shapes = (
{
closed = 1;
nodes = (
(558,382,l),
(545,308,l),
(337,308,l),
(301,100,l),
(224,100,l),
(260,308,l),
(54,308,l),
(67,382,l),
(273,382,l),
(310,589,l),
(387,589,l),
(350,382,l)
);
}
);
width = 585;
},
{
layerId = "6E397364-29F0-430D-8798-B3D240BA8B9C";
shapes = (
{
closed = 1;
nodes = (
(569,391,l),
(553,301,l),
(352,301,l),
(316,99,l),
(223,99,l),
(259,301,l),
(59,301,l),
(75,391,l),
(275,391,l),
(310,592,l),
(403,592,l),
(368,391,l)
);
}
);
width = 600;
},
{
layerId = "97194E86-8399-4162-8293-D906943AC4AA";
shapes = (
{
closed = 1;
nodes = (
(623,436,l),
(593,268,l),
(424,268,l),
(394,96,l),
(220,96,l),
(250,268,l),
(81,268,l),
(111,436,l),
(280,436,l),
(310,608,l),
(484,608,l),
(454,436,l)
);
}
);
width = 674;
}
);
note = plus;
unicode = 43;
},
{
glyphname = comma;
layers = (
{
layerId = m01;
shapes = (
{
closed = 1;
nodes = (
(-27,-139,l),
(63,120,l),
(162,120,l),
(42,-139,l)
);
}
);
width = 252;
},
{
layerId = "6E397364-29F0-430D-8798-B3D240BA8B9C";
shapes = (
{
closed = 1;
nodes = (
(-32,-143,l),
(63,133,l),
(174,133,l),
(48,-143,l)
);
}
);
width = 257;
},
{
layerId = "97194E86-8399-4162-8293-D906943AC4AA";
shapes = (
{
closed = 1;
nodes = (
(-57,-164,l),
(69,197,l),
(240,197,l),
(73,-164,l)
);
}
);
width = 280;
}
);
note = comma;
unicode = 44;
},
{
glyphname = hyphen;
layers = (
{
layerId = m01;
shapes = (
{
closed = 1;
nodes = (
(25,234,l),
(39,311,l),
(310,311,l),
(296,234,l)
);
}
);
width = 333;
},
{
layerId = "6E397364-29F0-430D-8798-B3D240BA8B9C";
shapes = (
{
closed = 1;
nodes = (
(23,227,l),
(39,319,l),
(319,319,l),
(303,227,l)
);
}
);
width = 339;
},
{
layerId = "97194E86-8399-4162-8293-D906943AC4AA";
shapes = (
{
closed = 1;
nodes = (
(8,189,l),
(38,356,l),
(366,356,l),
(336,189,l)
);
}
);
width = 371;
}
);
note = hyphen;
unicode = 45;
},
{
glyphname = period;
layers = (
{
layerId = m01;
shapes = (
{
closed = 1;
nodes = (
(142,110,o),
(171,75,o),
(167,51,qs),
(162,26,o),
(121,-10,o),
(97,-10,qs),
(72,-10,o),
(43,26,o),
(48,51,qs),
(53,79,o),
(95,110,o),
(118,110,qs)
);
}
);
width = 290;
},
{
layerId = "6E397364-29F0-430D-8798-B3D240BA8B9C";
shapes = (
{
closed = 1;
nodes = (
(154,126,o),
(187,87,o),
(182,58,q),
(177,29,o),
(130,-11,o),
(102,-11,q),
(73,-11,o),
(40,29,o),
(45,58,q),
(50,92,o),
(100,126,o),
(126,126,q)
);
}
);
width = 300;
},
{
layerId = "97194E86-8399-4162-8293-D906943AC4AA";
shapes = (
{
closed = 1;
nodes = (
(214,206,o),
(267,149,o),
(258,97,q),
(249,45,o),
(176,-13,o),
(126,-13,q),
(76,-13,o),
(24,45,o),
(33,97,q),
(42,147,o),
(112,206,o),
(164,206,q)
);
}
);
width = 350;
}
);
note = period;
unicode = 46;
},
{
glyphname = slash;
layers = (
{
layerId = m01;
shapes = (
{
closed = 1;
nodes = (
(-63,-77,l),
(518,783,l),
(594,783,l),
(12,-77,l)
);
}
);
width = 502;
},
{
layerId = "6E397364-29F0-430D-8798-B3D240BA8B9C";
shapes = (
{
closed = 1;
nodes = (
(-68,-86,l),
(517,786,l),
(606,786,l),
(19,-86,l)
);
}
);
width = 518;
},
{
layerId = "97194E86-8399-4162-8293-D906943AC4AA";
shapes = (
{
closed = 1;
nodes = (
(-72,-128,l),
(535,798,l),
(689,798,l),
(82,-128,l)
);
}
);
width = 595;
}
);
note = slash;
unicode = 47;
},
{
glyphname = zero;
layers = (
{
layerId = m01;
shapes = (
{
closed = 1;
nodes = (
(131,267,o),
(149,134,o),
(217,62,o),
(275,62,qs),
(359,62,o),
(481,223,o),
(504,352,qs),
(520,440,o),
(500,569,o),
(432,640,o),
(376,640,qs),
(282,640,o),
(169,483,o),
(147,357,qs)
);
},
{
closed = 1;
nodes = (
(572,244,o),
(482,79,o),
(346,-14,o),
(260,-14,qs),
(175,-14,o),
(71,76,o),
(39,241,o),
(59,354,qs),
(78,462,o),
(169,627,o),
(305,719,o),
(390,719,qs),
(482,719,o),
(584,625,o),
(610,461,o),
(591,352,qs)
);
}
);
width = 619;
},
{
layerId = "6E397364-29F0-430D-8798-B3D240BA8B9C";
shapes = (
{
closed = 1;
nodes = (
(149,272,o),
(167,146,o),
(232,78,o),
(287,78,q),
(366,78,o),
(482,230,o),
(504,352,q),
(519,434,o),
(499,557,o),
(434,626,o),
(381,626,q),
(292,626,o),
(185,477,o),
(164,356,q)
);
},
{
closed = 1;
nodes = (
(590,245,o),
(498,80,o),
(357,-14,o),
(269,-14,q),
(182,-14,o),
(74,77,o),
(39,243,o),
(58,353,q),
(77,459,o),
(170,625,o),
(312,718,o),
(399,718,q),
(487,718,o),
(594,625,o),
(628,460,o),
(609,352,q)
);
}
);
width = 636;
},
{
layerId = "97194E86-8399-4162-8293-D906943AC4AA";
shapes = (
{
closed = 1;
nodes = (
(237,297,o),
(255,208,o),
(305,158,o),
(343,158,q),
(401,158,o),
(490,266,o),
(505,350,q),
(514,405,o),
(497,493,o),
(447,542,o),
(409,542,q),
(347,542,o),
(262,436,o),
(247,352,q)
);
},
{
closed = 1;
nodes = (
(682,253,o),
(573,85,o),
(408,-14,o),
(311,-14,q),
(214,-14,o),
(84,84,o),
(34,250,o),
(52,350,q),
(70,449,o),
(179,616,o),
(344,714,o),
(441,714,q),
(544,714,o),
(674,628,o),
(720,466,o),
(700,352,q)
);
}
);
width = 723;
}
);
note = zero;
unicode = 48;
},
{
glyphname = one;
layers = (
{
layerId = m01;
shapes = (
{
closed = 1;
nodes = (
(69,0,l),
(180,630,l),
(72,630,l),
(86,708,l),
(278,708,l),
(153,0,l)
);
}
);
width = 309;
},
{
layerId = "6E397364-29F0-430D-8798-B3D240BA8B9C";
shapes = (
{
closed = 1;
nodes = (
(78,0,l),
(186,612,l),
(70,612,l),
(87,708,l),
(305,708,l),
(180,0,l)
);
}
);
width = 330;
},
{
layerId = "97194E86-8399-4162-8293-D906943AC4AA";
shapes = (
{
closed = 1;
nodes = (
(122,0,l),
(214,524,l),
(59,524,l),
(91,705,l),
(437,705,l),
(313,0,l)
);
}
);
width = 435;
}
);
note = one;
unicode = 49;
},
{
glyphname = two;
layers = (
{
layerId = m01;
shapes = (
{
closed = 1;
nodes = (
(535,477,o),
(449,358,o),
(355,266,qs),
(162,76,l),
(478,76,l),
(465,0,l),
(-12,0,l),
(297,310,ls),
(374,389,o),
(450,494,o),
(457,536,qs),
(465,581,o),
(415,642,o),
(351,642,qs),
(290,642,o),
(204,572,o),
(183,513,q),
(90,513,l),
(114,583,o),
(192,675,o),
(297,720,o),
(363,720,qs),
(419,720,o),
(510,679,o),
(556,592,o),
(544,528,qs)
);
}
);
width = 584;
},
{
layerId = "6E397364-29F0-430D-8798-B3D240BA8B9C";
shapes = (
{
closed = 1;
nodes = (
(542,468,o),
(458,353,o),
(366,262,q),
(193,90,l),
(488,90,l),
(472,0,l),
(-18,0,l),
(296,313,l),
(367,384,o),
(438,485,o),
(446,525,q),
(453,568,o),
(405,626,o),
(346,626,q),
(289,626,o),
(207,560,o),
(189,503,q),
(82,503,l),
(105,576,o),
(185,671,o),
(294,717,o),
(362,717,q),
(422,717,o),
(516,677,o),
(563,589,o),
(551,522,q)
);
}
);
width = 586;
},
{
layerId = "97194E86-8399-4162-8293-D906943AC4AA";
shapes = (
{
closed = 1;
nodes = (
(583,431,o),
(512,328,o),
(432,242,q),
(354,158,l),
(542,158,l),
(514,0,l),
(-40,0,l),
(298,328,l),
(343,372,o),
(390,444,o),
(395,472,q),
(401,505,o),
(365,543,o),
(330,543,q),
(292,543,o),
(229,498,o),
(221,453,q),
(44,453,l),
(58,534,o),
(154,652,o),
(290,712,o),
(365,712,q),
(433,712,o),
(547,669,o),
(607,569,o),
(593,489,q)
);
}
);
width = 595;
}
);
note = two;
unicode = 50;
},
{
glyphname = three;
layers = (
{
layerId = m01;
shapes = (
{
closed = 1;
nodes = (
(343,442,l),
(407,440,o),
(499,388,o),
(540,291,o),
(529,225,qs),
(517,160,o),
(435,51,o),
(313,-13,o),
(245,-13,qs),
(157,-13,o),
(49,78,o),
(35,156,q),
(112,206,l),
(124,135,o),
(194,63,o),
(259,63,qs),
(327,63,o),
(431,149,o),
(443,221,qs),
(457,301,o),
(372,377,o),
(291,377,qs),
(253,377,o),
(218,370,q),
(215,415,l),
(467,642,l),
(161,642,l),
(175,718,l),
(587,718,l),
(574,644,l)
);
}
);
width = 609;
},
{
layerId = "6E397364-29F0-430D-8798-B3D240BA8B9C";
shapes = (
{
closed = 1;
nodes = (
(361,438,l),
(423,435,o),
(512,384,o),
(552,289,o),
(540,224,q),
(529,159,o),
(446,50,o),
(322,-13,o),
(252,-13,q),
(163,-13,o),
(50,73,o),
(30,148,q),
(121,208,l),
(137,143,o),
(206,78,o),
(267,78,q),
(330,78,o),
(425,156,o),
(437,222,q),
(450,294,o),
(371,364,o),
(294,364,q),
(246,364,o),
(220,358,q),
(216,412,l),
(456,626,l),
(157,626,l),
(173,715,l),
(600,715,l),
(585,630,l)
);
}
);
width = 615;
},
{
layerId = "97194E86-8399-4162-8293-D906943AC4AA";
shapes = (
{
closed = 1;
nodes = (
(447,418,l),
(498,407,o),
(570,359,o),
(603,278,o),
(593,221,q),
(581,151,o),
(494,45,o),
(361,-14,o),
(279,-14,q),
(186,-14,o),
(48,51,o),
(5,110,q),
(160,219,l),
(187,186,o),
(258,152,o),
(297,152,q),
(341,152,o),
(399,192,o),
(405,225,q),
(411,259,o),
(358,297,o),
(303,297,q),
(262,297,o),
(221,297,q),
(211,398,l),
(398,543,l),
(130,543,l),
(157,700,l),
(663,700,l),
(639,561,l)
);
}
);
width = 642;
}
);
note = three;
unicode = 51;
},
{
glyphname = four;
layers = (
{
layerId = m01;
shapes = (
{
closed = 1;
nodes = (
(484,226,l),
(582,226,l),
(569,153,l),
(471,153,l),
(444,0,l),
(362,0,l),
(389,153,l),
(15,153,l),
(12,229,l),
(443,712,l),
(570,712,l)
);
},
{
closed = 1;
nodes = (
(109,226,l),
(402,226,l),
(474,635,l)
);
}
);
width = 619;
},
{
layerId = "6E397364-29F0-430D-8798-B3D240BA8B9C";
shapes = (
{
closed = 1;
nodes = (
(500,235,l),
(597,235,l),
(582,150,l),
(485,150,l),
(459,0,l),
(359,0,l),
(385,150,l),
(17,150,l),
(15,237,l),
(446,711,l),
(584,711,l)
);
},
{
closed = 1;
nodes = (
(128,235,l),
(400,235,l),
(466,609,l)
);
}
);
width = 632;
},
{
layerId = "97194E86-8399-4162-8293-D906943AC4AA";
shapes = (
{
closed = 1;
nodes = (
(585,281,l),
(674,281,l),
(648,136,l),
(559,136,l),
(535,0,l),
(347,0,l),
(371,136,l),
(32,136,l),
(24,274,l),
(463,705,l),
(659,705,l)
);
},
{
closed = 1;
nodes = (
(230,281,l),
(397,281,l),
(432,481,l)
);
}
);
width = 695;
}
);
note = four;
unicode = 52;
},
{
glyphname = five;
layers = (
{
layerId = m01;
shapes = (
{
closed = 1;
nodes = (
(90,381,l),
(179,705,l),
(550,705,l),
(530,630,l),
(234,630,l),
(176,424,l),
(211,434,o),
(260,444,o),
(286,444,qs),
(353,444,o),
(453,389,o),
(500,288,o),
(488,222,qs),
(476,152,o),
(394,46,o),
(270,-13,o),
(195,-13,qs),
(127,-13,o),
(33,35,o),
(-10,83,q),
(49,139,l),
(80,102,o),
(159,62,o),
(208,62,qs),
(285,62,o),
(390,148,o),
(402,218,qs),
(410,261,o),
(376,330,o),
(301,369,o),
(251,369,qs),
(204,369,o),
(150,350,q)
);
}
);
width = 562;
},
{
layerId = "6E397364-29F0-430D-8798-B3D240BA8B9C";
shapes = (
{
closed = 1;
nodes = (
(92,375,l),
(180,704,l),
(568,704,l),
(546,615,l),
(247,615,l),
(194,426,l),
(232,437,o),
(280,447,o),
(306,447,q),
(372,447,o),
(473,393,o),
(520,292,o),
(508,225,q),
(495,154,o),
(412,46,o),
(285,-13,o),
(208,-13,q),
(136,-13,o),
(37,36,o),
(-8,85,q),
(64,154,l),
(98,116,o),
(175,77,o),
(223,77,q),
(296,77,o),
(394,156,o),
(405,221,q),
(412,262,o),
(380,325,o),
(310,360,o),
(263,360,q),
(215,360,o),
(160,339,q)
);
}
);
width = 574;
},
{
layerId = "97194E86-8399-4162-8293-D906943AC4AA";
shapes = (
{
closed = 1;
nodes = (
(94,345,l),
(176,700,l),
(644,700,l),
(616,540,l),
(301,540,l),
(277,434,l),
(305,446,o),
(360,459,o),
(393,459,q),
(458,459,o),
(559,410,o),
(607,310,o),
(594,237,q),
(580,160,o),
(488,47,o),
(346,-14,o),
(261,-14,q),
(172,-14,o),
(45,43,o),
(-4,97,q),
(130,227,l),
(169,189,o),
(244,151,o),
(287,151,q),
(335,151,o),
(397,196,o),
(404,235,q),
(408,260,o),
(389,297,o),
(347,316,o),
(316,316,q),
(261,316,o),
(198,281,q)
);
}
);
width = 635;
}
);
note = five;
unicode = 53;
},
{
glyphname = six;
layers = (
{
layerId = m01;
shapes = (
{
closed = 1;
nodes = (
(229,399,l),
(257,417,o),
(318,428,o),
(343,428,qs),
(405,428,o),
(498,376,o),
(540,279,o),
(529,215,qs),
(517,150,o),
(435,45,o),
(315,-14,o),
(247,-14,qs),
(178,-14,o),
(76,44,o),
(28,152,o),
(41,224,qs),
(50,273,o),
(110,367,o),
(178,447,qs),
(394,706,l),
(489,706,l)
);
},
{
closed = 1;
nodes = (
(327,58,o),
(431,145,o),
(443,213,qs),
(450,255,o),
(422,322,o),
(357,360,o),
(311,360,qs),
(264,360,o),
(185,320,o),
(133,251,o),
(125,209,qs),
(112,141,o),
(182,58,o),
(258,58,qs)
);
}
);
width = 590;
},
{
layerId = "6E397364-29F0-430D-8798-B3D240BA8B9C";
shapes = (
{
closed = 1;
nodes = (
(243,402,l),
(271,420,o),
(334,433,o),
(361,433,q),
(423,433,o),
(514,381,o),
(554,284,o),
(543,219,q),
(531,152,o),
(447,45,o),
(323,-14,o),
(253,-14,q),
(181,-14,o),
(75,44,o),
(27,152,o),
(39,224,q),
(48,274,o),
(112,374,o),
(183,458,q),
(390,706,l),
(503,706,l)
);
},
{
closed = 1;
nodes = (
(333,71,o),
(428,152,o),
(439,216,q),
(446,255,o),
(420,318,o),
(359,353,o),
(315,353,q),
(271,353,o),
(197,316,o),
(149,252,o),
(142,213,q),
(130,148,o),
(195,71,o),
(267,71,q)
);
}
);
width = 600;
},
{
layerId = "97194E86-8399-4162-8293-D906943AC4AA";
shapes = (
{
closed = 1;
nodes = (
(311,414,l),
(344,436,o),
(406,458,o),
(448,458,q),
(510,458,o),
(591,407,o),
(622,309,o),
(610,240,q),
(597,163,o),
(503,48,o),
(364,-14,o),
(284,-14,q),
(193,-14,o),
(68,46,o),
(14,153,o),
(26,222,q),
(36,278,o),
(112,401,o),
(208,515,q),
(369,706,l),
(572,706,l)
);
},
{
closed = 1;
nodes = (
(351,137,o),
(412,189,o),
(419,229,q),
(424,255,o),
(407,296,o),
(366,319,o),
(336,319,q),
(306,319,o),
(259,296,o),
(229,255,o),
(224,230,q),
(216,186,o),
(257,137,o),
(306,137,q)
);
}
);
width = 649;
}
);
note = six;
unicode = 54;
},
{
glyphname = seven;
layers = (
{
layerId = m01;
shapes = (
{
closed = 1;
nodes = (
(19,0,l),
(474,630,l),
(84,630,l),
(97,705,l),
(576,705,l),
(563,629,l),
(112,0,l)
);
}
);
width = 513;
},
{
layerId = "6E397364-29F0-430D-8798-B3D240BA8B9C";
shapes = (
{
closed = 1;
nodes = (
(15,0,l),
(461,615,l),
(82,615,l),
(98,704,l),
(587,704,l),
(572,617,l),
(128,0,l)
);
}
);
width = 521;
},
{
layerId = "97194E86-8399-4162-8293-D906943AC4AA";
shapes = (
{
closed = 1;
nodes = (
(-2,0,l),
(401,537,l),
(77,537,l),
(105,700,l),
(644,700,l),
(619,554,l),
(212,0,l)
);
}
);
width = 558;
}
);
note = seven;
unicode = 55;
},
{
glyphname = eight;
layers = (
{
layerId = m01;
shapes = (
{
closed = 1;
nodes = (
(509,344,o),
(565,254,o),
(554,192,qs),
(543,132,o),
(462,39,o),
(340,-12,o),
(270,-12,qs),
(201,-12,o),
(97,41,o),
(49,133,o),
(59,190,qs),
(69,252,o),
(155,342,o),
(227,370,q),
(178,394,o),
(136,477,o),
(146,531,qs),
(155,584,o),
(230,670,o),
(339,718,o),
(399,718,qs),
(458,718,o),
(553,669,o),
(598,582,o),
(587,528,qs),
(576,473,o),
(504,393,o),
(447,369,q)
);
},
{
closed = 1;
nodes = (
(402,403,o),
(494,472,o),
(504,526,qs),
(513,577,o),
(445,646,o),
(386,646,qs),
(329,646,o),
(240,580,o),
(228,526,qs),
(217,474,o),
(280,403,o),
(343,403,qs)
);
},
{
closed = 1;
nodes = (
(330,60,o),
(410,96,o),
(462,158,o),
(469,196,qs),
(475,235,o),
(444,296,o),
(376,331,o),
(330,331,qs),
(260,331,o),
(157,255,o),
(146,196,qs),
(139,159,o),
(167,97,o),
(234,60,o),
(283,60,qs)
);
}
);
width = 639;
},
{
layerId = "6E397364-29F0-430D-8798-B3D240BA8B9C";
shapes = (
{
closed = 1;
nodes = (
(518,343,o),
(573,254,o),
(562,193,q),
(551,132,o),
(468,39,o),
(344,-12,o),
(272,-12,q),
(201,-12,o),
(94,41,o),
(44,134,o),
(54,191,q),
(64,253,o),
(149,341,o),
(219,369,q),
(172,393,o),
(129,475,o),
(139,529,q),
(148,582,o),
(225,668,o),
(338,717,o),
(400,717,q),
(462,717,o),
(559,668,o),
(606,581,o),
(596,526,q),
(586,468,o),
(515,395,o),
(458,368,q)
);
},
{
closed = 1;
nodes = (
(400,405,o),
(487,471,o),
(496,521,q),
(504,569,o),
(441,633,o),
(386,633,q),
(331,633,o),
(246,569,o),
(237,520,q),
(228,471,o),
(285,405,o),
(345,405,q)
);
},
{
closed = 1;
nodes = (
(331,72,o),
(407,106,o),
(455,164,o),
(461,199,q),
(467,235,o),
(438,292,o),
(374,324,o),
(331,324,q),
(265,324,o),
(167,253,o),
(158,199,q),
(152,161,o),
(178,103,o),
(241,72,o),
(287,72,q)
);
}
);
width = 642;
},
{
layerId = "97194E86-8399-4162-8293-D906943AC4AA";
shapes = (
{
closed = 1;
nodes = (
(565,337,o),
(614,251,o),
(605,196,q),
(594,134,o),
(504,40,o),
(363,-12,o),
(280,-12,q),
(197,-12,o),
(75,40,o),
(18,134,o),
(28,195,q),
(38,254,o),
(115,339,o),
(178,363,q),
(137,388,o),
(100,462,o),
(109,516,q),
(119,572,o),
(202,661,o),
(331,712,o),
(408,712,q),
(485,712,o),
(598,661,o),
(648,571,o),
(637,516,q),
(627,466,o),
(561,385,o),
(514,363,q)
);
},
{
closed = 1;
nodes = (
(393,416,o),
(450,462,o),
(455,493,q),
(460,524,o),
(421,567,o),
(382,567,q),
(343,567,o),
(289,525,o),
(283,494,q),
(276,458,o),
(314,416,o),
(355,416,q)
);
},
{
closed = 1;
nodes = (
(336,133,o),
(386,155,o),
(417,193,o),
(421,214,q),
(425,236,o),
(405,271,o),
(362,290,o),
(333,290,q),
(289,290,o),
(226,248,o),
(219,214,q),
(215,190,o),
(233,153,o),
(275,133,o),
(305,133,q)
);
}
);
width = 658;
}
);
note = eight;
unicode = 56;
},
{
glyphname = nine;
layers = (
{
layerId = m01;
shapes = (
{
closed = 1;
nodes = (
(387,306,l),
(335,272,o),
(276,272,qs),
(215,272,o),
(121,328,o),
(77,427,o),
(88,490,qs),
(99,554,o),
(182,660,o),
(303,720,o),
(370,720,qs),
(440,720,o),
(542,661,o),
(587,551,o),
(574,479,qs),
(564,420,o),
(496,317,o),
(436,248,qs),
(222,-2,l),
(129,-2,l)
);
},
{
closed = 1;
nodes = (
(313,647,o),
(235,606,o),
(182,536,o),
(175,494,qs),
(168,451,o),
(196,384,o),
(261,345,o),
(306,345,qs),
(351,345,o),
(430,385,o),
(484,454,o),
(491,495,qs),
(498,535,o),
(472,605,o),
(407,647,o),
(358,647,qs)
);
}
);
width = 586;
},
{
layerId = "6E397364-29F0-430D-8798-B3D240BA8B9C";
shapes = (
{
closed = 1;
nodes = (
(383,304,l),
(328,268,o),
(267,268,q),
(205,268,o),
(114,323,o),
(74,422,o),
(85,486,q),
(97,553,o),
(181,660,o),
(304,720,o),
(373,720,q),
(447,720,o),
(553,661,o),
(599,552,o),
(587,480,q),
(577,424,o),
(514,326,o),
(452,253,q),
(236,-2,l),
(124,-2,l)
);
},
{
closed = 1;
nodes = (
(317,634,o),
(244,596,o),
(196,531,o),
(189,492,q),
(182,452,o),
(208,388,o),
(268,352,o),
(311,352,q),
(353,352,o),
(428,390,o),
(478,454,o),
(485,492,q),
(493,534,o),
(469,598,o),
(407,634,o),
(360,634,q)
);
}
);
width = 597;
},
{
layerId = "97194E86-8399-4162-8293-D906943AC4AA";
shapes = (
{
closed = 1;
nodes = (
(368,292,l),
(304,248,o),
(232,248,q),
(171,248,o),
(89,300,o),
(58,399,o),
(70,468,q),
(83,544,o),
(177,658,o),
(315,720,o),
(392,720,q),
(486,720,o),
(612,660,o),
(666,553,o),
(653,484,q),
(646,443,o),
(595,349,o),
(537,277,q),
(310,0,l),
(107,0,l)
);
},
{
closed = 1;
nodes = (
(343,569,o),
(295,546,o),
(265,505,o),
(260,479,q),
(256,454,o),
(273,412,o),
(313,387,o),
(343,387,q),
(373,387,o),
(421,411,o),
(451,452,o),
(456,478,q),
(461,503,o),
(445,544,o),
(404,569,o),
(373,569,q)
);
}
);
width = 649;
}
);
note = nine;
unicode = 57;
},
{
glyphname = colon;
layers = (
{
layerId = m01;
shapes = (
{
closed = 1;
nodes = (
(142,110,o),
(171,75,o),
(167,51,qs),
(162,26,o),
(121,-10,o),
(97,-10,qs),
(72,-10,o),
(43,26,o),
(48,51,qs),
(53,79,o),
(95,110,o),
(118,110,qs)
);
},
{
closed = 1;
nodes = (
(210,490,o),
(239,455,o),
(235,431,qs),
(230,406,o),
(189,370,o),
(165,370,qs),
(140,370,o),
(111,406,o),
(116,431,qs),
(121,459,o),
(163,490,o),
(186,490,qs)
);
}
);
width = 291;
},
{
layerId = "6E397364-29F0-430D-8798-B3D240BA8B9C";
shapes = (
{
closed = 1;
nodes = (
(154,126,o),
(187,87,o),
(182,58,q),
(177,29,o),
(130,-11,o),
(102,-11,q),
(73,-11,o),
(40,29,o),
(45,58,q),
(50,92,o),
(100,126,o),
(126,126,q)
);
},
{
closed = 1;
nodes = (
(221,501,o),
(254,462,o),
(249,433,q),
(244,404,o),
(197,364,o),
(169,364,q),
(140,364,o),
(107,404,o),
(112,433,q),
(117,467,o),
(167,501,o),
(193,501,q)
);
}
);
width = 301;
},
{
layerId = "97194E86-8399-4162-8293-D906943AC4AA";
shapes = (
{
closed = 1;
nodes = (
(214,206,o),
(267,149,o),
(258,97,q),
(249,45,o),
(176,-13,o),
(126,-13,q),
(76,-13,o),
(24,45,o),
(33,97,q),
(42,147,o),
(112,206,o),
(164,206,q)
);
},
{
closed = 1;
nodes = (
(275,552,o),
(328,495,o),
(319,443,q),
(310,391,o),
(237,333,o),
(187,333,q),
(137,333,o),
(85,391,o),
(94,443,q),
(103,493,o),
(173,552,o),
(225,552,q)
);
}
);
width = 350;
}
);
note = colon;
unicode = 58;
},
{
glyphname = semicolon;
layers = (
{
layerId = m01;
shapes = (
{
closed = 1;
nodes = (
(188,490,o),
(217,455,o),
(213,431,qs),
(208,406,o),
(167,370,o),
(143,370,qs),
(118,370,o),
(89,406,o),
(94,431,qs),
(99,459,o),
(141,490,o),
(164,490,qs)
);
},
{
closed = 1;
nodes = (
(-37,-139,l),
(52,120,l),
(153,120,l),
(33,-139,l)
);
}
);
width = 254;
},
{
layerId = "6E397364-29F0-430D-8798-B3D240BA8B9C";
shapes = (
{
closed = 1;
nodes = (
(197,501,o),
(230,462,o),
(225,433,q),
(220,404,o),
(173,364,o),
(145,364,q),
(116,364,o),
(83,404,o),
(88,433,q),
(93,467,o),
(143,501,o),
(169,501,q)
);
},
{
closed = 1;
nodes = (
(-42,-143,l),
(53,133,l),
(165,133,l),
(38,-143,l)
);
}
);
width = 261;
},
{
layerId = "97194E86-8399-4162-8293-D906943AC4AA";
shapes = (
{
closed = 1;
nodes = (
(246,552,o),
(299,495,o),
(290,443,q),
(281,391,o),
(208,333,o),
(158,333,q),
(108,333,o),
(56,391,o),
(65,443,q),
(74,493,o),
(144,552,o),
(196,552,q)
);
},
{
closed = 1;
nodes = (
(-66,-164,l),
(60,197,l),
(231,197,l),
(64,-164,l)
);
}
);
width = 297;
}
);
note = semicolon;
unicode = 59;
},
{
glyphname = less;
layers = (
{
layerId = m01;
shapes = (
{
closed = 1;
nodes = (
(162,343,l),
(517,158,l),
(503,79,l),
(65,307,l),
(78,378,l),
(596,606,l),
(582,526,l)
);
}
);
width = 594;
},
{
layerId = "6E397364-29F0-430D-8798-B3D240BA8B9C";
shapes = (
{
closed = 1;
nodes = (
(181,345,l),
(527,172,l),
(511,77,l),
(69,300,l),
(84,388,l),
(605,611,l),
(588,515,l)
);
}
);
width = 606;
},
{
layerId = "97194E86-8399-4162-8293-D906943AC4AA";
shapes = (
{
closed = 1;
nodes = (
(270,352,l),
(578,243,l),
(546,65,l),
(84,263,l),
(116,440,l),
(647,638,l),
(616,461,l)
);
}
);
width = 666;
}
);
note = less;
unicode = 60;
},
{
glyphname = equal;
layers = (
{
layerId = m01;
shapes = (
{
closed = 1;
nodes = (
(554,438,l),
(77,438,l),
(90,513,l),
(564,513,l)
);
},
{
closed = 1;
nodes = (
(509,196,l),
(35,196,l),
(48,271,l),
(522,271,l)
);
}
);
width = 568;
},
{
layerId = "6E397364-29F0-430D-8798-B3D240BA8B9C";
shapes = (
{
closed = 1;
nodes = (
(559,432,l),
(82,432,l),
(98,523,l),
(575,523,l)
);
},
{
closed = 1;
nodes = (
(516,186,l),
(39,186,l),
(55,276,l),
(532,276,l)
);
}
);
width = 582;
},
{
layerId = "97194E86-8399-4162-8293-D906943AC4AA";
shapes = (
{
closed = 1;
nodes = (
(596,403,l),
(105,403,l),
(135,570,l),
(626,570,l)
);
},
{
closed = 1;
nodes = (
(549,134,l),
(58,134,l),
(87,301,l),
(578,301,l)
);
}
);
width = 653;
}
);
note = equal;
unicode = 61;
},
{
glyphname = greater;
layers = (
{
layerId = m01;
shapes = (
{
closed = 1;
nodes = (
(555,379,l),
(542,306,l),
(25,80,l),
(39,160,l),
(457,342,l),
(104,525,l),
(118,606,l)
);
}
);
width = 593;
},
{
layerId = "6E397364-29F0-430D-8798-B3D240BA8B9C";
shapes = (
{
closed = 1;
nodes = (
(564,389,l),
(548,299,l),
(29,78,l),
(46,174,l),
(452,344,l),
(106,514,l),
(123,611,l)
);
}
);
width = 605;
},
{
layerId = "97194E86-8399-4162-8293-D906943AC4AA";
shapes = (
{
closed = 1;
nodes = (
(613,440,l),
(581,263,l),
(49,65,l),
(81,242,l),
(427,351,l),
(119,460,l),
(150,638,l)
);
}
);
width = 667;
}
);
note = greater;
unicode = 62;
},
{
glyphname = question;
layers = (
{
layerId = m01;
shapes = (
{
closed = 1;
nodes = (
(121,649,l),
(150,680,o),
(240,717,o),
(290,717,qs),
(343,717,o),
(417,675,o),
(447,600,o),
(438,551,qs),
(432,515,o),
(398,451,o),
(349,398,o),
(317,374,qs),
(270,338,o),
(225,273,o),
(216,222,qs),
(211,190,l),
(129,190,l),
(139,252,ls),
(150,310,o),
(213,388,o),
(265,429,qs),
(306,462,o),
(349,512,o),
(355,544,qs),
(362,583,o),
(316,641,o),
(267,641,qs),
(226,641,o),
(141,594,o),
(104,552,q)
);
},
{
closed = 1;
nodes = (
(185,109,o),
(215,73,o),
(211,50,qs),
(206,24,o),
(164,-9,o),
(139,-9,qs),
(114,-9,o),
(85,24,o),
(90,51,qs),
(95,76,o),
(133,109,o),
(160,109,qs)
);
}
);
width = 442;
},
{
layerId = "6E397364-29F0-430D-8798-B3D240BA8B9C";
shapes = (
{
closed = 1;
nodes = (
(117,643,l),
(150,677,o),
(244,716,o),
(297,716,q),
(352,716,o),
(429,674,o),
(463,596,o),
(454,544,q),
(447,506,o),
(412,443,o),
(362,391,o),
(329,366,q),
(284,332,o),
(243,273,o),
(235,227,q),
(229,195,l),
(131,195,l),
(142,254,l),
(152,311,o),
(213,385,o),
(265,427,q),
(304,458,o),
(347,506,o),
(352,536,q),
(358,572,o),
(313,625,o),
(267,625,q),
(225,625,o),
(139,579,o),
(99,536,q)
);
},
{
closed = 1;
nodes = (
(201,121,o),
(235,83,o),
(230,56,q),
(225,26,o),
(179,-10,o),
(149,-10,q),
(121,-10,o),
(90,26,o),
(94,56,q),
(99,85,o),
(142,121,o),
(172,121,q)
);
}
);
width = 456;
},
{
layerId = "97194E86-8399-4162-8293-D906943AC4AA";
shapes = (
{
closed = 1;
nodes = (
(98,613,l),
(144,662,o),
(263,709,o),
(329,709,q),
(392,709,o),
(491,661,o),
(540,569,o),
(529,506,q),
(521,463,o),
(483,402,o),
(430,357,o),
(384,325,q),
(354,305,o),
(332,276,o),
(327,249,q),
(321,218,l),
(147,218,l),
(155,261,l),
(164,315,o),
(224,385,o),
(270,417,q),
(297,436,o),
(333,474,o),
(336,494,q),
(341,520,o),
(297,547,o),
(265,547,q),
(221,547,o),
(124,498,o),
(70,455,q)
);
},
{
closed = 1;
nodes = (
(282,180,o),
(334,130,o),
(326,84,q),
(318,38,o),
(248,-13,o),
(201,-13,q),
(154,-13,o),
(102,38,o),
(111,84,q),
(121,137,o),
(192,180,o),
(235,180,q)
);
}
);
width = 524;
}
);
note = question;
unicode = 63;
},
{
glyphname = at;
layers = (
{
layerId = m01;
shapes = (
{
closed = 1;
nodes = (
(309,244,o),
(355,175,o),
(403,175,qs),
(442,175,o),
(517,222,o),
(569,298,o),
(576,339,qs),
(585,391,o),
(538,452,o),
(488,452,qs),
(426,452,o),
(331,370,o),
(319,299,qs)
);
},
{
closed = 1;
nodes = (
(696,-8,l),
(627,-50,o),
(483,-93,o),
(406,-93,qs),
(286,-93,o),
(114,13,o),
(38,197,o),
(58,309,qs),
(78,422,o),
(220,610,o),
(428,719,o),
(542,719,qs),
(649,719,o),
(812,623,o),
(888,457,o),
(870,357,qs),
(856,280,o),
(789,168,o),
(695,109,o),
(643,109,qs),
(599,109,o),
(554,151,o),
(547,194,q),
(514,156,o),
(431,111,o),
(383,111,qs),
(333,111,o),
(262,158,o),
(231,242,o),
(240,296,qs),
(251,357,o),
(328,462,o),
(438,524,o),
(496,524,qs),
(544,524,o),
(600,482,o),
(615,446,q),
(636,511,l),
(705,505,l),
(621,239,l),
(615,202,o),
(639,158,o),
(668,158,qs),
(700,158,o),
(762,206,o),
(809,292,o),
(819,346,qs),
(835,437,o),
(772,587,o),
(629,674,o),
(533,674,qs),
(432,674,o),
(252,578,o),
(129,413,o),
(111,312,qs),
(93,210,o),
(157,45,o),
(310,-49,o),
(422,-49,qs),
(489,-49,o),
(611,-12,o),
(678,26,q)
);
}
);
width = 906;
},
{
layerId = "6E397364-29F0-430D-8798-B3D240BA8B9C";
shapes = (
{
closed = 1;
nodes = (
(319,242,o),
(361,178,o),
(408,178,q),
(444.886,178,o),
(515.819,222.325,o),
(565,294,o),
(572,334,q),
(580,384,o),
(535.956,445,o),
(489.101,445,q),
(431,445,o),
(340,364,o),
(328,295,q)
);
},
{
closed = 1;
nodes = (
(694,-21,l),
(626,-63,o),
(482,-105,o),
(405,-105,q),
(285,-105,o),
(111,3,o),
(35,190,o),
(55.22,303.085,q),
(75.44,417.179,o),
(219,607,o),
(429.584,718,o),
(545,718,q),
(653.981,718,o),
(820,620,o),
(897,452,o),
(879,352,q),
(864.692,273.758,o),
(796.216,159.952,o),
(700.145,100,o),
(647,100,q),
(600,100,o),
(550,142,o),
(542,184,q),
(507,145,o),
(427,102,o),
(379,102,q),
(329,102,o),
(258,149.762,o),
(227,235.124,o),
(236,290,q),
(247.125,352.47,o),
(325,460,o),
(435,523,o),
(493,523,q),
(540.538,523,o),
(596,483,o),
(613,446,q),
(634,510,l),
(716,501,l),
(632,237,l),
(623,199,o),
(647,152,o),
(678,152,q),
(709.546,152,o),
(770.667,200.358,o),
(817,287,o),
(827,343,q),
(843,434.755,o),
(780,586,o),
(635,673,o),
(536,673,q),
(433.562,673,o),
(251,576,o),
(126.255,407.898,o),
(108,305,q),
(90,201.87,o),
(154.296,35.042,o),
(308.28,-60,o),
(421,-60,q),
(490,-60,o),
(612,-24,o),
(676,13,q)
);
}
);
width = 913;
},
{
layerId = "97194E86-8399-4162-8293-D906943AC4AA";
shapes = (
{
closed = 1;
nodes = (
(368,235,o),
(401,194,o),
(434,194,q),
(460,194,o),
(510,225,o),
(545,278,o),
(550,309,q),
(557,344,o),
(524,385,o),
(491,385,q),
(450,385,o),
(383,322,o),
(375,272,q)
);
},
{
closed = 1;
nodes = (
(686,-87,l),
(619,-124,o),
(482,-162,o),
(407,-162,q),
(281,-162,o),
(98,-46,o),
(17,155,o),
(38,275,q),
(59,394,o),
(212,596,o),
(436,714,o),
(559,714,q),
(680,714,o),
(859,609,o),
(940,430,o),
(921,325,q),
(906,238,o),
(825,117,o),
(718,57,o),
(661,57,q),
(602,57,o),
(534,99,o),
(520,133,q),
(483,97,o),
(405,59,o),
(360,59,q),
(308,59,o),
(234,109,o),
(202,200,o),
(213,260,q),
(225,330,o),
(307,450,o),
(421,520,o),
(480,520,q),
(526,520,o),
(584,480,o),
(601,446,q),
(623,507,l),
(774,483,l),
(683,225,l),
(669,182,o),
(688,122,o),
(726,122,q),
(759,122,o),
(815,168,o),
(858,260,o),
(869,325,q),
(886,421,o),
(819,577,o),
(663,667,o),
(551,667,q),
(437,667,o),
(240,564,o),
(109,385,o),
(90,275,q),
(71,164,o),
(138,-12,o),
(299,-112,o),
(416,-112,q),
(492,-112,o),
(611,-87,o),
(671,-55,q)
);
}
);
width = 948;
}
);
note = at;
unicode = 64;
},
{
glyphname = A;
layers = (
{
layerId = m01;
shapes = (
{
closed = 1;
nodes = (
(39,0,l),
(-52,0,l),
(380,705,l),
(450,705,l),
(635,0,l),
(542,0,l),
(493,197,l),
(159,197,l)
);
},
{
closed = 1;
nodes = (
(474,272,l),
(398,606,l),
(204,272,l)
);
}
);
width = 677;
},
{
layerId = "6E397364-29F0-430D-8798-B3D240BA8B9C";
shapes = (
{
closed = 1;
nodes = (
(57,0,l),
(-53,0,l),
(378,705,l),
(467,705,l),
(651,0,l),
(538,0,l),
(493,185,l),
(170,185,l)
);
},
{
closed = 1;
nodes = (
(472,273,l),
(401,584,l),
(221,273,l)
);
}
);
width = 692;
},
{
layerId = "97194E86-8399-4162-8293-D906943AC4AA";
shapes = (
{
closed = 1;
nodes = (
(149,0,l),
(-55,0,l),
(367,705,l),
(554,705,l),
(728,0,l),
(520,0,l),
(491,125,l),
(221,125,l)
);
},
{
closed = 1;
nodes = (
(462,276,l),
(419,475,l),
(305,276,l)
);
}
);
width = 767;
}
);
note = A;
unicode = 65;
},
{
glyphname = B;
layers = (
{
layerId = m01;
shapes = (
{
closed = 1;
nodes = (
(358,705,ls),
(463,705,o),
(589,620,o),
(573,527,qs),
(563,469,o),
(496,384,o),
(443,366,q),
(525,355,o),
(590,262,o),
(578,194,qs),
(563,109,o),
(406,0,o),
(262,0,qs),
(33,0,l),
(157,705,l)
);
},
{
closed = 1;
nodes = (
(314,396,ls),
(389,396,o),
(477,462,o),
(487,515,qs),
(497,573,o),
(426,631,o),
(355,631,qs),
(228,631,l),
(187,396,l)
);
},
{
closed = 1;
nodes = (
(289,74,ls),
(384,74,o),
(484,137,o),
(495,198,qs),
(506,260,o),
(416,322,o),
(300,322,qs),
(174,322,l),
(130,74,l)
);
}
);
width = 637;
},
{
layerId = "6E397364-29F0-430D-8798-B3D240BA8B9C";
shapes = (
{
closed = 1;
nodes = (
(380,704,l),
(486,704,o),
(610,618,o),
(594,527,q),
(584,469,o),
(516,385,o),
(463,366,q),
(542,354,o),
(607,262,o),
(594,194,q),
(579,108,o),
(420,0,o),
(280,0,q),
(29,0,l),
(153,704,l)
);
},
{
closed = 1;
nodes = (
(328,400,l),
(398,400,o),
(480,460,o),
(489,510,q),
(499,563,o),
(434,617,o),
(367,617,q),
(240,617,l),
(202,400,l)
);
},
{
closed = 1;
nodes = (
(304,88,l),
(390,88,o),
(483,146,o),
(493,202,q),
(502,259,o),
(421,316,o),
(316,316,q),
(187,316,l),
(147,88,l)
);
}
);
width = 651;
},
{
layerId = "97194E86-8399-4162-8293-D906943AC4AA";
shapes = (
{
closed = 1;
nodes = (
(491,700,l),
(602,700,o),
(713,607,o),
(698,524,q),
(688,466,o),
(617,387,o),
(563,366,q),
(626,346,o),
(683,263,o),
(671,195,q),
(655,104,o),
(496,0,o),
(370,0,q),
(11,0,l),
(134,700,l)
);
},
{
closed = 1;
nodes = (
(395,421,l),
(439,421,o),
(492,453,o),
(497,484,q),
(502,513,o),
(464,544,o),
(421,544,q),
(296,544,l),
(274,421,l)
);
},
{
closed = 1;
nodes = (
(377,156,l),
(422,156,o),
(477,191,o),
(482,222,q),
(487,251,o),
(444,285,o),
(397,285,q),
(250,285,l),
(228,156,l)
);
}
);
width = 718;
}
);
note = B;
unicode = 66;
},
{
glyphname = C;
layers = (
{
layerId = m01;
shapes = (
{
closed = 1;
nodes = (
(614,78,l),
(554,33,o),
(434,-14,o),
(363,-14,qs),
(262,-14,o),
(113,82,o),
(48,249,o),
(66,351,qs),
(84,453,o),
(208,622,o),
(392,719,o),
(495,719,qs),
(562,719,o),
(658,680,o),
(699,643,q),
(682,547,l),
(648,594,o),
(553,643,o),
(476,643,qs),
(398,643,o),
(260,565,o),
(167,432,o),
(153,352,qs),
(139,272,o),
(185,140,o),
(296,63,o),
(374,63,qs),
(443,63,o),
(556,119,o),
(631,175,q)
);
}
);
width = 706;
},
{
layerId = "6E397364-29F0-430D-8798-B3D240BA8B9C";
shapes = (
{
closed = 1;
nodes = (
(609,74,l),
(550,31,o),
(431,-14,o),
(361,-14,q),
(260,-14,o),
(112,82,o),
(46,249,o),
(64,351,q),
(82,452,o),
(206,621,o),
(390,718,o),
(494,718,q),
(560,718,o),
(657,680,o),
(697,645,q),
(677,532,l),
(644,577,o),
(549,625,o),
(475,625,q),
(400,625,o),
(271,552,o),
(183,427,o),
(170,352,q),
(157,277,o),
(200,152,o),
(304,80,o),
(379,80,q),
(447,80,o),
(560,134,o),
(629,187,q)
);
}
);
width = 699;
},
{
layerId = "97194E86-8399-4162-8293-D906943AC4AA";
shapes = (
{
closed = 1;
nodes = (
(584,54,l),
(528,20,o),
(413,-14,o),
(348,-14,q),
(249,-14,o),
(100,81,o),
(33,248,o),
(51,350,q),
(69,451,o),
(194,618,o),
(380,714,o),
(484,714,q),
(548,714,o),
(646,682,o),
(684,652,q),
(649,455,l),
(621,492,o),
(528,537,o),
(471,537,q),
(414,537,o),
(320,488,o),
(260,403,o),
(251,352,q),
(241,298,o),
(271,212,o),
(347,163,o),
(405,163,q),
(460,163,o),
(564,205,o),
(618,248,q)
);
}
);
width = 665;
}
);
note = C;
unicode = 67;
},
{
glyphname = D;
layers = (
{
layerId = m01;
shapes = (
{
closed = 1;
nodes = (
(378,705,ls),
(485,705,o),
(641,617,o),
(711,457,o),
(692,353,qs),
(674,250,o),
(552,90,o),
(365,0,o),
(253,0,qs),
(33,0,l),
(157,705,l)
);
},
{
closed = 1;
nodes = (
(262,76,ls),
(354,76,o),
(498,146,o),
(588,270,o),
(602,351,qs),
(614,419,o),
(579,547,o),
(483,628,o),
(408,628,qs),
(229,628,l),
(131,76,l)
);
}
);
width = 729;
},
{
layerId = "6E397364-29F0-430D-8798-B3D240BA8B9C";
shapes = (
{
closed = 1;
nodes = (
(383,704,l),
(492,704,o),
(650,617,o),
(719,457,o),
(700,353,q),
(682,251,o),
(559,90,o),
(371,0,o),
(257,0,q),
(29,0,l),
(153,704,l)
);
},
{
closed = 1;
nodes = (
(271,92,l),
(357,92,o),
(493,157,o),
(578,275,o),
(592,351,q),
(603,417,o),
(568,537,o),
(475,611,o),
(403,611,q),
(241,611,l),
(149,92,l)
);
}
);
width = 734;
},
{
layerId = "97194E86-8399-4162-8293-D906943AC4AA";
shapes = (
{
closed = 1;
nodes = (
(404,700,l),
(527,700,o),
(690,613,o),
(756,456,o),
(738,354,q),
(720,252,o),
(597,92,o),
(400,0,o),
(277,0,q),
(11,0,l),
(134,700,l)
);
},
{
closed = 1;
nodes = (
(314,172,l),
(372,172,o),
(467,215,o),
(529,295,o),
(539,351,q),
(549,406,o),
(515,486,o),
(435,528,o),
(377,528,q),
(298,528,l),
(235,172,l)
);
}
);
width = 761;
}
);
note = D;
unicode = 68;
},
{
glyphname = E;
layers = (
{
layerId = m01;
shapes = (
{
closed = 1;
nodes = (
(517,76,l),
(504,0,l),
(33,0,l),
(157,705,l),
(617,705,l),
(604,629,l),
(230,629,l),
(189,397,l),
(534,397,l),
(521,321,l),
(176,321,l),
(132,76,l)
);
}
);
width = 618;
},
{
layerId = "6E397364-29F0-430D-8798-B3D240BA8B9C";
shapes = (
{
closed = 1;
nodes = (
(533,91,l),
(517,0,l),
(29,0,l),
(153,704,l),
(631,704,l),
(615,613,l),
(241,613,l),
(204,402,l),
(548,402,l),
(532,314,l),
(188,314,l),
(149,91,l)
);
}
);
width = 628;
},
{
layerId = "97194E86-8399-4162-8293-D906943AC4AA";
shapes = (
{
closed = 1;
nodes = (
(608,165,l),
(579,0,l),
(11,0,l),
(134,700,l),
(697,700,l),
(668,535,l),
(297,535,l),
(279,429,l),
(615,429,l),
(588,276,l),
(252,276,l),
(232,165,l)
);
}
);
width = 675;
}
);
note = E;
unicode = 69;
},
{
glyphname = F;
layers = (
{
layerId = m01;
shapes = (
{
closed = 1;
nodes = (
(43,0,l),
(167,705,l),
(624,705,l),
(611,629,l),
(239,629,l),
(197,389,l),
(538,389,l),
(524,313,l),
(183,313,l),
(128,0,l)
);
}
);
width = 589;
},
{
layerId = "6E397364-29F0-430D-8798-B3D240BA8B9C";
shapes = (
{
closed = 1;
nodes = (
(29,-2,l),
(153,704,l),
(628,704,l),
(612,613,l),
(241,613,l),
(202,393,l),
(541,393,l),
(525,303,l),
(186,303,l),
(133,-2,l)
);
}
);
width = 601;
},
{
layerId = "97194E86-8399-4162-8293-D906943AC4AA";
shapes = (
{
closed = 1;
nodes = (
(11,0,l),
(134,700,l),
(694,700,l),
(664,530,l),
(298,530,l),
(277,411,l),
(608,411,l),
(580,250,l),
(249,250,l),
(205,0,l)
);
}
);
width = 659;
}
);
note = F;
unicode = 70;
},
{
glyphname = G;
layers = (
{
layerId = m01;
shapes = (
{
closed = 1;
nodes = (
(499,321,l),
(512,399,l),
(803,399,l),
(799,373,ls),
(780,264,o),
(669,88,o),
(488,-16,o),
(369,-16,qs),
(265,-16,o),
(114,83,o),
(48,251,o),
(66,352,qs),
(84,453,o),
(216,621,o),
(409,719,o),
(513,719,qs),
(576,719,o),
(684,685,o),
(730,647,q),
(713,553,l),
(679,594,o),
(574,643,o),
(505,643,qs),
(425,643,o),
(271,564,o),
(165,430,o),
(151,352,qs),
(137,271,o),
(189,138,o),
(308,62,o),
(389,62,qs),
(467,62,o),
(603,127,o),
(696,245,o),
(710,321,q)
);
}
);
width = 831;
},
{
layerId = "6E397364-29F0-430D-8798-B3D240BA8B9C";
shapes = (
{
closed = 1;
nodes = (
(482,312,l),
(498,401,l),
(794,401,l),
(789,372,l),
(769,258,o),
(656,83,o),
(479,-16,o),
(366,-16,q),
(262,-16,o),
(112,82,o),
(46,250,o),
(64,352,q),
(82,452,o),
(213,620,o),
(406,718,o),
(510,718,q),
(571,718,o),
(678,687,o),
(721,653,q),
(701,540,l),
(668,580,o),
(566,626,o),
(500,626,q),
(424,626,o),
(280,551,o),
(181,425,o),
(168,352,q),
(154,275,o),
(203,149,o),
(314,77,o),
(389,77,q),
(459,77,o),
(584,135,o),
(669,242,o),
(681,312,q)
);
}
);
width = 819;
},
{
layerId = "97194E86-8399-4162-8293-D906943AC4AA";
shapes = (
{
closed = 1;
nodes = (
(399,267,l),
(424,409,l),
(746,409,l),
(739,369,l),
(714,227,o),
(592,56,o),
(434,-14,o),
(348,-14,q),
(250,-14,o),
(100,80,o),
(32,246,o),
(51,350,q),
(69,451,o),
(196,618,o),
(385,714,o),
(492,714,q),
(543,714,o),
(642,696,o),
(676,680,q),
(640,475,l),
(607,507,o),
(521,541,o),
(472,541,q),
(418,541,o),
(322,490,o),
(259,402,o),
(250,349,q),
(240,293,o),
(270,203,o),
(340,153,o),
(387,153,q),
(417,153,o),
(481,176,o),
(530,228,o),
(537,267,q)
);
}
);
width = 759;
}
);
note = G;
unicode = 71;
},
{
glyphname = H;
layers = (
{
layerId = m01;
shapes = (
{
closed = 1;
nodes = (
(241,706,l),
(187,398,l),
(569,398,l),
(623,706,l),
(707,706,l),
(583,0,l),
(499,0,l),
(555,320,l),
(173,320,l),
(117,0,l),
(33,0,l),
(157,706,l)
);
}
);
width = 709;
},
{
layerId = "6E397364-29F0-430D-8798-B3D240BA8B9C";
shapes = (
{
closed = 1;
nodes = (
(256,705,l),
(203,405,l),
(563,405,l),
(616,705,l),
(718,705,l),
(594,0,l),
(492,0,l),
(547,311,l),
(187,311,l),
(132,0,l),
(29,0,l),
(153,705,l)
);
}
);
width = 717;
},
{
layerId = "97194E86-8399-4162-8293-D906943AC4AA";
shapes = (
{
closed = 1;
nodes = (
(328,700,l),
(282,438,l),
(531,438,l),
(577,700,l),
(771,700,l),
(648,0,l),
(454,0,l),
(501,266,l),
(252,266,l),
(205,0,l),
(11,0,l),
(134,700,l)
);
}
);
width = 754;
}
);
note = H;
unicode = 72;
},
{
glyphname = J;
layers = (
{
layerId = m01;
shapes = (
{
closed = 1;
nodes = (
(-29,102,l),
(-2,84,o),
(46,65,o),
(76,65,qs),
(126,65,o),
(186,131,o),
(199,207,qs),
(287,705,l),
(373,705,l),
(286,209,ls),
(267,101,o),
(150,-11,o),
(61,-11,qs),
(1,-11,o),
(-43,22,q)
);
}
);
width = 368;
},
{
layerId = "6E397364-29F0-430D-8798-B3D240BA8B9C";
shapes = (
{
closed = 1;
nodes = (
(-25,124,l),
(4,103,o),
(53,81,o),
(84,81,q),
(132,81,o),
(191,143,o),
(204,215,q),
(290,704,l),
(394,704,l),
(308,217,l),
(289,107,o),
(163,-11,o),
(68,-11,q),
(6,-11,o),
(-43,25,q)
);
}
);
width = 386;
},
{
layerId = "97194E86-8399-4162-8293-D906943AC4AA";
shapes = (
{
closed = 1;
nodes = (
(-6,235,l),
(27,198,o),
(82,159,o),
(120,159,q),
(160,159,o),
(219,210,o),
(227,257,q),
(305,700,l),
(498,700,l),
(420,256,l),
(398,132,o),
(240,-12,o),
(112,-12,q),
(30,-12,o),
(-40,41,q)
);
}
);
width = 475;
}
);
note = J;
unicode = 74;
},
{
glyphname = K;
layers = (
{
layerId = m01;
shapes = (
{
closed = 1;
nodes = (
(508,705,l),
(616,705,l),
(255,375,l),
(520,0,l),
(412,0,l),
(175,330,l),
(117,0,l),
(33,0,l),
(157,705,l),
(241,705,l),
(189,409,l)
);
}
);
width = 567;
},
{
layerId = "6E397364-29F0-430D-8798-B3D240BA8B9C";
shapes = (
{
closed = 1;
nodes = (
(518,704,l),
(647,704,l),
(293,379,l),
(548,0,l),
(419,0,l),
(191,336,l),
(132,0,l),
(29,0,l),
(153,704,l),
(256,704,l),
(204,410,l)
);
}
);
width = 593;
},
{
layerId = "97194E86-8399-4162-8293-D906943AC4AA";
shapes = (
{
closed = 1;
nodes = (
(569,700,l),
(799,700,l),
(481,399,l),
(685,0,l),
(452,0,l),
(270,368,l),
(205,0,l),
(11,0,l),
(134,700,l),
(328,700,l),
(278,416,l)
);
}
);
width = 724;
}
);
note = K;
unicode = 75;
},
{
glyphname = L;
layers = (
{
layerId = m01;
shapes = (
{
closed = 1;
nodes = (
(476,76,l),
(463,0,l),
(33,0,l),
(157,705,l),
(242,705,l),
(131,76,l)
);
}
);
width = 526;
},
{
layerId = "6E397364-29F0-430D-8798-B3D240BA8B9C";
shapes = (
{
closed = 1;
nodes = (
(493,92,l),
(477,0,l),
(29,0,l),
(153,704,l),
(257,704,l),
(149,92,l)
);
}
);
width = 540;
},
{
layerId = "97194E86-8399-4162-8293-D906943AC4AA";
shapes = (
{
closed = 1;
nodes = (
(574,170,l),
(544,0,l),
(11,0,l),
(134,700,l),
(328,700,l),
(235,170,l)
);
}
);
width = 607;
}
);
note = L;
unicode = 76;
},
{
glyphname = M;
layers = (
{
layerId = m01;
shapes = (
{
closed = 1;
nodes = (
(65,0,l),
(-19,0,l),
(104,700,l),
(186,700,l),
(387,279,l),
(736,700,l),
(818,700,l),
(695,0,l),
(611,0,l),
(711,565,l),
(365,153,l),
(165,565,l)
);
}
);
width = 771;
},
{
layerId = "6E397364-29F0-430D-8798-B3D240BA8B9C";
shapes = (
{
closed = 1;
nodes = (
(81,0,l),
(-21,0,l),
(102,700,l),
(205,700,l),
(393,304,l),
(719,700,l),
(821,700,l),
(698,0,l),
(596,0,l),
(691,538,l),
(365,149,l),
(176,538,l)
);
}
);
width = 773;
},
{
layerId = "97194E86-8399-4162-8293-D906943AC4AA";
shapes = (
{
closed = 1;
nodes = (
(161,0,l),
(-29,0,l),
(94,700,l),
(299,700,l),
(419,429,l),
(633,700,l),
(838,700,l),
(715,0,l),
(522,0,l),
(593,402,l),
(364,128,l),
(232,400,l)
);
}
);
width = 780;
}
);
note = M;
unicode = 77;
},
{
glyphname = N;
layers = (
{
layerId = m01;
shapes = (
{
closed = 1;
nodes = (
(661,705,l),
(743,705,l),
(619,0,l),
(535,0,l),
(217,577,l),
(115,0,l),
(33,0,l),
(156,700,l),
(241,700,l),
(559,126,l)
);
}
);
width = 746;
},
{
layerId = "6E397364-29F0-430D-8798-B3D240BA8B9C";
shapes = (
{
closed = 1;
nodes = (
(652,704,l),
(752,704,l),
(628,0,l),
(530,0,l),
(226,545,l),
(130,0,l),
(29,0,l),
(152,700,l),
(253,700,l),
(556,160,l)
);
}
);
width = 751;
},
{
layerId = "97194E86-8399-4162-8293-D906943AC4AA";
shapes = (
{
closed = 1;
nodes = (
(603,700,l),
(795,700,l),
(672,0,l),
(502,0,l),
(271,384,l),
(203,0,l),
(11,0,l),
(134,700,l),
(315,700,l),
(538,330,l)
);
}
);
width = 778;
}
);
note = N;
unicode = 78;
},
{
glyphname = O;
layers = (
{
layerId = m01;
shapes = (
{
closed = 1;
nodes = (
(264,-14,o),
(113,83,o),
(48,251,o),
(66,352,qs),
(84,453,o),
(209,621,o),
(395,719,o),
(499,719,qs),
(602,719,o),
(751,620,o),
(815,453,o),
(797,354,qs),
(780,261,o),
(667,92,o),
(484,-14,o),
(368,-14,qs)
);
},
{
closed = 1;
nodes = (
(403,642,o),
(262,565,o),
(167,434,o),
(153,354,qs),
(139,273,o),
(187,140,o),
(301,63,o),
(382,63,qs),
(461,63,o),
(601,140,o),
(696,271,o),
(710,350,qs),
(723,423,o),
(683,558,o),
(572,642,o),
(484,642,qs)
);
}
);
width = 833;
},
{
layerId = "6E397364-29F0-430D-8798-B3D240BA8B9C";
shapes = (
{
closed = 1;
nodes = (
(263,-14,o),
(112,83,o),
(46,250,o),
(64.112,351,q),
(82.224,452,o),
(208,620,o),
(394,718,o),
(498,718,q),
(600.591,718,o),
(749,620,o),
(814,453,o),
(799,354,q),
(785,256,o),
(672,87,o),
(480,-19,o),
(367,-14,q)
);
},
{
closed = 1;
nodes = (
(404.108,625,o),
(272,553,o),
(182.407,429.178,o),
(169.203,353.562,q),
(156,277,o),
(201.037,151.6,o),
(308,79,o),
(384.078,79,q),
(458.278,79,o),
(589.772,151.928,o),
(679,276,o),
(693,350,q),
(707,427,o),
(672,552,o),
(566,625,o),
(480,625,q)
);
}
);
width = 832;
},
{
layerId = "97194E86-8399-4162-8293-D906943AC4AA";
shapes = (
{
closed = 1;
nodes = (
(257,-14,o),
(102,84,o),
(33,251,o),
(51,350,q),
(68,449,o),
(196,616,o),
(386,714,o),
(492,714,q),
(599,714,o),
(756,616,o),
(824,445,o),
(803,342,q),
(783,245,o),
(667,83,o),
(482,-14,o),
(363,-14,q)
);
},
{
closed = 1;
nodes = (
(408,539,o),
(319,488,o),
(259,403,o),
(250,352,q),
(241,302,o),
(271,214,o),
(343,161,o),
(394,161,q),
(446,161,o),
(537,213,o),
(597,300,o),
(606,350,q),
(615,400,o),
(590,486,o),
(519,539,o),
(460,539,q)
);
}
);
width = 828;
}
);
note = O;
unicode = 79;
},
{
glyphname = P;
layers = (
{
layerId = m01;
shapes = (
{
closed = 1;
nodes = (
(384,705,ls),
(459,705,o),
(564,655,o),
(610,561,o),
(599,497,qs),
(587,429,o),
(501,331,o),
(375,279,o),
(302,279,qs),
(168,279,l),
(119,-2,l),
(33,-2,l),
(157,705,l)
);
},
{
closed = 1;
nodes = (
(314,355,ls),
(396,355,o),
(500,427,o),
(512,493,qs),
(524,561,o),
(447,629,o),
(364,629,qs),
(230,629,l),
(182,355,l)
);
}
);
width = 588;
},
{
layerId = "6E397364-29F0-430D-8798-B3D240BA8B9C";
shapes = (
{
closed = 1;
nodes = (
(393,704,l),
(469.659,704,o),
(576.982,652.958,o),
(624,557,o),
(612,490,q),
(599.878,419.952,o),
(513,319,o),
(383.201,266,o),
(308,266,q),
(179.858,266,l),
(133,-2,l),
(29,-2,l),
(153,704,l)
);
},
{
closed = 1;
nodes = (
(322,355,l),
(399.151,355,o),
(497,423,o),
(508,485.06,q),
(519,549,o),
(447,614,o),
(362.855,614,q),
(227.007,614,l),
(196,355,l)
);
}
);
width = 602;
},
{
layerId = "97194E86-8399-4162-8293-D906943AC4AA";
shapes = (
{
closed = 1;
nodes = (
(434,700,l),
(522,700,o),
(644,642,o),
(696,531,o),
(682,454,q),
(668,373,o),
(571,259,o),
(424,200,o),
(336,200,q),
(240,200,l),
(205,0,l),
(11,0,l),
(134,700,l)
);
},
{
closed = 1;
nodes = (
(359,352,l),
(410,352,o),
(479,403,o),
(486,445,q),
(494,490,o),
(445,537,o),
(391,537,q),
(300,537,l),
(267,352,l)
);
}
);
width = 672;
}
);
note = P;
unicode = 80;
},
{
glyphname = Q;
layers = (
{
layerId = m01;
shapes = (
{
closed = 1;
nodes = (
(578,44,l),
(520,15,o),
(423,-14,o),
(367,-14,qs),
(263,-14,o),
(112,83,o),
(47,250,o),
(65,350,qs),
(83,451,o),
(208,620,o),
(394,719,o),
(498,719,qs),
(601,719,o),
(750,620,o),
(814,453,o),
(796,354,qs),
(784,281,o),
(711,154,o),
(656,104,q),
(737,30,l),
(718,-79,l)
);
},
{
closed = 1;
nodes = (
(402,642,o),
(261,565,o),
(166,434,o),
(152,354,qs),
(138,273,o),
(186,140,o),
(300,63,o),
(381,63,qs),
(460,63,o),
(601,140,o),
(696,271,o),
(709,350,qs),
(723,430,o),
(685,563,o),
(575,642,o),
(483,642,qs)
);
}
);
width = 828;
},
{
layerId = "6E397364-29F0-430D-8798-B3D240BA8B9C";
shapes = (
{
closed = 1;
nodes = (
(581,46,l),
(528,17,o),
(423,-14,o),
(366,-14,q),
(262,-14,o),
(111,84,o),
(45,250,o),
(63,350,q),
(81,451,o),
(206,620,o),
(393,718,o),
(497,718,q),
(601,718,o),
(751,620,o),
(816,452,o),
(798,353,q),
(786,283,o),
(719,163,o),
(667,114,q),
(749,34,l),
(727,-91,l)
);
},
{
closed = 1;
nodes = (
(403,625,o),
(271,553,o),
(181,428,o),
(168,353,q),
(155,277,o),
(200,152,o),
(307,79,o),
(383,79,q),
(457,79,o),
(589,152,o),
(678,276,o),
(692,350,q),
(707,427,o),
(672,551,o),
(566,625,o),
(479,625,q)
);
}
);
width = 837;
},
{
layerId = "97194E86-8399-4162-8293-D906943AC4AA";
shapes = (
{
closed = 1;
nodes = (
(597,55,l),
(558,24,o),
(427,-14,o),
(363,-14,q),
(257,-14,o),
(102,83,o),
(33,250,o),
(51,350,q),
(68,449,o),
(196,616,o),
(386,714,o),
(492,714,q),
(598,714,o),
(754,617,o),
(823,450,o),
(805,350,q),
(794,292,o),
(754,205,o),
(718,163,q),
(808,52,l),
(773,-148,l)
);
},
{
closed = 1;
nodes = (
(408,539,o),
(319,488,o),
(259,401,o),
(250,350,q),
(241,300,o),
(271,213,o),
(343,161,o),
(394,161,q),
(446,161,o),
(537,212,o),
(597,299,o),
(606,350,q),
(614,398,o),
(590,484,o),
(519,539,o),
(460,539,q)
);
}
);
width = 884;
}
);
note = Q;
unicode = 81;
},
{
glyphname = R;
layers = (
{
layerId = m01;
shapes = (
{
closed = 1;
nodes = (
(157,705,l),
(376,705,ls),
(447,705,o),
(549,654,o),
(595,562,o),
(585,503,qs),
(571,424,o),
(448,319,o),
(356,304,q),
(531,0,l),
(428,0,l),
(262,299,l),
(172,299,l),
(119,0,l),
(33,0,l)
);
},
{
closed = 1;
nodes = (
(290,368,ls),
(375,368,o),
(486,432,o),
(498,500,qs),
(510,566,o),
(436,629,o),
(353,629,qs),
(230,629,l),
(184,368,l)
);
}
);
width = 586;
},
{
layerId = "6E397364-29F0-430D-8798-B3D240BA8B9C";
shapes = (
{
closed = 1;
nodes = (
(153,704,l),
(391,704,l),
(466,704,o),
(571,652,o),
(617,557,o),
(606,496,q),
(592,416,o),
(474,312,o),
(385,294,q),
(552,0,l),
(429,0,l),
(273,285,l),
(184,285,l),
(134,0,l),
(29,0,l)
);
},
{
closed = 1;
nodes = (
(308,367,l),
(387,367,o),
(491,428,o),
(502,492,q),
(513,554,o),
(442,613,o),
(365,613,q),
(242,613,l),
(199,367,l)
);
}
);
width = 604;
},
{
layerId = "97194E86-8399-4162-8293-D906943AC4AA";
shapes = (
{
closed = 1;
nodes = (
(134,700,l),
(465,700,l),
(561,700,o),
(680,641,o),
(726,534,o),
(713,461,q),
(699,382,o),
(604,273,o),
(531,244,q),
(655,0,l),
(431,0,l),
(328,212,l),
(243,212,l),
(206,0,l),
(11,0,l)
);
},
{
closed = 1;
nodes = (
(397,364,l),
(446,364,o),
(509,410,o),
(516,449,q),
(523,490,o),
(476,532,o),
(426,532,q),
(300,532,l),
(270,364,l)
);
}
);
width = 695;
}
);
note = R;
unicode = 82;
},
{
glyphname = S;
layers = (
{
layerId = m01;
shapes = (
{
closed = 1;
nodes = (
(396,206,o),
(363,262,o),
(306,303,o),
(256,333,qs),
(198,368,o),
(129,421,o),
(88,500,o),
(97,554,qs),
(106,604,o),
(178,678,o),
(280,718,o),
(333,718,qs),
(390,718,o),
(474,691,o),
(504,661,q),
(485,558,l),
(458,604,o),
(372,643,o),
(330,643,qs),
(271,643,o),
(190,596,o),
(182,552,qs),
(176,521,o),
(208,472,o),
(261,435,o),
(309,408,qs),
(370,374,o),
(443,320,o),
(486,236,o),
(476,178,qs),
(459,80,o),
(308,-12,o),
(201,-12,qs),
(138,-12,o),
(40,28,o),
(-3,71,q),
(13,164,l),
(60,113,o),
(171,63,o),
(220,63,qs),
(282,63,o),
(379,111,o),
(389,170,qs)
);
}
);
width = 537;
},
{
layerId = "6E397364-29F0-430D-8798-B3D240BA8B9C";
shapes = (
{
closed = 1;
nodes = (
(401,208,o),
(368,258,o),
(311,296,o),
(263,321,q),
(202,354,o),
(129,405,o),
(86,486,o),
(96,543,q),
(105,597,o),
(181,676,o),
(292,717,o),
(352,717,q),
(410,717,o),
(499,686,o),
(531,654,q),
(511,539,l),
(479,587,o),
(390,629,o),
(340,629,q),
(283,629,o),
(207,585,o),
(200,544,q),
(195,515,o),
(226,471,o),
(278,437,o),
(325,413,q),
(388,381,o),
(466,328,o),
(512,241,o),
(500,179,q),
(480,83,o),
(320,-12,o),
(217,-12,q),
(147,-12,o),
(36,30,o),
(-4,77,q),
(14,183,l),
(61,128,o),
(177,77,o),
(238,77,q),
(296,77,o),
(386,120,o),
(395,175,q)
);
}
);
width = 557;
},
{
layerId = "97194E86-8399-4162-8293-D906943AC4AA";
shapes = (
{
closed = 1;
nodes = (
(424,216,o),
(396,242,o),
(349,258,o),
(305,269,q),
(231,288,o),
(137,328,o),
(78,415,o),
(90,488,q),
(103,561,o),
(196,662,o),
(328,712,o),
(401,712,q),
(490,712,o),
(622,666,o),
(672,619,q),
(641,442,l),
(593,490,o),
(453,556,o),
(388,556,q),
(343,556,o),
(292,526,o),
(289,506,q),
(286,487,o),
(313,463,o),
(358,447,o),
(401,436,q),
(479,417,o),
(579,371,o),
(634,268,o),
(612,181,q),
(584,90,o),
(415,-12,o),
(297,-12,q),
(205,-12,o),
(42,46,o),
(-11,104,q),
(20,278,l),
(76,222,o),
(241,149,o),
(322,149,q),
(357,149,o),
(416,169,o),
(421,197,q)
);
}
);
width = 657;
}
);
note = S;
unicode = 83;
},
{
glyphname = T;
layers = (
{
layerId = m01;
shapes = (
{
closed = 1;
nodes = (
(171,0,l),
(282,629,l),
(72,629,l),
(85,705,l),
(589,705,l),
(576,629,l),
(366,629,l),
(255,0,l)
);
}
);
width = 520;
},
{
layerId = "6E397364-29F0-430D-8798-B3D240BA8B9C";
shapes = (
{
closed = 1;
nodes = (
(172,0,l),
(280,613,l),
(70,613,l),
(86,704,l),
(608,704,l),
(592,613,l),
(382,613,l),
(274,0,l)
);
}
);
width = 540;
},
{
layerId = "97194E86-8399-4162-8293-D906943AC4AA";
shapes = (
{
closed = 1;
nodes = (
(174,0,l),
(267,530,l),
(57,530,l),
(87,700,l),
(701,700,l),
(671,530,l),
(461,530,l),
(368,0,l)
);
}
);
width = 637;
}
);
note = T;
unicode = 84;
},
{
glyphname = U;
layers = (
{
layerId = m01;
shapes = (
{
closed = 1;
nodes = (
(148,706,l),
(232,706,l),
(159,288,ls),
(145,207,o),
(166,109,o),
(243,63,o),
(315,63,qs),
(410,63,o),
(530,175,o),
(549,285,qs),
(623,706,l),
(707,706,l),
(634,287,ls),
(609,144,o),
(438,-15,o),
(302,-15,qs),
(214,-15,o),
(100,47,o),
(56,180,o),
(74,284,qs)
);
}
);
width = 702;
},
{
layerId = "6E397364-29F0-430D-8798-B3D240BA8B9C";
shapes = (
{
closed = 1;
nodes = (
(145,705,l),
(248,705,l),
(175,292,l),
(162,221,o),
(187,127,o),
(261,80,o),
(323,80,q),
(412,80,o),
(526,185,o),
(544,289,q),
(617,705,l),
(719,705,l),
(646,291,l),
(619,140,o),
(457,-15,o),
(306,-15,q),
(225,-15,o),
(107,48,o),
(54,184,o),
(72,288,q)
);
}
);
width = 711;
},
{
layerId = "97194E86-8399-4162-8293-D906943AC4AA";
shapes = (
{
closed = 1;
nodes = (
(128,700,l),
(325,700,l),
(257,311,l),
(248,259,o),
(261,194,o),
(312,162,o),
(360,162,q),
(422,162,o),
(501,233,o),
(514,306,q),
(583,700,l),
(780,700,l),
(712,312,l),
(682,145,o),
(491,-13,o),
(327,-13,q),
(225,-13,o),
(92,48,o),
(38,190,o),
(59,307,q)
);
}
);
width = 758;
}
);
note = U;
unicode = 85;
},
{
glyphname = V;
layers = (
{
layerId = m01;
shapes = (
{
closed = 1;
nodes = (
(294,88,l),
(634,705,l),
(726,705,l),
(327,0,l),
(226,0,l),
(73,705,l),
(167,705,l)
);
}
);
width = 646;
},
{
layerId = "6E397364-29F0-430D-8798-B3D240BA8B9C";
shapes = (
{
closed = 1;
nodes = (
(305,116,l),
(629,704,l),
(741,704,l),
(341,-1,l),
(227,-1,l),
(72,704,l),
(187,704,l)
);
}
);
width = 661;
},
{
layerId = "97194E86-8399-4162-8293-D906943AC4AA";
shapes = (
{
closed = 1;
nodes = (
(366,257,l),
(603,700,l),
(816,700,l),
(408,-5,l),
(228,-5,l),
(68,700,l),
(285,700,l)
);
}
);
width = 733;
}
);
note = V;
unicode = 86;
},
{
glyphname = W;
layers = (
{
layerId = m01;
shapes = (
{
closed = 1;
nodes = (
(535,706,l),
(616,706,l),
(692,126,l),
(978,705,l),
(1066,705,l),
(708,0,l),
(628,0,l),
(552,582,l),
(276,0,l),
(194,0,l),
(81,705,l),
(172,705,l),
(260,126,l)
);
}
);
width = 993;
},
{
layerId = "6E397364-29F0-430D-8798-B3D240BA8B9C";
shapes = (
{
closed = 1;
nodes = (
(535,705,l),
(631,705,l),
(704,154,l),
(975,704,l),
(1082,704,l),
(724,-1,l),
(629,-1,l),
(553,551,l),
(289,-1,l),
(192,-1,l),
(80,704,l),
(190,704,l),
(272,154,l)
);
}
);
width = 1008;
},
{
layerId = "97194E86-8399-4162-8293-D906943AC4AA";
shapes = (
{
closed = 1;
nodes = (
(536,702,l),
(703,702,l),
(766,295,l),
(959,700,l),
(1160,700,l),
(802,-5,l),
(633,-5,l),
(563,398,l),
(352,-5,l),
(183,-5,l),
(73,700,l),
(278,700,l),
(329,295,l)
);
}
);
width = 1081;
}
);
note = W;
unicode = 87;
},
{
glyphname = X;
layers = (
{
layerId = m01;
shapes = (
{
closed = 1;
nodes = (
(344,426,l),
(584,705,l),
(680,705,l),
(380,363,l),
(569,0,l),
(472,0,l),
(318,296,l),
(62,0,l),
(-37,0,l),
(282,361,l),
(99,705,l),
(198,705,l)
);
}
);
width = 627;
},
{
layerId = "6E397364-29F0-430D-8798-B3D240BA8B9C";
shapes = (
{
closed = 1;
nodes = (
(353,439,l),
(580,704,l),
(696,704,l),
(398,362,l),
(585,0,l),
(467,0,l),
(323,282,l),
(80,0,l),
(-39,0,l),
(277,360,l),
(97,704,l),
(217,704,l)
);
}
);
width = 641;
},
{
layerId = "97194E86-8399-4162-8293-D906943AC4AA";
shapes = (
{
closed = 1;
nodes = (
(399,503,l),
(558,700,l),
(776,700,l),
(486,358,l),
(663,0,l),
(440,0,l),
(343,211,l),
(171,0,l),
(-47,0,l),
(256,356,l),
(86,700,l),
(309,700,l)
);
}
);
width = 710;
}
);
note = X;
unicode = 88;
},
{
glyphname = Y;
layers = (
{
layerId = m01;
shapes = (
{
closed = 1;
nodes = (
(222,0,l),
(271,280,l),
(75,705,l),
(175,705,l),
(330,358,l),
(605,705,l),
(700,705,l),
(356,281,l),
(306,0,l)
);
}
);
width = 621;
},
{
layerId = "6E397364-29F0-430D-8798-B3D240BA8B9C";
shapes = (
{
closed = 1;
nodes = (
(220,0,l),
(269,277,l),
(74,704,l),
(194,704,l),
(340,373,l),
(601,704,l),
(716,704,l),
(372,278,l),
(323,0,l)
);
}
);
width = 636;
},
{
layerId = "97194E86-8399-4162-8293-D906943AC4AA";
shapes = (
{
closed = 1;
nodes = (
(212,0,l),
(258,262,l),
(69,700,l),
(290,700,l),
(389,445,l),
(579,700,l),
(796,700,l),
(454,265,l),
(407,0,l)
);
}
);
width = 713;
}
);
note = Y;
unicode = 89;
},
{
glyphname = Z;
layers = (
{
layerId = m01;
shapes = (
{
closed = 1;
nodes = (
(562,75,l),
(549,0,l),
(-33,0,l),
(-20,72,l),
(578,630,l),
(106,630,l),
(119,705,l),
(694,705,l),
(681,632,l),
(90,75,l)
);
}
);
width = 642;
},
{
layerId = "6E397364-29F0-430D-8798-B3D240BA8B9C";
shapes = (
{
closed = 1;
nodes = (
(568,90,l),
(552,0,l),
(-36,0,l),
(-21,84,l),
(547,614,l),
(97,614,l),
(113,704,l),
(694,704,l),
(679,620,l),
(116,90,l)
);
}
);
width = 639;
},
{
layerId = "97194E86-8399-4162-8293-D906943AC4AA";
shapes = (
{
closed = 1;
nodes = (
(597,164,l),
(568,0,l),
(-51,0,l),
(-26,141,l),
(394,536,l),
(55,536,l),
(84,700,l),
(691,700,l),
(667,559,l),
(246,164,l)
);
}
);
width = 624;
}
);
note = Z;
unicode = 90;
},
{
glyphname = bracketleft;
layers = (
{
layerId = m01;
shapes = (
{
closed = 1;
nodes = (
(229,660,l),
(97,-92,l),
(260,-92,l),
(248,-158,l),
(8,-158,l),
(164,726,l),
(404,726,l),
(392,660,l)
);
}
);
width = 377;
},
{
layerId = "6E397364-29F0-430D-8798-B3D240BA8B9C";
shapes = (
{
closed = 1;
nodes = (
(240,645,l),
(112,-77,l),
(277,-77,l),
(264,-153,l),
(6,-153,l),
(160,722,l),
(418,722,l),
(405,645,l)
);
}
);
width = 391;
},
{
layerId = "97194E86-8399-4162-8293-D906943AC4AA";
shapes = (
{
closed = 1;
nodes = (
(289,571,l),
(188,-1,l),
(364,-1,l),
(341,-130,l),
(-5,-130,l),
(141,700,l),
(487,700,l),
(465,571,l)
);
}
);
width = 459;
}
);
note = bracketleft;
unicode = 91;
},
{
glyphname = backslash;
layers = (
{
layerId = m01;
shapes = (
{
closed = 1;
nodes = (
(165,781,l),
(419,-111,l),
(345,-117,l),
(91,773,l)
);
}
);
width = 488;
},
{
layerId = "6E397364-29F0-430D-8798-B3D240BA8B9C";
shapes = (
{
closed = 1;
nodes = (
(176,784,l),
(435,-110,l),
(348,-119,l),
(91,774,l)
);
}
);
width = 502;
},
{
layerId = "97194E86-8399-4162-8293-D906943AC4AA";
shapes = (
{
closed = 1;
nodes = (
(236,798,l),
(508,-103,l),
(361,-128,l),
(89,776,l)
);
}
);
width = 572;
}
);
note = backslash;
unicode = 92;
},
{
glyphname = bracketright;
layers = (
{
layerId = m01;
shapes = (
{
closed = 1;
nodes = (
(154,-92,l),
(286,659,l),
(123,659,l),
(135,726,l),
(377,726,l),
(221,-159,l),
(-21,-159,l),
(-9,-92,l)
);
}
);
width = 380;
},
{
layerId = "6E397364-29F0-430D-8798-B3D240BA8B9C";
shapes = (
{
closed = 1;
nodes = (
(158,-77,l),
(286,644,l),
(120,644,l),
(133,722,l),
(393,722,l),
(239,-154,l),
(-21,-154,l),
(-8,-77,l)
);
}
);
width = 393;
},
{
layerId = "97194E86-8399-4162-8293-D906943AC4AA";
shapes = (
{
closed = 1;
nodes = (
(179,-1,l),
(280,571,l),
(104,571,l),
(126,700,l),
(472,700,l),
(326,-130,l),
(-20,-130,l),
(3,-1,l)
);
}
);
width = 460;
}
);
note = bracketright;
unicode = 93;
},
{
glyphname = asciicircum;
layers = (
{
layerId = m01;
shapes = (
{
closed = 1;
nodes = (
(359,706,l),
(490,418,l),
(414,418,l),
(312,642,l),
(132,418,l),
(59,418,l),
(287,706,l)
);
}
);
width = 497;
},
{
layerId = "6E397364-29F0-430D-8798-B3D240BA8B9C";
shapes = (
{
closed = 1;
nodes = (
(362,705,l),
(489,431,l),
(403,431,l),
(309,633,l),
(143,431,l),
(60,431,l),
(281,705,l)
);
}
);
width = 491;
},
{
layerId = "97194E86-8399-4162-8293-D906943AC4AA";
shapes = (
{
closed = 1;
nodes = (
(370,699,l),
(478,493,l),
(345,493,l),
(286,590,l),
(193,493,l),
(62,493,l),
(242,699,l)
);
}
);
width = 459;
}
);
note = asciicircum;
unicode = 94;
},
{
glyphname = underscore;
layers = (
{
layerId = m01;
shapes = (
{
closed = 1;
nodes = (
(499,-82,l),
(487,-147,l),
(-74,-147,l),
(-62,-82,l)
);
}
);
width = 561;
},
{
layerId = "6E397364-29F0-430D-8798-B3D240BA8B9C";
shapes = (
{
closed = 1;
nodes = (
(507,-76,l),
(494,-149,l),
(-74,-149,l),
(-61,-76,l)
);
}
);
width = 568;
},
{
layerId = "97194E86-8399-4162-8293-D906943AC4AA";
shapes = (
{
closed = 1;
nodes = (
(549,-44,l),
(529,-160,l),
(-75,-160,l),
(-55,-44,l)
);
}
);
width = 604;
}
);
note = underscore;
unicode = 95;
},
{
glyphname = grave;
layers = (
{
layerId = m01;
shapes = (
{
closed = 1;
nodes = (
(206,765,l),
(275,616,l),
(212,616,l),
(108,745,l)
);
}
);
width = 237;
},
{
layerId = "6E397364-29F0-430D-8798-B3D240BA8B9C";
shapes = (
{
closed = 1;
nodes = (
(213,771,l),
(283,616,l),
(208,616,l),
(100,745,l)
);
}
);
width = 242;
},
{
layerId = "97194E86-8399-4162-8293-D906943AC4AA";
shapes = (
{
closed = 1;
nodes = (
(254,801,l),
(326,616,l),
(192,616,l),
(67,744,l)
);
}
);
width = 269;
}
);
note = grave;
unicode = 96;
},
{
glyphname = a;
layers = (
{
layerId = m01;
shapes = (
{
closed = 1;
nodes = (
(391,228,l),
(365,245,o),
(302,266,o),
(258,266,qs),
(202,266,o),
(108,214,o),
(98,161,qs),
(89,110,o),
(158,57,o),
(216,57,qs),
(306,57,o),
(373,122,q)
);
},
{
closed = 1;
nodes = (
(433,0,l),
(358,49,l),
(318,18,o),
(236,-11,o),
(186,-11,qs),
(137,-11,o),
(52,32,o),
(8,115,o),
(18,171,qs),
(33,257,o),
(170,333,o),
(258,333,qs),
(303,333,o),
(376,317,o),
(404,299,q),
(407,318,ls),
(416,372,o),
(348,422,o),
(281,422,qs),
(178,422,o),
(86,372,q),
(99,450,l),
(143,468,o),
(245,492,o),
(297,492,qs),
(357,492,o),
(451,450,o),
(498,367,o),
(487,308,qs)
);
}
);
width = 548;
},
{
layerId = "6E397364-29F0-430D-8798-B3D240BA8B9C";
shapes = (
{
closed = 1;
nodes = (
(387,226.691,l),
(361,243,o),
(303.888,261,o),
(264,261,q),
(211.36,261,o),
(123,211,o),
(115,163,q),
(106,114.942,o),
(169,65,o),
(227.353,65,q),
(317.9,65,o),
(369,125,q)
);
},
{
closed = 1;
nodes = (
(446,-2,l),
(354,50,l),
(315,19,o),
(233,-11,o),
(183,-11,q),
(133,-11,o),
(49.977,31.527,o),
(7,113.615,o),
(17,169,q),
(32,255,o),
(168,332,o),
(257,332,q),
(301.075,332,o),
(372.575,316.941,o),
(400,300,q),
(403,318.382,l),
(412,370.626,o),
(346,419,o),
(279.394,419,q),
(177,419,o),
(88,372,q),
(103,460,l),
(151,478,o),
(251,502,o),
(305,502,q),
(370,502,o),
(467,458,o),
(514,373.735,o),
(500,309,q)
);
}
);
width = 559;
},
{
layerId = "97194E86-8399-4162-8293-D906943AC4AA";
shapes = (
{
closed = 1;
nodes = (
(364,221,l),
(352,227,o),
(315,235,o),
(295,235,q),
(254,235,o),
(201,198,o),
(196,170,q),
(191,143,o),
(227,107,o),
(257,107,q),
(305,107,o),
(350,139,q)
);
},
{
closed = 1;
nodes = (
(508,-12,l),
(334,56,l),
(299,23,o),
(216,-12,o),
(164,-12,q),
(111,-12,o),
(34,28,o),
(0,104,o),
(9,157,q),
(23,239,o),
(154,327,o),
(251,327,q),
(288,327,o),
(355,315,o),
(379,306,q),
(381,315,l),
(389,362,o),
(331,404,o),
(263,404,q),
(180,404,o),
(94,373,q),
(117,507,l),
(175,528,o),
(277,549,o),
(339,549,q),
(432,549,o),
(541,495,o),
(579,390,o),
(565,311,q)
);
}
);
width = 611;
}
);
note = a;
unicode = 97;
},
{
glyphname = b;
layers = (
{
layerId = m01;
shapes = (
{
closed = 1;
nodes = (
(20,1,l),
(149,732,l),
(231,732,l),
(171,394,l),
(213,441,o),
(317,494,o),
(375,494,qs),
(440,494,o),
(537,430,o),
(580,315,o),
(567,241,qs),
(554,168,o),
(470,53,o),
(350,-10,o),
(284,-10,qs),
(239,-10,o),
(151,26,o),
(124,71,q)
);
},
{
closed = 1;
nodes = (
(298,422,o),
(211,375,o),
(150,292,o),
(141,241,qs),
(132,191,o),
(164,107,o),
(235,59,o),
(281,59,qs),
(330,59,o),
(417,105,o),
(476,188,o),
(485,240,qs),
(498,321,o),
(431,422,o),
(345,422,qs)
);
}
);
width = 606;
},
{
layerId = "6E397364-29F0-430D-8798-B3D240BA8B9C";
shapes = (
{
closed = 1;
nodes = (
(18,-1,l),
(147,732,l),
(247,732,l),
(190,407,l),
(232,453,o),
(332,504,o),
(389,504,q),
(455,504,o),
(551,440,o),
(594,322,o),
(580,246,q),
(567,171,o),
(483,54,o),
(362,-10,o),
(296,-10,q),
(251,-10,o),
(166,26,o),
(137,70,q)
);
},
{
closed = 1;
nodes = (
(306,417,o),
(224,373,o),
(167,295,o),
(158,246,q),
(150,198,o),
(179,119,o),
(245,74,o),
(289,74,q),
(335,74,o),
(416,118,o),
(472,196,o),
(481,245,q),
(495,321,o),
(432,417,o),
(350,417,q)
);
}
);
width = 618;
},
{
layerId = "97194E86-8399-4162-8293-D906943AC4AA";
shapes = (
{
closed = 1;
nodes = (
(3,-12,l),
(134,730,l),
(324,730,l),
(278,469,l),
(318,509,o),
(401,553,o),
(457,553,q),
(522,553,o),
(619,484,o),
(662,356,o),
(647,271,q),
(632,186,o),
(544,57,o),
(423,-12,o),
(358,-12,q),
(315,-12,o),
(234,23,o),
(207,66,q)
);
},
{
closed = 1;
nodes = (
(340,394,o),
(284,362,o),
(246,306,o),
(240,270,q),
(234,235,o),
(252,179,o),
(297,147,o),
(327,147,q),
(358,147,o),
(414,178,o),
(454,235,o),
(460,272,q),
(469,324,o),
(426,394,o),
(370,394,q)
);
}
);
width = 675;
}
);
note = b;
unicode = 98;
},
{
glyphname = c;
layers = (
{
layerId = m01;
shapes = (
{
closed = 1;
nodes = (
(436,359,l),
(413,390,o),
(350,423,o),
(311,423,qs),
(264,423,o),
(180,377,o),
(123,296,o),
(115,247,qs),
(106,197,o),
(135,111,o),
(204,60,o),
(250,60,qs),
(328,60,o),
(400,125,q),
(384,35,l),
(348,15,o),
(270,-9,o),
(228,-9,qs),
(160,-9,o),
(61,57,o),
(18,170,o),
(30,240,qs),
(42,309,o),
(126,425,o),
(251,492,o),
(324,492,qs),
(361,492,o),
(430,472,o),
(453,452,q)
);
}
);
width = 470;
},
{
layerId = "6E397364-29F0-430D-8798-B3D240BA8B9C";
shapes = (
{
closed = 1;
nodes = (
(438,358,l),
(416,388,o),
(357,418,o),
(319,418,q),
(274,418,o),
(194,375,o),
(139,298,o),
(131,250,q),
(123,203,o),
(151,123,o),
(216,75,o),
(261,75,q),
(336,75,o),
(404,135,q),
(385,30,l),
(350,11,o),
(275,-10,o),
(235,-10,q),
(165,-10,o),
(63,57,o),
(18,174,o),
(30,245,q),
(42,315,o),
(128,433,o),
(257,502,o),
(332,502,q),
(369,502,o),
(435,484,o),
(457,466,q)
);
}
);
width = 471;
},
{
layerId = "97194E86-8399-4162-8293-D906943AC4AA";
shapes = (
{
closed = 1;
nodes = (
(447,355,l),
(427,373,o),
(384,392,o),
(356,392,q),
(321,392,o),
(261,360,o),
(221,304,o),
(215,270,q),
(209,236,o),
(231,180,o),
(282,147,o),
(316,147,q),
(372,147,o),
(421,183,q),
(390,6,l),
(364,-3,o),
(298,-13,o),
(268,-13,q),
(188,-13,o),
(69,63,o),
(16,193,o),
(30,270,q),
(43,346,o),
(140,475,o),
(286,552,o),
(369,552,q),
(400,552,o),
(459,545,o),
(479,537,q)
);
}
);
width = 473;
}
);
note = c;
unicode = 99;
},
{
glyphname = d;
layers = (
{
layerId = m01;
shapes = (
{
closed = 1;
nodes = (
(413,77,l),
(369,34,o),
(281,-10,o),
(225,-10,qs),
(159,-10,o),
(61,52,o),
(17,166,o),
(30,241,qs),
(43,315,o),
(127,431,o),
(247,494,o),
(311,494,qs),
(371,494,o),
(456,444,o),
(479,398,q),
(538,732,l),
(620,732,l),
(491,1,l)
);
},
{
closed = 1;
nodes = (
(295,60,o),
(384,107,o),
(446,191,o),
(455,242,qs),
(464,293,o),
(430,376,o),
(358,424,o),
(312,424,qs),
(266,424,o),
(183,378,o),
(124,295,o),
(114,242,qs),
(99,163,o),
(164,60,o),
(248,60,qs)
);
}
);
width = 606;
},
{
layerId = "6E397364-29F0-430D-8798-B3D240BA8B9C";
shapes = (
{
closed = 1;
nodes = (
(410,76,l),
(367,34,o),
(280,-10,o),
(224,-10,q),
(158,-10,o),
(60,53,o),
(17,170,o),
(30,246,q),
(44,322,o),
(129,440,o),
(249,504,o),
(313,504,q),
(372,504,o),
(453,455,o),
(477,411,q),
(534,732,l),
(634,732,l),
(505,-1,l)
);
},
{
closed = 1;
nodes = (
(301,75,o),
(385,120,o),
(443,198,o),
(452,247,q),
(460,295,o),
(429,374,o),
(361,419,o),
(318,419,q),
(276,419,o),
(197,376,o),
(141,297,o),
(131,247,q),
(116,172,o),
(177,75,o),
(257,75,q)
);
}
);
width = 618;
},
{
layerId = "97194E86-8399-4162-8293-D906943AC4AA";
shapes = (
{
closed = 1;
nodes = (
(398,72,l),
(359,33,o),
(274,-12,o),
(219,-12,q),
(154,-12,o),
(57,57,o),
(14,185,o),
(29,270,q),
(44,355,o),
(131,484,o),
(252,553,o),
(317,553,q),
(373,553,o),
(444,511,o),
(469,475,q),
(514,730,l),
(704,730,l),
(573,-12,l)
);
},
{
closed = 1;
nodes = (
(334,147,o),
(390,178,o),
(430,235,o),
(436,272,q),
(442,307,o),
(422,363,o),
(377,394,o),
(347,394,q),
(318,394,o),
(263,363,o),
(223,306,o),
(216,270,q),
(205,219,o),
(249,147,o),
(304,147,q)
);
}
);
width = 675;
}
);
note = d;
unicode = 100;
},
{
glyphname = e;
layers = (
{
layerId = m01;
shapes = (
{
closed = 1;
nodes = (
(416,44,l),
(380,19,o),
(287,-11,o),
(236,-11,qs),
(165,-11,o),
(62,53,o),
(17,167,o),
(30,239,qs),
(42,310,o),
(121,427,o),
(238,495,o),
(306,495,qs),
(373,495,o),
(461,434,o),
(502,330,o),
(499,266,q),
(108,175,l),
(117,122,o),
(189,59,o),
(253,59,qs),
(297,59,o),
(387,94,o),
(431,132,q)
);
},
{
closed = 1;
nodes = (
(114,240,l),
(425,316,l),
(420,364,o),
(352,425,o),
(297,425,qs),
(249,425,o),
(170,375,o),
(120,294,o),
(112,249,q)
);
}
);
width = 533;
},
{
layerId = "6E397364-29F0-430D-8798-B3D240BA8B9C";
shapes = (
{
closed = 1;
nodes = (
(428,44,l),
(390,18,o),
(292,-12,o),
(241,-12,q),
(168,-12,o),
(63,54,o),
(17,171,o),
(30,244,q),
(43,317,o),
(125,436,o),
(246,504,o),
(316,504,q),
(385,504,o),
(477,439,o),
(517,329,o),
(512,262,q),
(124,171,l),
(134,124,o),
(201,69,o),
(259,69,q),
(303,69,o),
(401,105,o),
(445,142,q)
);
},
{
closed = 1;
nodes = (
(130,245,l),
(421,317,l),
(416,364,o),
(353,422,o),
(301,422,q),
(256,422,o),
(183,374,o),
(136,296,o),
(128,252,q)
);
}
);
width = 546;
},
{
layerId = "97194E86-8399-4162-8293-D906943AC4AA";
shapes = (
{
closed = 1;
nodes = (
(487,42,l),
(434,11,o),
(313,-17,o),
(262,-17,q),
(180,-17,o),
(64,57,o),
(16,187,o),
(30,269,q),
(44,348,o),
(140,475,o),
(281,548,o),
(362,548,q),
(447,548,o),
(553,463,o),
(590,323,o),
(575,240,q),
(204,148,l),
(219,134,o),
(261,121,o),
(289,121,q),
(340,121,o),
(468,155,o),
(513,190,q)
);
},
{
closed = 1;
nodes = (
(211,272,l),
(403,319,l),
(402,361,o),
(361,407,o),
(326,407,q),
(294,407,o),
(246,368,o),
(217,308,o),
(211,275,q)
);
}
);
width = 609;
}
);
note = e;
unicode = 101;
},
{
glyphname = f;
layers = (
{
layerId = m01;
shapes = (
{
closed = 1;
nodes = (
(395,658,l),
(372,668,o),
(346,668,qs),
(300,668,o),
(250,611,o),
(239,553,qs),
(227,482,l),
(348,482,l),
(336,413,l),
(215,413,l),
(142,0,l),
(63,0,l),
(136,413,l),
(38,413,l),
(148,484,l),
(161,557,ls),
(178,650,o),
(274,736,o),
(348,736,qs),
(377,736,o),
(407,726,q)
);
}
);
width = 322;
},
{
layerId = "6E397364-29F0-430D-8798-B3D240BA8B9C";
shapes = (
{
closed = 1;
nodes = (
(406,646,l),
(378,657,o),
(352,657,q),
(309,657,o),
(258,604,o),
(249,552,q),
(239,491,l),
(365,491,l),
(350,409,l),
(229,409,l),
(157,0,l),
(60,0,l),
(132,409,l),
(36,409,l),
(147,493,l),
(158,556,l),
(175,649,o),
(274,736,o),
(351,736,q),
(392,736,o),
(420,725,q)
);
}
);
width = 335;
},
{
layerId = "97194E86-8399-4162-8293-D906943AC4AA";
shapes = (
{
closed = 1;
nodes = (
(457,588,l),
(422,599,o),
(382,599,q),
(352,599,o),
(299,572,o),
(295,548,q),
(292,535,l),
(446,535,l),
(421,389,l),
(300,389,l),
(231,0,l),
(42,0,l),
(111,389,l),
(28,389,l),
(136,535,l),
(139,550,l),
(156,646,o),
(273,737,o),
(367,737,q),
(432,737,o),
(480,722,q)
);
}
);
width = 399;
}
);
note = f;
unicode = 102;
},
{
glyphname = g;
layers = (
{
layerId = m01;
shapes = (
{
closed = 1;
nodes = (
(305,89,o),
(390,132,o),
(450,208,o),
(458,255,qs),
(466,304,o),
(434,381,o),
(364,424,o),
(316,424,qs),
(244,424,o),
(135,332,o),
(120,258,qs),
(106,181,o),
(175,89,o),
(258,89,qs)
);
},
{
closed = 1;
nodes = (
(433,115,l),
(389,68,o),
(288,19,o),
(229,19,qs),
(163,19,o),
(67,79,o),
(24,186,o),
(36,253,qs),
(48,323,o),
(131,433,o),
(249,494,o),
(313,494,qs),
(370,494,o),
(449,451,o),
(475,412,q),
(579,482,l),
(504,56,ls),
(490,-24,o),
(403,-137,o),
(272,-194,o),
(192,-194,qs),
(136,-194,o),
(40,-168,o),
(6,-147,q),
(22,-57,l),
(58,-91,o),
(148,-124,o),
(204,-124,qs),
(312,-124,o),
(410,-14,o),
(423,55,qs)
);
}
);
width = 611;
},
{
layerId = "6E397364-29F0-430D-8798-B3D240BA8B9C";
shapes = (
{
closed = 1;
nodes = (
(313,107,o),
(394,147,o),
(449,218,o),
(457,263,q),
(465,309,o),
(435,381,o),
(368,421,o),
(323,421,q),
(255,421,o),
(153,334,o),
(140,265,q),
(127,195,o),
(191,107,o),
(269,107,q)
);
},
{
closed = 1;
nodes = (
(432,118,l),
(386,72,o),
(289,24,o),
(231,24,q),
(165,24,o),
(68,85,o),
(25,193,o),
(37,261,q),
(50,332,o),
(133,443,o),
(252,504,o),
(316,504,q),
(373,504,o),
(449,462,o),
(476,423,q),
(597,492,l),
(522,69,l),
(507,-14,o),
(416,-130,o),
(279,-189,o),
(196,-189,q),
(138,-189,o),
(42,-162,o),
(3,-139,q),
(21,-39,l),
(59,-72,o),
(153,-108,o),
(210,-108,q),
(322,-108,o),
(411,-5,o),
(422,64,q)
);
}
);
width = 623;
},
{
layerId = "97194E86-8399-4162-8293-D906943AC4AA";
shapes = (
{
closed = 1;
nodes = (
(352,196,o),
(406,223,o),
(443,272,o),
(448,302,q),
(453,331,o),
(433,378,o),
(388,405,o),
(356,405,q),
(307,405,o),
(235,345,o),
(228,299,q),
(220,256,o),
(268,196,o),
(320,196,q)
);
},
{
closed = 1;
nodes = (
(418,130,l),
(378,91,o),
(291,48,o),
(235,48,q),
(169,48,o),
(71,110,o),
(28,225,o),
(41,301,q),
(55,377,o),
(139,491,o),
(259,553,o),
(325,553,q),
(378,553,o),
(448,513,o),
(476,477,q),
(677,541,l),
(605,131,l),
(588,35,o),
(478,-97,o),
(312,-162,o),
(212,-162,q),
(144,-162,o),
(43,-132,o),
(-15,-100,q),
(12,50,l),
(55,20,o),
(175,-25,o),
(235,-25,q),
(329,-25,o),
(405,57,o),
(414,109,q)
);
}
);
width = 680;
}
);
note = g;
unicode = 103;
},
{
glyphname = h;
layers = (
{
layerId = m01;
shapes = (
{
closed = 1;
nodes = (
(434,0,l),
(352,0,l),
(401,280,ls),
(413,346,o),
(371,412,o),
(314,412,qs),
(256,412,o),
(162,343,o),
(151,280,qs),
(102,0,l),
(20,0,l),
(149,732,l),
(223,732,l),
(167,416,l),
(201,450,o),
(297,493,o),
(349,493,qs),
(428,493,o),
(504,400,o),
(487,303,qs)
);
}
);
width = 542;
},
{
layerId = "6E397364-29F0-430D-8798-B3D240BA8B9C";
shapes = (
{
closed = 1;
nodes = (
(452,0,l),
(352,0,l),
(402,282,l),
(413,345,o),
(371,407,o),
(319,407,q),
(265,407,o),
(178,342,o),
(167,282,q),
(117,0,l),
(17,0,l),
(146,732,l),
(240,732,l),
(186,425,l),
(221,460,o),
(314,503,o),
(367,503,q),
(445,503,o),
(524,408,o),
(507,312,q)
);
}
);
width = 558;
},
{
layerId = "97194E86-8399-4162-8293-D906943AC4AA";
shapes = (
{
closed = 1;
nodes = (
(540,0,l),
(350,0,l),
(402,293,l),
(409,337,o),
(375,384,o),
(342,384,q),
(308,384,o),
(253,335,o),
(246,293,q),
(194,0,l),
(4,0,l),
(133,730,l),
(323,730,l),
(276,467,l),
(313,506,o),
(400,553,o),
(453,553,q),
(538,553,o),
(619,452,o),
(602,354,q)
);
}
);
width = 635;
}
);
note = h;
unicode = 104;
},
{
glyphname = i;
layers = (
{
layerId = m01;
shapes = (
{
closed = 1;
nodes = (
(27,0,l),
(112,482,l),
(193,482,l),
(108,0,l)
);
},
{
closed = 1;
nodes = (
(216,698,o),
(244,664,o),
(239,637,qs),
(235,613,o),
(194,578,o),
(168,578,qs),
(144,578,o),
(115,613,o),
(118,637,qs),
(122,662,o),
(160,698,o),
(189,698,qs)
);
}
);
width = 229;
},
{
layerId = "6E397364-29F0-430D-8798-B3D240BA8B9C";
shapes = (
{
closed = 1;
nodes = (
(22,0,l),
(109,492,l),
(208,492,l),
(121,0,l)
);
},
{
closed = 1;
nodes = (
(226,712,o),
(258,675,o),
(253,645,q),
(248,617,o),
(202,580,o),
(172,580,q),
(145,580,o),
(112,618,o),
(117,645,q),
(123,680,o),
(172,712,o),
(196,712,q)
);
}
);
width = 239;
},
{
layerId = "97194E86-8399-4162-8293-D906943AC4AA";
shapes = (
{
closed = 1;
nodes = (
(3,0,l),
(98,541,l),
(288,541,l),
(193,0,l)
);
},
{
closed = 1;
nodes = (
(282,780,o),
(334,730,o),
(326,684,q),
(317,638,o),
(247,587,o),
(200,587,q),
(153,587,o),
(102,638,o),
(111,684,q),
(121,738,o),
(199,780,o),
(235,780,q)
);
}
);
width = 291;
}
);
note = i;
unicode = 105;
},
{
glyphname = j;
layers = (
{
layerId = m01;
shapes = (
{
closed = 1;
nodes = (
(-15,-119,l),
(0,-125,o),
(17,-125,qs),
(46,-125,o),
(73,-91,o),
(78,-62,qs),
(174,482,l),
(255,482,l),
(163,-37,ls),
(150,-113,o),
(91,-194,o),
(22,-194,qs),
(-3,-194,o),
(-27,-187,q)
);
},
{
closed = 1;
nodes = (
(274,698,o),
(302,664,o),
(297,637,qs),
(293,613,o),
(252,578,o),
(226,578,qs),
(202,578,o),
(173,613,o),
(176,637,qs),
(180,662,o),
(218,698,o),
(247,698,qs)
);
}
);
width = 287;
},
{
layerId = "6E397364-29F0-430D-8798-B3D240BA8B9C";
shapes = (
{
closed = 1;
nodes = (
(-14,-103,l),
(1,-109,o),
(18,-109,q),
(46,-109,o),
(73,-76,o),
(78,-46,q),
(173,492,l),
(272,492,l),
(180,-27,l),
(167,-106,o),
(98,-189,o),
(25,-189,q),
(-2,-189,o),
(-28,-182,q)
);
},
{
closed = 1;
nodes = (
(287,712,o),
(319,675,o),
(314,645,q),
(309,617,o),
(263,580,o),
(233,580,q),
(206,580,o),
(173,618,o),
(178,645,q),
(184,680,o),
(233,712,o),
(257,712,q)
);
}
);
width = 299;
},
{
layerId = "97194E86-8399-4162-8293-D906943AC4AA";
shapes = (
{
closed = 1;
nodes = (
(-13,-23,l),
(9,-31,o),
(24,-31,q),
(43,-31,o),
(72,-1,o),
(78,32,q),
(167,541,l),
(357,541,l),
(266,24,l),
(249,-75,o),
(136,-163,o),
(40,-163,q),
(3,-163,o),
(-37,-156,q)
);
},
{
closed = 1;
nodes = (
(351,780,o),
(403,730,o),
(395,684,q),
(386,638,o),
(316,587,o),
(269,587,q),
(222,587,o),
(171,638,o),
(180,684,q),
(190,738,o),
(268,780,o),
(304,780,q)
);
}
);
width = 359;
}
);
note = j;
unicode = 106;
},
{
glyphname = k;
layers = (
{
layerId = m01;
shapes = (
{
closed = 1;
nodes = (
(371,482,l),
(476,482,l),
(217,254,l),
(400,0,l),
(299,0,l),
(140,216,l),
(102,0,l),
(20,0,l),
(149,732,l),
(231,732,l),
(152,281,l)
);
}
);
width = 447;
},
{
layerId = "6E397364-29F0-430D-8798-B3D240BA8B9C";
shapes = (
{
closed = 1;
nodes = (
(382,492,l),
(506,492,l),
(252,266,l),
(427,0,l),
(308,0,l),
(157,227,l),
(117,0,l),
(17,0,l),
(146,732,l),
(246,732,l),
(169,294,l)
);
}
);
width = 474;
},
{
layerId = "97194E86-8399-4162-8293-D906943AC4AA";
shapes = (
{
closed = 1;
nodes = (
(436,541,l),
(651,541,l),
(425,324,l),
(561,0,l),
(352,0,l),
(244,283,l),
(194,0,l),
(4,0,l),
(133,730,l),
(323,730,l),
(257,360,l)
);
}
);
width = 608;
}
);
note = k;
unicode = 107;
},
{
glyphname = l;
layers = (
{
layerId = m01;
shapes = (
{
closed = 1;
nodes = (
(20,0,l),
(149,732,l),
(230,732,l),
(101,0,l)
);
}
);
width = 217;
},
{
layerId = "6E397364-29F0-430D-8798-B3D240BA8B9C";
shapes = (
{
closed = 1;
nodes = (
(17,0,l),
(146,732,l),
(246,732,l),
(117,0,l)
);
}
);
width = 230;
},
{
layerId = "97194E86-8399-4162-8293-D906943AC4AA";
shapes = (
{
closed = 1;
nodes = (
(4,0,l),
(133,730,l),
(323,730,l),
(194,0,l)
);
}
);
width = 293;
}
);
note = l;
unicode = 108;
},
{
glyphname = m;
layers = (
{
layerId = m01;
shapes = (
{
closed = 1;
nodes = (
(696,279,ls),
(709,352,o),
(666,421,o),
(613,421,qs),
(555,421,o),
(475,339,o),
(464,279,qs),
(415,0,l),
(333,0,l),
(382,279,ls),
(393,344,o),
(356,421,o),
(299,421,qs),
(242,421,o),
(162,339,o),
(151,279,qs),
(102,0,l),
(20,0,l),
(105,481,l),
(174,424,l),
(205,458,o),
(292,493,o),
(337,493,qs),
(389,493,o),
(457,450,o),
(468,404,q),
(498,446,o),
(594,493,o),
(649,493,qs),
(705,493,o),
(771,444,o),
(792,359,o),
(783,304,qs),
(729,0,l),
(647,0,l)
);
}
);
width = 836;
},
{
layerId = "6E397364-29F0-430D-8798-B3D240BA8B9C";
shapes = (
{
closed = 1;
nodes = (
(704,282,l),
(716,350,o),
(674,415,o),
(624,415,q),
(569,415,o),
(494,338,o),
(485,282,q),
(435,0,l),
(335,0,l),
(385,282,l),
(395,343,o),
(359,415,o),
(306,415,q),
(252,415,o),
(177,339,o),
(167,282,q),
(117,0,l),
(17,0,l),
(104,491,l),
(191,431,l),
(224,467,o),
(310,503,o),
(357,503,q),
(408,503,o),
(478,460,o),
(489,414,q),
(523,457,o),
(618,503,o),
(673,503,q),
(729,503,o),
(796,454,o),
(819,368,o),
(809,313,q),
(754,0,l),
(654,0,l)
);
}
);
width = 859;
},
{
layerId = "97194E86-8399-4162-8293-D906943AC4AA";
shapes = (
{
closed = 1;
nodes = (
(739,294,l),
(746,338,o),
(714,384,o),
(681,384,q),
(644,384,o),
(593,331,o),
(587,294,q),
(535,0,l),
(345,0,l),
(397,294,l),
(404,337,o),
(372,384,o),
(339,384,q),
(305,384,o),
(253,337,o),
(246,294,q),
(194,0,l),
(4,0,l),
(99,541,l),
(276,467,l),
(318,509,o),
(406,553,o),
(455,553,q),
(505,553,o),
(580,508,o),
(593,465,q),
(638,509,o),
(733,553,o),
(791,553,q),
(847,553,o),
(920,500,o),
(949,409,o),
(940,355,q),
(877,0,l),
(687,0,l)
);
}
);
width = 971;
}
);
note = m;
unicode = 109;
},
{
glyphname = n;
layers = (
{
layerId = m01;
shapes = (
{
closed = 1;
nodes = (
(434,0,l),
(352,0,l),
(401,280,ls),
(414,354,o),
(357,421,o),
(308,421,qs),
(257,421,o),
(165,354,o),
(151,280,qs),
(102,0,l),
(20,0,l),
(105,482,l),
(178,421,l),
(213,455,o),
(297,493,o),
(347,493,qs),
(403,493,o),
(473,445,o),
(497,359,o),
(487,303,qs)
);
}
);
width = 542;
},
{
layerId = "6E397364-29F0-430D-8798-B3D240BA8B9C";
shapes = (
{
closed = 1;
nodes = (
(452,0,l),
(352,0,l),
(402,282,l),
(414,351,o),
(360,415,o),
(314,415,q),
(266,415,o),
(179,351,o),
(167,282,q),
(117,0,l),
(17,0,l),
(104,492,l),
(194,428,l),
(229,463,o),
(315,503,o),
(365,503,q),
(421,503,o),
(491,452,o),
(516,365,o),
(507,312,q)
);
}
);
width = 558;
},
{
layerId = "97194E86-8399-4162-8293-D906943AC4AA";
shapes = (
{
closed = 1;
nodes = (
(540,0,l),
(350,0,l),
(402,293,l),
(409,336,o),
(375,384,o),
(342,384,q),
(308,384,o),
(253,335,o),
(246,293,q),
(194,0,l),
(4,0,l),
(99,541,l),
(276,465,l),
(314,505,o),
(400,553,o),
(453,553,q),
(510,553,o),
(585,507,o),
(613,418,o),
(602,354,q)
);
}
);
width = 635;
}
);
note = n;
unicode = 110;
},
{
glyphname = o;
layers = (
{
layerId = m01;
shapes = (
{
closed = 1;
nodes = (
(169,-10,o),
(64,56,o),
(18,170,o),
(30,240,qs),
(42,310,o),
(129,427,o),
(259,494,o),
(332,494,qs),
(405,494,o),
(512,427,o),
(559,312,o),
(547,242,qs),
(535,172,o),
(455,58,o),
(325,-10,o),
(242,-10,qs)
);
},
{
closed = 1;
nodes = (
(268,425,o),
(181,376,o),
(122,292,o),
(114,242,qs),
(105,191,o),
(135,107,o),
(206,59,o),
(255,59,qs),
(305,59,o),
(393,108,o),
(453,192,o),
(463,241,qs),
(479,321,o),
(407,425,o),
(319,425,qs)
);
}
);
width = 586;
},
{
layerId = "6E397364-29F0-430D-8798-B3D240BA8B9C";
shapes = (
{
closed = 1;
nodes = (
(168.612,-6,o),
(63.882,60,o),
(18,174,o),
(30.324,245.089,q),
(42.649,316.179,o),
(132,435,o),
(265,504,o),
(339.947,504,q),
(414.893,504,o),
(524.747,435.671,o),
(573,318.389,o),
(561,247,q),
(548,175,o),
(466,57,o),
(333,-11,o),
(241.424,-6,q)
);
},
{
closed = 1;
nodes = (
(275.587,420,o),
(193,374,o),
(139,295,o),
(131,247,q),
(122,199.022,o),
(151,120,o),
(218,74,o),
(264.118,74,q),
(311.176,74,o),
(394,121,o),
(451,200,o),
(460.231,246.341,q),
(475,322,o),
(406,420,o),
(324,420,q)
);
}
);
width = 598;
},
{
layerId = "97194E86-8399-4162-8293-D906943AC4AA";
shapes = (
{
closed = 1;
nodes = (
(193,-13,o),
(70,63,o),
(16,193,o),
(30,270,q),
(43,347,o),
(144,477,o),
(294,553,o),
(379,553,q),
(464,553,o),
(586,478,o),
(640,349,o),
(628,272,q),
(614,187,o),
(521,58,o),
(373,-13,o),
(278,-13,q)
);
},
{
closed = 1;
nodes = (
(315,392,o),
(258,360,o),
(221,305,o),
(215,272,q),
(209,239,o),
(229,182,o),
(275,148,o),
(308,148,q),
(341,148,o),
(398,181,o),
(436,237,o),
(443,270,q),
(453,322,o),
(405,392,o),
(349,392,q)
);
}
);
width = 657;
}
);
note = o;
unicode = 111;
},
{
glyphname = p;
layers = (
{
layerId = m01;
shapes = (
{
closed = 1;
nodes = (
(70,-188,l),
(-12,-188,l),
(106,482,l),
(185,406,l),
(228,448,o),
(322,494,o),
(375,494,qs),
(440,494,o),
(537,431,o),
(582,316,o),
(569,242,qs),
(556,168,o),
(470,53,o),
(349,-10,o),
(286,-10,qs),
(227,-10,o),
(143,38,o),
(118,84,q)
);
},
{
closed = 1;
nodes = (
(300,422,o),
(212,375,o),
(150,292,o),
(141,241,qs),
(132,191,o),
(166,107,o),
(239,59,o),
(285,59,qs),
(332,59,o),
(418,105,o),
(478,188,o),
(487,242,qs),
(494,287,o),
(470,370,o),
(401,422,o),
(346,422,qs)
);
}
);
width = 607;
},
{
layerId = "6E397364-29F0-430D-8798-B3D240BA8B9C";
shapes = (
{
closed = 1;
nodes = (
(85,-183,l),
(-15,-183,l),
(104,492,l),
(200,417,l),
(243,459,o),
(332,504,o),
(388,504,q),
(453,504,o),
(550,440,o),
(594,323,o),
(581,247,q),
(567,171,o),
(481,54,o),
(360,-10,o),
(297,-10,q),
(239,-10,o),
(157,37,o),
(131,81,q)
);
},
{
closed = 1;
nodes = (
(306,417,o),
(224,373,o),
(166,295,o),
(157,246,q),
(149,198,o),
(180,119,o),
(248,74,o),
(291,74,q),
(335,74,o),
(416,117,o),
(472,196,o),
(482,247,q),
(491,294,o),
(465,372,o),
(398,417,o),
(350,417,q)
);
}
);
width = 618;
},
{
layerId = "97194E86-8399-4162-8293-D906943AC4AA";
shapes = (
{
closed = 1;
nodes = (
(167,-160,l),
(-23,-160,l),
(100,541,l),
(278,469,l),
(318,509,o),
(401,553,o),
(457,553,q),
(522,553,o),
(619,484,o),
(662,356,o),
(647,271,q),
(632,186,o),
(544,57,o),
(423,-12,o),
(358,-12,q),
(301,-12,o),
(231,30,o),
(207,66,q)
);
},
{
closed = 1;
nodes = (
(340,394,o),
(284,362,o),
(246,306,o),
(240,270,q),
(234,235,o),
(252,179,o),
(297,147,o),
(327,147,q),
(358,147,o),
(414,178,o),
(454,235,o),
(460,272,q),
(466,305,o),
(449,360,o),
(405,394,o),
(370,394,q)
);
}
);
width = 675;
}
);
note = p;
unicode = 112;
},
{
glyphname = q;
layers = (
{
layerId = m01;
shapes = (
{
closed = 1;
nodes = (
(424,87,l),
(381,40,o),
(282,-11,o),
(225,-11,qs),
(159,-11,o),
(61,54,o),
(17,169,o),
(30,241,qs),
(43,316,o),
(127,431,o),
(248,494,o),
(314,494,qs),
(370,494,o),
(442,451,o),
(471,410,q),
(576,482,l),
(458,-188,l),
(376,-188,l)
);
},
{
closed = 1;
nodes = (
(296,59,o),
(385,107,o),
(448,191,o),
(457,242,qs),
(466,293,o),
(433,377,o),
(362,424,o),
(316,424,qs),
(242,424,o),
(130,324,o),
(114,243,qs),
(105,194,o),
(129,110,o),
(197,59,o),
(250,59,qs)
);
}
);
width = 606;
},
{
layerId = "6E397364-29F0-430D-8798-B3D240BA8B9C";
shapes = (
{
closed = 1;
nodes = (
(420,85,l),
(378,39,o),
(280,-11,o),
(224,-11,q),
(158,-11,o),
(61,54,o),
(17,172,o),
(30,246,q),
(44,322,o),
(129,440,o),
(249,504,o),
(315,504,q),
(371,504,o),
(442,461,o),
(471,421,q),
(592,492,l),
(473,-183,l),
(373,-183,l)
);
},
{
closed = 1;
nodes = (
(304,74,o),
(387,119,o),
(445,199,o),
(454,247,q),
(462,295,o),
(432,374,o),
(365,419,o),
(321,419,q),
(252,419,o),
(145,324,o),
(131,248,q),
(122,200,o),
(141,122,o),
(205,74,o),
(260,74,q)
);
}
);
width = 618;
},
{
layerId = "97194E86-8399-4162-8293-D906943AC4AA";
shapes = (
{
closed = 1;
nodes = (
(398,72,l),
(359,33,o),
(274,-12,o),
(219,-12,q),
(155,-12,o),
(57,58,o),
(14,186,o),
(29,270,q),
(44,355,o),
(132,484,o),
(253,553,o),
(318,553,q),
(374,553,o),
(443,511,o),
(469,475,q),
(670,541,l),
(547,-160,l),
(357,-160,l)
);
},
{
closed = 1;
nodes = (
(334,147,o),
(390,180,o),
(430,237,o),
(436,272,q),
(442,307,o),
(422,363,o),
(377,394,o),
(347,394,q),
(302,394,o),
(226,325,o),
(216,272,q),
(210,240,o),
(224,183,o),
(267,147,o),
(304,147,q)
);
}
);
width = 675;
}
);
note = q;
unicode = 113;
},
{
glyphname = r;
layers = (
{
layerId = m01;
shapes = (
{
closed = 1;
nodes = (
(366,410,l),
(352,419,o),
(324,419,qs),
(289,419,o),
(216,388,o),
(159,321,o),
(150,271,qs),
(102,0,l),
(20,0,l),
(105,482,l),
(179,428,l),
(212,458,o),
(299,491,o),
(339,491,qs),
(358,491,o),
(380,486,q)
);
}
);
width = 343;
},
{
layerId = "6E397364-29F0-430D-8798-B3D240BA8B9C";
shapes = (
{
closed = 1;
nodes = (
(377,400,l),
(366,408,o),
(339,408,q),
(301,408,o),
(227,375,o),
(171,306,o),
(162,254,q),
(117,0,l),
(17,0,l),
(104,492,l),
(195,429,l),
(227,464,o),
(313,501,o),
(357,501,q),
(379,501,o),
(394,497,q)
);
}
);
width = 355;
},
{
layerId = "97194E86-8399-4162-8293-D906943AC4AA";
shapes = (
{
closed = 1;
nodes = (
(427,350,l),
(419,350,o),
(411,350,q),
(361,350,o),
(285,310,o),
(234,229,o),
(224,168,q),
(194,0,l),
(4,0,l),
(99,541,l),
(270,432,l),
(305,490,o),
(392,550,o),
(453,550,q),
(458,550,o),
(462,550,q)
);
}
);
width = 417;
}
);
note = r;
unicode = 114;
},
{
glyphname = s;
layers = (
{
layerId = m01;
shapes = (
{
closed = 1;
nodes = (
(251,157,o),
(228,195,o),
(191,219,o),
(156,237,qs),
(117,256,o),
(71,288,o),
(44,339,o),
(51,376,qs),
(61,430,o),
(152,493,o),
(222,493,qs),
(258,493,o),
(324,474,o),
(347,453,q),
(331,363,l),
(302,393,o),
(246,425,o),
(212,425,qs),
(178,425,o),
(134,395,o),
(130,373,qs),
(125,348,o),
(165,314,o),
(209,291,qs),
(251,269,o),
(302,233,o),
(332,174,o),
(325,133,qs),
(318,94,o),
(266,29,o),
(184,-10,o),
(134,-10,qs),
(83,-10,o),
(12,20,o),
(-20,46,q),
(-4,134,l),
(26,100,o),
(100,58,o),
(144,58,qs),
(179,58,o),
(239,90,o),
(246,131,qs)
);
}
);
width = 380;
},
{
layerId = "6E397364-29F0-430D-8798-B3D240BA8B9C";
shapes = (
{
closed = 1;
nodes = (
(256,157,o),
(234,190,o),
(197,213,o),
(163,230,q),
(121,250,o),
(72,282,o),
(42,336,o),
(49,376,q),
(60,434,o),
(158,503,o),
(233,503,q),
(273,503,o),
(341,483,o),
(367,463,q),
(349,363,l),
(316,392,o),
(255,424,o),
(220,424,q),
(189,424,o),
(147,396,o),
(143,376,q),
(139,352,o),
(179,320,o),
(223,299,q),
(267,278,o),
(321,241,o),
(354,181,o),
(346,138,q),
(339,96,o),
(284,29,o),
(198,-10,o),
(145,-10,q),
(94,-10,o),
(19,19,o),
(-18,45,q),
(-1,144,l),
(30,111,o),
(112,69,o),
(155,69,q),
(187,69,o),
(245,98,o),
(252,135,q)
);
}
);
width = 400;
},
{
layerId = "97194E86-8399-4162-8293-D906943AC4AA";
shapes = (
{
closed = 1;
nodes = (
(279,162,o),
(261,178,o),
(230,189,o),
(202,196,q),
(145,213,o),
(73,246,o),
(27,316,o),
(37,373,q),
(52,457,o),
(190,552,o),
(286,552,q),
(340,552,o),
(415,535,o),
(466,513,q),
(439,360,l),
(402,383,o),
(295,419,o),
(261,419,q),
(240,419,o),
(214,404,o),
(212,391,q),
(209,373,o),
(248,352,o),
(293,337,q),
(346,320,o),
(416,286,o),
(460,218,o),
(451,164,q),
(441,109,o),
(372,30,o),
(265,-12,o),
(199,-12,q),
(145,-12,o),
(50,13,o),
(-7,38,q),
(20,193,l),
(62,162,o),
(168,121,o),
(210,121,q),
(233,121,o),
(274,134,o),
(277,152,q)
);
}
);
width = 500;
}
);
note = s;
unicode = 115;
},
{
glyphname = t;
layers = (
{
layerId = m01;
shapes = (
{
closed = 1;
nodes = (
(138,412,l),
(40,412,l),
(259,649,l),
(230,482,l),
(358,482,l),
(346,412,l),
(218,412,l),
(165,112,ls),
(161,89,o),
(177,59,o),
(199,59,qs),
(219,59,o),
(240,68,q),
(228,-1,l),
(205,-11,o),
(177,-11,qs),
(121,-11,o),
(76,64,o),
(86,120,qs)
);
}
);
width = 335;
},
{
layerId = "6E397364-29F0-430D-8798-B3D240BA8B9C";
shapes = (
{
closed = 1;
nodes = (
(138,408,l),
(39,408,l),
(281,659,l),
(252,492,l),
(379,492,l),
(364,408,l),
(237,408,l),
(188,128,l),
(183,104,o),
(200,74,o),
(223,74,q),
(246,74,o),
(269,85,q),
(255,3,l),
(228,-11,o),
(190,-11,q),
(130,-11,o),
(78,68,o),
(89,128,q)
);
}
);
width = 353;
},
{
layerId = "97194E86-8399-4162-8293-D906943AC4AA";
shapes = (
{
closed = 1;
nodes = (
(135,388,l),
(31,388,l),
(382,708,l),
(352,541,l),
(478,541,l),
(451,388,l),
(325,388,l),
(293,205,l),
(288,176,o),
(309,151,o),
(336,151,q),
(367,151,o),
(411,169,q),
(385,20,l),
(321,-11,o),
(247,-11,q),
(161,-11,o),
(80,75,o),
(97,168,q)
);
}
);
width = 441;
}
);
note = t;
unicode = 116;
},
{
glyphname = u;
layers = (
{
layerId = m01;
shapes = (
{
closed = 1;
nodes = (
(99,483,l),
(181,483,l),
(132,203,ls),
(118,125,o),
(164,62,o),
(218,62,qs),
(249,62,o),
(319,92,o),
(374,156,o),
(382,203,qs),
(431,483,l),
(513,483,l),
(428,0,l),
(355,62,l),
(320,27,o),
(237,-10,o),
(186,-10,qs),
(95,-10,o),
(32,101,o),
(46,180,qs)
);
}
);
width = 535;
},
{
layerId = "6E397364-29F0-430D-8798-B3D240BA8B9C";
shapes = (
{
closed = 1;
nodes = (
(99,493,l),
(199,493,l),
(149,211,l),
(136,136,o),
(188,78,o),
(237,78,q),
(267,78,o),
(328,104,o),
(375,164,o),
(383,211,q),
(433,493,l),
(533,493,l),
(446,-2,l),
(356,62,l),
(321,28,o),
(237,-10,o),
(186,-10,q),
(94,-10,o),
(31,109,o),
(46,191,q)
);
}
);
width = 551;
},
{
layerId = "97194E86-8399-4162-8293-D906943AC4AA";
shapes = (
{
closed = 1;
nodes = (
(96,541,l),
(286,541,l),
(235,248,l),
(227,205,o),
(261,157,o),
(296,157,q),
(319,157,o),
(358,178,o),
(386,219,o),
(391,248,q),
(442,541,l),
(632,541,l),
(535,-12,l),
(358,62,l),
(327,29,o),
(238,-12,o),
(183,-12,q),
(87,-12,o),
(20,105,o),
(34,187,q)
);
}
);
width = 631;
}
);
note = u;
unicode = 117;
},
{
glyphname = v;
layers = (
{
layerId = m01;
shapes = (
{
closed = 1;
nodes = (
(151,0,l),
(34,481,l),
(124,481,l),
(209,91,l),
(433,481,l),
(519,481,l),
(232,0,l)
);
}
);
width = 477;
},
{
layerId = "6E397364-29F0-430D-8798-B3D240BA8B9C";
shapes = (
{
closed = 1;
nodes = (
(152,-1,l),
(35,491,l),
(143,491,l),
(222,113,l),
(435,491,l),
(540,491,l),
(248,-1,l)
);
}
);
width = 497;
},
{
layerId = "97194E86-8399-4162-8293-D906943AC4AA";
shapes = (
{
closed = 1;
nodes = (
(162,-4,l),
(42,541,l),
(242,541,l),
(291,225,l),
(450,541,l),
(647,541,l),
(335,-4,l)
);
}
);
width = 595;
}
);
note = v;
unicode = 118;
},
{
glyphname = w;
layers = (
{
layerId = m01;
shapes = (
{
closed = 1;
nodes = (
(179,99,l),
(365,483,l),
(448,483,l),
(498,100,l),
(685,482,l),
(771,482,l),
(522,0,l),
(441,0,l),
(388,395,l),
(197,0,l),
(119,0,l),
(39,482,l),
(124,482,l)
);
}
);
width = 734;
},
{
layerId = "6E397364-29F0-430D-8798-B3D240BA8B9C";
shapes = (
{
closed = 1;
nodes = (
(189,127,l),
(366,493,l),
(462,493,l),
(509,128,l),
(685,492,l),
(788,492,l),
(536,-1,l),
(441,-1,l),
(390,375,l),
(208,-1,l),
(116,-1,l),
(38,492,l),
(140,492,l)
);
}
);
width = 748;
},
{
layerId = "97194E86-8399-4162-8293-D906943AC4AA";
shapes = (
{
closed = 1;
nodes = (
(246,269,l),
(378,543,l),
(535,543,l),
(570,267,l),
(691,541,l),
(874,541,l),
(611,-4,l),
(447,-4,l),
(409,277,l),
(269,-4,l),
(106,-4,l),
(37,541,l),
(223,541,l)
);
}
);
width = 815;
}
);
note = w;
unicode = 119;
},
{
glyphname = x;
layers = (
{
layerId = m01;
shapes = (
{
closed = 1;
nodes = (
(58,481,l),
(152,481,l),
(254,307,l),
(419,481,l),
(509,481,l),
(290,251,l),
(438,0,l),
(345,0,l),
(232,192,l),
(52,0,l),
(-40,0,l),
(198,249,l)
);
}
);
width = 492;
},
{
layerId = "6E397364-29F0-430D-8798-B3D240BA8B9C";
shapes = (
{
closed = 1;
nodes = (
(57,491,l),
(170,491,l),
(264,324,l),
(419,491,l),
(528,491,l),
(308,255,l),
(453,0,l),
(341,0,l),
(237,183,l),
(69,0,l),
(-41,0,l),
(196,253,l)
);
}
);
width = 506;
},
{
layerId = "97194E86-8399-4162-8293-D906943AC4AA";
shapes = (
{
closed = 1;
nodes = (
(52,541,l),
(257,541,l),
(314,408,l),
(417,541,l),
(618,541,l),
(393,274,l),
(527,0,l),
(323,0,l),
(264,139,l),
(154,0,l),
(-46,0,l),
(184,273,l)
);
}
);
width = 576;
}
);
note = x;
unicode = 120;
},
{
glyphname = y;
layers = (
{
layerId = m01;
shapes = (
{
closed = 1;
nodes = (
(123,481,l),
(220,98,l),
(437,481,l),
(523,481,l),
(137,-188,l),
(59,-188,l),
(167,0,l),
(34,481,l)
);
}
);
width = 481;
},
{
layerId = "6E397364-29F0-430D-8798-B3D240BA8B9C";
shapes = (
{
closed = 1;
nodes = (
(142,491,l),
(231,114,l),
(439,491,l),
(543,491,l),
(157,-183,l),
(65,-183,l),
(167,-1,l),
(35,491,l)
);
}
);
width = 500;
},
{
layerId = "97194E86-8399-4162-8293-D906943AC4AA";
shapes = (
{
closed = 1;
nodes = (
(241,541,l),
(288,195,l),
(451,541,l),
(646,541,l),
(259,-160,l),
(98,-160,l),
(174,-6,l),
(42,541,l)
);
}
);
width = 593;
}
);
note = y;
unicode = 121;
},
{
glyphname = z;
layers = (
{
layerId = m01;
shapes = (
{
closed = 1;
nodes = (
(438,70,l),
(426,0,l),
(-35,0,l),
(-23,69,l),
(407,414,l),
(59,414,l),
(71,482,l),
(517,482,l),
(505,414,l),
(75,70,l)
);
}
);
width = 504;
},
{
layerId = "6E397364-29F0-430D-8798-B3D240BA8B9C";
shapes = (
{
closed = 1;
nodes = (
(448,84,l),
(433,0,l),
(-34,0,l),
(-20,78,l),
(387,410,l),
(57,410,l),
(72,492,l),
(525,492,l),
(511,414,l),
(104,84,l)
);
}
);
width = 509;
},
{
layerId = "97194E86-8399-4162-8293-D906943AC4AA";
shapes = (
{
closed = 1;
nodes = (
(497,151,l),
(470,0,l),
(-32,0,l),
(-10,125,l),
(287,390,l),
(46,390,l),
(72,541,l),
(565,541,l),
(543,416,l),
(246,151,l)
);
}
);
width = 536;
}
);
note = z;
unicode = 122;
},
{
glyphname = braceleft;
layers = (
{
layerId = m01;
shapes = (
{
closed = 1;
nodes = (
(52,325,l),
(83,325,o),
(130,340,o),
(163,373,o),
(172,399,qs),
(177,415,o),
(180,431,qs),
(185,461,o),
(190,490,qs),
(204,581,o),
(237,672,o),
(334,728,o),
(433,733,q),
(435,675,l),
(386,665,o),
(331,644,o),
(292,598,o),
(284,555,qs),
(276,505,ls),
(268,446,o),
(248,375,o),
(194,312,o),
(143,289,q),
(186,267,o),
(217,203,o),
(212,133,o),
(200,74,qs),
(195,49,o),
(190,23,qs),
(187,7,o),
(187,-7,qs),
(187,-37,o),
(214,-71,o),
(260,-89,o),
(299,-97,q),
(277,-155,l),
(195,-151,o),
(116,-114,o),
(97,-29,o),
(111,51,qs),
(112,56,o),
(120,92,qs),
(132,146,o),
(134,209,o),
(93,252,o),
(39,252,q)
);
}
);
width = 405;
},
{
layerId = "6E397364-29F0-430D-8798-B3D240BA8B9C";
shapes = (
{
closed = 1;
nodes = (
(52,329,l),
(88,329,o),
(138,347,o),
(169,383,o),
(178,412,q),
(184,433,o),
(186,448,q),
(186,451,o),
(187,452,q),
(205,558,o),
(244,662,o),
(344,725,o),
(446,730,q),
(444,662,l),
(397,652,o),
(344,632,o),
(306,587,o),
(299,546,q),
(292,499,l),
(284,440,o),
(264,372,o),
(210,311,o),
(158,289,q),
(201,267,o),
(232,205,o),
(229,135,o),
(218,75,q),
(215,60,o),
(212,45,q),
(210,30,o),
(208,15,q),
(207,-17,o),
(229,-56,o),
(274,-77,o),
(312,-85,q),
(290,-153,l),
(204,-147,o),
(122,-109,o),
(101,-21,o),
(116,64,q),
(119,77,o),
(121,90,q),
(132,145,o),
(133,206,o),
(91,247,o),
(38,247,q)
);
}
);
width = 415;
},
{
layerId = "97194E86-8399-4162-8293-D906943AC4AA";
shapes = (
{
closed = 1;
nodes = (
(50,350,l),
(116,350,o),
(179,379,o),
(198,430,o),
(205,482,q),
(209,508,o),
(213,533,q),
(218,555,o),
(219,558,q),
(237,614,o),
(328,678,o),
(433,704,o),
(509,715,q),
(488,598,l),
(455,592,o),
(411,572,o),
(382,532,o),
(376,500,q),
(370,460,l),
(362,408,o),
(343,350,o),
(287,302,o),
(230,287,q),
(259,278,o),
(300,250,o),
(322,208,o),
(321,180,q),
(321,167,o),
(318,153,q),
(315,138,o),
(311,122,q),
(300,75,o),
(298,23,o),
(333,-16,o),
(379,-24,q),
(358,-141,l),
(249,-126,o),
(149,-81,o),
(122,23,o),
(144,126,q),
(148,141,o),
(148,155,q),
(148,185,o),
(116,215,o),
(65,224,o),
(27,224,q)
);
}
);
width = 464;
}
);
note = braceleft;
unicode = 123;
},
{
glyphname = bar;
layers = (
{
layerId = m01;
shapes = (
{
closed = 1;
nodes = (
(245,-168,l),
(172,-168,l),
(337,767,l),
(410,767,l)
);
}
);
width = 570;
},
{
layerId = "6E397364-29F0-430D-8798-B3D240BA8B9C";
shapes = (
{
closed = 1;
nodes = (
(263,-161,l),
(178,-161,l),
(342,772,l),
(427,772,l)
);
}
);
width = 589;
},
{
layerId = "97194E86-8399-4162-8293-D906943AC4AA";
shapes = (
{
closed = 1;
nodes = (
(345,-128,l),
(200,-128,l),
(364,798,l),
(509,798,l)
);
}
);
width = 685;
}
);
note = bar;
unicode = 124;
},
{
glyphname = braceright;
layers = (
{
layerId = m01;
shapes = (
{
closed = 1;
nodes = (
(360,252,l),
(329,252,o),
(281,236,o),
(249,202,o),
(240,175,qs),
(237,165,o),
(233,147,qs),
(228,116,o),
(223,84,qs),
(208,-9,o),
(175,-97,o),
(79,-150,o),
(-20,-155,q),
(-22,-97,l),
(23,-88,o),
(75,-70,o),
(114,-32,o),
(124,1,qs),
(128,15,o),
(129,23,qs),
(133,48,o),
(137,73,qs),
(145,132,o),
(165,203,o),
(219,266,o),
(270,289,q),
(227,311,o),
(196,375,o),
(201,445,o),
(213,504,qs),
(218,530,o),
(223,555,qs),
(226,572,o),
(226,584,qs),
(226,614,o),
(199,649,o),
(153,667,o),
(114,675,q),
(136,733,l),
(218,729,o),
(297,692,o),
(316,607,o),
(302,527,qs),
(298,507,o),
(294,487,qs),
(283,432,o),
(280,367,o),
(320,324,o),
(373,325,q)
);
}
);
width = 405;
},
{
layerId = "6E397364-29F0-430D-8798-B3D240BA8B9C";
shapes = (
{
closed = 1;
nodes = (
(371,247,l),
(334,247,o),
(285,230,o),
(254,193,o),
(245,162,q),
(242,150,o),
(238,131,q),
(238,128,o),
(237,125,q),
(218,14,o),
(179,-88,o),
(80,-148,o),
(-23,-153,q),
(-21,-85,l),
(22,-77,o),
(76,-54,o),
(112,-12,o),
(121,23,q),
(125,37,o),
(126,45,q),
(129,62,o),
(132,79,q),
(141,137,o),
(162,207,o),
(215,268,o),
(266,289,q),
(223,310,o),
(191,371,o),
(194,438,o),
(205,498,q),
(208,509,o),
(212,533,q),
(214,548,o),
(216,562,q),
(217,594,o),
(195,633,o),
(149,654,o),
(111,662,q),
(133,730,l),
(212,726,o),
(296,690,o),
(323,606,o),
(309,528,q),
(307,511,o),
(301,487,q),
(289,432,o),
(287,369,o),
(329,328,o),
(385,329,q)
);
}
);
width = 415;
},
{
layerId = "97194E86-8399-4162-8293-D906943AC4AA";
shapes = (
{
closed = 1;
nodes = (
(422,224,l),
(357,224,o),
(295,196,o),
(275,147,o),
(268,95,q),
(265,74,o),
(261,52,q),
(257,34,o),
(254,25,q),
(236,-35,o),
(148,-102,o),
(39,-131,o),
(-37,-141,q),
(-16,-24,l),
(34,-16,o),
(83,26,o),
(99,81,o),
(104,130,q),
(106,142,o),
(107,153,q),
(109,168,o),
(113,180,q),
(122,208,o),
(159,250,o),
(211,278,o),
(243,287,q),
(214,295,o),
(172,323,o),
(150,365,o),
(151,393,q),
(151,406,o),
(154,421,q),
(158,437,o),
(161,452,q),
(172,498,o),
(175,551,o),
(140,590,o),
(93,598,q),
(114,715,l),
(191,704,o),
(292,674,o),
(358,599,o),
(346,533,q),
(341,508,o),
(336,483,q),
(324,431,o),
(326,379,o),
(379,350,o),
(445,350,q)
);
}
);
width = 464;
}
);
note = braceright;
unicode = 125;
},
{
glyphname = asciitilde;
layers = (
{
layerId = m01;
shapes = (
{
closed = 1;
nodes = (
(482,347,l),
(451,293,o),
(383,235,o),
(344,235,qs),
(323,235,o),
(286,249,o),
(259,263,qs),
(234,276,o),
(199,290,o),
(181,290,qs),
(156,290,o),
(114,260,o),
(94,229,q),
(50,253,l),
(82,309,o),
(150,364,o),
(193,364,qs),
(218,364,o),
(258,348,o),
(283,333,qs),
(307,320,o),
(333,309,o),
(348,309,qs),
(372,309,o),
(419,341,o),
(436,369,q)
);
}
);
width = 523;
},
{
layerId = "6E397364-29F0-430D-8798-B3D240BA8B9C";
shapes = (
{
closed = 1;
nodes = (
(482,349,l),
(453,293,o),
(383,234,o),
(343,234,q),
(322,234,o),
(285,247,o),
(257,261,q),
(234,273,o),
(199,286,o),
(181,286,q),
(158,286,o),
(121,258,o),
(100,228,q),
(49,254,l),
(81,313,o),
(148,369,o),
(192,369,q),
(217,369,o),
(258,354,o),
(283,340,q),
(303,329,o),
(332,317,o),
(347,317,q),
(370,317,o),
(413,347,o),
(430,374,q)
);
}
);
width = 519;
},
{
layerId = "97194E86-8399-4162-8293-D906943AC4AA";
shapes = (
{
closed = 1;
nodes = (
(471,357,l),
(443,287,o),
(372,227,o),
(329,227,q),
(308,227,o),
(267,238,o),
(241,249,q),
(221,257,o),
(192,266,o),
(179,266,q),
(160,266,o),
(136,245,o),
(121,220,q),
(40,260,l),
(69,333,o),
(136,394,o),
(183,394,q),
(206,394,o),
(248,382,o),
(274,371,q),
(289,365,o),
(321,355,o),
(333,355,q),
(352,355,o),
(376,376,o),
(392,401,q)
);
}
);
width = 497;
}
);
note = asciitilde;
unicode = 126;
},
{
glyphname = exclamdown;
layers = (
{
layerId = m01;
shapes = (
{
closed = 1;
nodes = (
(46,-53,l),
(128,324,l),
(183,324,l),
(133,-53,l),
(115,-179,l),
(17,-179,l)
);
},
{
closed = 1;
nodes = (
(146,415,o),
(117,451,o),
(122,476,qs),
(127,504,o),
(169,535,o),
(192,535,qs),
(216,535,o),
(245,500,o),
(241,476,qs),
(236,451,o),
(195,415,o),
(171,415,qs)
);
}
);
width = 291;
},
{
layerId = "6E397364-29F0-430D-8798-B3D240BA8B9C";
shapes = (
{
closed = 1;
nodes = (
(37,-60,l),
(127,319,l),
(190,319,l),
(146,-60,l),
(129,-179,l),
(11,-179,l)
);
},
{
closed = 1;
nodes = (
(145,403,o),
(113,440,o),
(117,470,q),
(123,506,o),
(170,535,o),
(196,535,q),
(225,535,o),
(257,497,o),
(252,470,q),
(247,440,o),
(203,403,o),
(173,403,q)
);
}
);
width = 299;
},
{
layerId = "97194E86-8399-4162-8293-D906943AC4AA";
shapes = (
{
closed = 1;
nodes = (
(-2,-94,l),
(125,293,l),
(225,293,l),
(214,-94,l),
(199,-179,l),
(-17,-179,l)
);
},
{
closed = 1;
nodes = (
(136,341,o),
(84,392,o),
(93,438,q),
(103,487,o),
(176,534,o),
(217,534,q),
(264,534,o),
(316,484,o),
(308,438,q),
(300,392,o),
(230,341,o),
(183,341,q)
);
}
);
width = 341;
}
);
note = exclamdown;
unicode = 161;
},
{
glyphname = cent;
layers = (
{
layerId = m01;
shapes = (
{
closed = 1;
nodes = (
(314,550,l),
(243,545,o),
(149,455,o),
(135,375,qs),
(124,311,o),
(165,227,o),
(213,201,q)
);
},
{
closed = 1;
nodes = (
(482,485,l),
(466,507,o),
(409,540,o),
(374,544,q),
(273,192,l),
(316,192,o),
(404,234,o),
(442,268,q),
(427,184,l),
(354,122,o),
(256,122,q),
(229,36,l),
(164,36,l),
(193,131,l),
(115,153,o),
(38,285,o),
(53,371,qs),
(66,442,o),
(145,554,o),
(264,620,o),
(334,624,q),
(357,705,l),
(420,705,l),
(397,619,l),
(451,608,o),
(496,568,q)
);
}
);
width = 488;
},
{
layerId = "6E397364-29F0-430D-8798-B3D240BA8B9C";
shapes = (
{
closed = 1;
nodes = (
(318,540,l),
(251,535,o),
(162,447,o),
(149,372,q),
(138,312,o),
(174,232,o),
(219,207,q)
);
},
{
closed = 1;
nodes = (
(484,477,l),
(470,499,o),
(416,531,o),
(383,535,q),
(284,197,l),
(326,197,o),
(409,237,o),
(447,270,q),
(429,172,l),
(358,115,o),
(262,114,q),
(236,29,l),
(163,29,l),
(192,125,l),
(114,147,o),
(38,282,o),
(53,368,q),
(66,441,o),
(147,555,o),
(269,622,o),
(342,626,q),
(365,705,l),
(437,705,l),
(413,619,l),
(461,608,o),
(501,574,q)
);
}
);
width = 490;
},
{
layerId = "97194E86-8399-4162-8293-D906943AC4AA";
shapes = (
{
closed = 1;
nodes = (
(337,491,l),
(290,484,o),
(221,410,o),
(212,355,q),
(205,316,o),
(223,255,o),
(247,238,q)
);
},
{
closed = 1;
nodes = (
(493,438,l),
(480,458,o),
(448,483,o),
(431,487,q),
(336,221,l),
(374,221,o),
(443,253,o),
(469,278,q),
(440,112,l),
(379,80,o),
(296,75,q),
(268,-6,l),
(153,-6,l),
(187,92,l),
(108,120,o),
(31,264,o),
(47,355,q),
(60,433,o),
(156,561,o),
(298,636,o),
(380,636,q),
(404,706,l),
(519,706,l),
(489,619,l),
(510,611,o),
(522,603,q)
);
}
);
width = 500;
}
);
note = cent;
unicode = 162;
},
{
glyphname = sterling;
layers = (
{
layerId = m01;
shapes = (
{
closed = 1;
nodes = (
(186,292,l),
(148,73,l),
(478,73,l),
(465,0,l),
(49,0,l),
(103,305,l),
(37,305,l),
(49,373,l),
(115,373,l),
(133,476,ls),
(145,546,o),
(217,655,o),
(330,717,o),
(400,717,qs),
(464,717,o),
(554,667,o),
(582,620,q),
(517,566,l),
(494,603,o),
(435,640,o),
(385,640,qs),
(315,640,o),
(231,547,o),
(219,475,qs),
(201,373,l),
(445,373,l),
(439,305,l)
);
}
);
width = 543;
},
{
layerId = "6E397364-29F0-430D-8798-B3D240BA8B9C";
shapes = (
{
closed = 1;
nodes = (
(207,298,l),
(169,86,l),
(492,86,l),
(477,0,l),
(50,0,l),
(103,298,l),
(35,298,l),
(48,377,l),
(116,377,l),
(133,472,l),
(146,543,o),
(219,654,o),
(335,716,o),
(407,716,q),
(474,716,o),
(565,666,o),
(594,619,q),
(515,554,l),
(492,589,o),
(437,623,o),
(391,623,q),
(327,623,o),
(249,538,o),
(237,471,q),
(220,377,l),
(464,377,l),
(451,298,l)
);
}
);
width = 552;
},
{
layerId = "97194E86-8399-4162-8293-D906943AC4AA";
shapes = (
{
closed = 1;
nodes = (
(292,263,l),
(273,153,l),
(566,153,l),
(539,0,l),
(53,0,l),
(99,263,l),
(24,263,l),
(48,399,l),
(123,399,l),
(132,450,l),
(146,530,o),
(229,648,o),
(358,712,o),
(439,712,q),
(517,712,o),
(620,659,o),
(654,611,q),
(504,494,l),
(486,518,o),
(445,539,o),
(421,539,q),
(383,539,o),
(332,492,o),
(325,450,q),
(316,399,l),
(532,399,l),
(508,263,l)
);
}
);
width = 598;
}
);
note = sterling;
unicode = 163;
},
{
glyphname = currency;
layers = (
{
layerId = m01;
shapes = (
{
closed = 1;
nodes = (
(591,483,l),
(610,444,o),
(622,372,o),
(614,328,qs),
(598,242,o),
(534,171,q),
(613,77,l),
(554,27,l),
(475,122,l),
(396,74,o),
(313,74,qs),
(271,74,o),
(200,98,o),
(169,123,q),
(54,27,l),
(14,77,l),
(128,174,l),
(107,206,o),
(96,280,o),
(104,328,qs),
(112,376,o),
(146,444,o),
(179,481,q),
(101,574,l),
(159,624,l),
(237,530,l),
(275,556,o),
(360,582,o),
(403,582,qs),
(489,582,o),
(548,531,q),
(658,624,l),
(700,574,l)
);
},
{
closed = 1;
nodes = (
(175,279,o),
(204,197,o),
(275,149,o),
(326,149,qs),
(376,149,o),
(464,196,o),
(522,278,o),
(531,327,qs),
(540,379,o),
(510,461,o),
(440,507,o),
(389,507,qs),
(307,507,o),
(200,416,o),
(184,328,qs)
);
}
);
width = 693;
},
{
layerId = "6E397364-29F0-430D-8798-B3D240BA8B9C";
shapes = (
{
closed = 1;
nodes = (
(596,481,l),
(614,443,o),
(625,371,o),
(618,328,q),
(603,246,o),
(540,173,q),
(618,80,l),
(553,25,l),
(474,120,l),
(395,73,o),
(315,73,q),
(274,73,o),
(205,97,o),
(173,121,q),
(58,25,l),
(14,80,l),
(127,176,l),
(108,209,o),
(97,282,o),
(105,328,q),
(113,375,o),
(146,444,o),
(178,479,q),
(101,572,l),
(165,627,l),
(243,533,l),
(280,559,o),
(362,583,o),
(405,583,q),
(491,583,o),
(548,534,q),
(659,627,l),
(705,572,l)
);
},
{
closed = 1;
nodes = (
(184,280,o),
(212,201,o),
(280,155,o),
(329,155,q),
(378,155,o),
(463,201,o),
(520,280,o),
(528,327,q),
(536,377,o),
(508,457,o),
(440,502,o),
(391,502,q),
(311,502,o),
(208,413,o),
(192,328,q)
);
}
);
width = 697;
},
{
layerId = "97194E86-8399-4162-8293-D906943AC4AA";
shapes = (
{
closed = 1;
nodes = (
(618,470,l),
(633,436,o),
(641,370,o),
(634,329,q),
(620,250,o),
(567,185,q),
(642,94,l),
(549,15,l),
(471,108,l),
(398,69,o),
(325,69,q),
(287,69,o),
(222,89,o),
(193,109,q),
(80,15,l),
(16,94,l),
(125,188,l),
(110,218,o),
(101,290,o),
(108,329,q),
(114,367,o),
(146,438,o),
(173,469,q),
(98,560,l),
(190,639,l),
(268,549,l),
(306,570,o),
(376,589,o),
(417,589,q),
(495,589,o),
(551,550,q),
(658,639,l),
(724,560,l)
);
},
{
closed = 1;
nodes = (
(226,289,o),
(249,223,o),
(305,184,o),
(345,184,q),
(386,184,o),
(455,223,o),
(502,289,o),
(509,329,q),
(516,369,o),
(493,435,o),
(437,474,o),
(397,474,q),
(331,474,o),
(246,400,o),
(233,329,q)
);
}
);
width = 719;
}
);
note = currency;
unicode = 164;
},
{
glyphname = yen;
layers = (
{
layerId = m01;
shapes = (
{
closed = 1;
nodes = (
(252,303,l),
(76,303,l),
(88,370,l),
(233,370,l),
(78,705,l),
(176,705,l),
(317,372,l),
(572,705,l),
(667,705,l),
(394,370,l),
(538,370,l),
(526,303,l),
(350,303,l),
(329,213,l),
(511,213,l),
(499,146,l),
(315,146,l),
(289,0,l),
(208,0,l),
(234,146,l),
(49,146,l),
(61,213,l),
(247,213,l)
);
}
);
width = 590;
},
{
layerId = "6E397364-29F0-430D-8798-B3D240BA8B9C";
shapes = (
{
closed = 1;
nodes = (
(250,296,l),
(74,296,l),
(88,372,l),
(232,372,l),
(77,704,l),
(195,704,l),
(327,388,l),
(569,704,l),
(684,704,l),
(413,372,l),
(556,372,l),
(542,296,l),
(367,296,l),
(346,213,l),
(528,213,l),
(514,137,l),
(330,137,l),
(306,0,l),
(207,0,l),
(231,137,l),
(46,137,l),
(60,213,l),
(246,213,l)
);
}
);
width = 606;
},
{
layerId = "97194E86-8399-4162-8293-D906943AC4AA";
shapes = (
{
closed = 1;
nodes = (
(236,263,l),
(62,263,l),
(84,383,l),
(222,383,l),
(69,700,l),
(289,700,l),
(381,470,l),
(553,700,l),
(769,700,l),
(505,383,l),
(644,383,l),
(622,263,l),
(448,263,l),
(430,213,l),
(614,213,l),
(592,93,l),
(408,93,l),
(392,0,l),
(200,0,l),
(216,93,l),
(32,93,l),
(54,213,l),
(238,213,l)
);
}
);
width = 687;
}
);
note = yen;
unicode = 165;
},
{
glyphname = brokenbar;
layers = (
{
layerId = m01;
shapes = (
{
closed = 1;
nodes = (
(336,328,l),
(260,328,l),
(322,681,l),
(398,681,l)
);
},
{
closed = 1;
nodes = (
(247,-174,l),
(171,-174,l),
(233,173,l),
(309,173,l)
);
}
);
width = 573;
},
{
layerId = "6E397364-29F0-430D-8798-B3D240BA8B9C";
shapes = (
{
closed = 1;
nodes = (
(355,327,l),
(264,327,l),
(326,679,l),
(417,680,l)
);
},
{
closed = 1;
nodes = (
(266,-174,l),
(175,-174,l),
(237,173,l),
(315.6,172.188,l)
);
}
);
width = 595;
},
{
layerId = "97194E86-8399-4162-8293-D906943AC4AA";
shapes = (
{
closed = 1;
nodes = (
(447,321,l),
(280,321,l),
(341,667,l),
(508,667,l)
);
},
{
closed = 1;
nodes = (
(359,-173,l),
(192,-173,l),
(254,174,l),
(421,173,l)
);
}
);
width = 707;
}
);
note = brokenbar;
unicode = 166;
},
{
glyphname = section;
layers = (
{
layerId = m01;
shapes = (
{
closed = 1;
nodes = (
(486,588,l),
(451,622,o),
(386,654,o),
(342,654,qs),
(292,654,o),
(228,618,o),
(223,583,qs),
(220,562,o),
(241,524,o),
(300,487,o),
(354,470,qs),
(450,439,o),
(519,347,o),
(509,293,qs),
(501,250,o),
(434,193,o),
(369,179,q),
(400,152,o),
(425,95,o),
(419,62,qs),
(411,18,o),
(352,-49,o),
(261,-86,o),
(208,-86,qs),
(109,-86,o),
(50,-25,q),
(64,55,l),
(90,18,o),
(171,-18,o),
(221,-18,qs),
(270,-18,o),
(329,21,o),
(336,59,qs),
(343,93,o),
(273,149,o),
(200,173,qs),
(137,194,o),
(65,249,o),
(42,310,o),
(48,344,qs),
(57,389,o),
(129,452,o),
(193,464,q),
(165,487,o),
(135,547,o),
(141,584,qs),
(148,625,o),
(207,687,o),
(297,722,o),
(348,722,qs),
(396,722,o),
(474,693,o),
(500,668,q)
);
},
{
closed = 1;
nodes = (
(192,418,o),
(131,379,o),
(125,345,qs),
(120,315,o),
(165,264,o),
(256,227,o),
(320,217,q),
(365,217,o),
(427,258,o),
(433,292,qs),
(439,328,o),
(395,378,o),
(311,410,o),
(251,422,qs),
(240,424,l)
);
}
);
width = 556;
},
{
layerId = "6E397364-29F0-430D-8798-B3D240BA8B9C";
shapes = (
{
closed = 1;
nodes = (
(489,578,l),
(454,611,o),
(387,642,o),
(344,642,q),
(297,642,o),
(239,609,o),
(235,578,q),
(232,556,o),
(252,524,o),
(307,494,o),
(359,476,q),
(460,440,o),
(533,361,o),
(523,309,q),
(514,265,o),
(444,206,o),
(386,191,q),
(415,166,o),
(438,110,o),
(433,77,q),
(425,33,o),
(365,-36,o),
(271,-74,o),
(214,-74,q),
(117,-74,o),
(56,-18,q),
(72,75,l),
(101,39,o),
(180,4,o),
(229,4,q),
(275,4,o),
(329,39,o),
(335,74,q),
(341,105,o),
(279,150,o),
(206,177,q),
(140,202,o),
(67,249,o),
(40,306,o),
(47,346,q),
(55,389,o),
(128,453,o),
(185,462,q),
(158,485,o),
(131,543,o),
(137,579,q),
(144,620,o),
(204,685,o),
(298,721,o),
(353,721,q),
(400,721,o),
(478,694,o),
(505,670,q)
);
},
{
closed = 1;
nodes = (
(196,415,o),
(141,380,o),
(136,349,q),
(131,321,o),
(180,273,o),
(272,239,o),
(331,231,q),
(372,231,o),
(426,266,o),
(432,295,q),
(441,335,o),
(375,388,o),
(292,412,o),
(246,420,q),
(241,421,l)
);
}
);
width = 562;
},
{
layerId = "97194E86-8399-4162-8293-D906943AC4AA";
shapes = (
{
closed = 1;
nodes = (
(501,525,l),
(466,553,o),
(388,584,o),
(347,584,q),
(320,584,o),
(291,570,o),
(289,557,q),
(287,546,o),
(303,528,o),
(343,513,o),
(376,506,q),
(480,484,o),
(588,416,o),
(578,355,q),
(571,315,o),
(508,255,o),
(458,249,q),
(484,232,o),
(503,180,o),
(497,149,q),
(489,104,o),
(425,30,o),
(313,-13,o),
(239,-13,q),
(153,-13,o),
(84,18,q),
(112,175,l),
(147,147,o),
(225,116,o),
(264,116,q),
(292,116,o),
(321,131,o),
(324,146,q),
(326,160,o),
(285,183,o),
(236,194,q),
(171,207,o),
(77,246,o),
(27,305,o),
(34,345,q),
(40,384,o),
(102,441,o),
(155,451,q),
(131,473,o),
(110,529,o),
(115,559,q),
(122,601,o),
(188,671,o),
(300,713,o),
(374,713,q),
(419,713,o),
(495,697,o),
(528,681,q)
);
},
{
closed = 1;
nodes = (
(218,407,o),
(187,387,o),
(184,371,q),
(180,348,o),
(248,312,o),
(341,293,o),
(370,293,q),
(392,293,o),
(425,316,o),
(428,332,q),
(433,354,o),
(365,387,o),
(274,406,o),
(245,407,q),
(241,407,l)
);
}
);
width = 594;
}
);
note = section;
unicode = 167;
},
{
glyphname = dieresis;
layers = (
{
layerId = m01;
shapes = (
{
closed = 1;
nodes = (
(197,744,o),
(227,709,o),
(223,685,qs),
(219,661,o),
(176,626,o),
(152,626,qs),
(126,626,o),
(99,660,o),
(104,686,qs),
(110,716,o),
(149,744,o),
(173,744,qs)
);
},
{
closed = 1;
nodes = (
(386,744,o),
(416,709,o),
(412,685,qs),
(408,661,o),
(365,626,o),
(341,626,qs),
(315,626,o),
(288,660,o),
(293,686,qs),
(299,716,o),
(338,744,o),
(362,744,qs)
);
}
);
width = 368;
},
{
layerId = "6E397364-29F0-430D-8798-B3D240BA8B9C";
shapes = (
{
closed = 1;
nodes = (
(200,753,o),
(231,717,o),
(227,690,q),
(222,663,o),
(178,627,o),
(151,627,q),
(123,627,o),
(93,662,o),
(98,690,q),
(103,723,o),
(150,753,o),
(173,753,q)
);
},
{
closed = 1;
nodes = (
(395,753,o),
(426,717,o),
(422,690,q),
(417,663,o),
(373,627,o),
(346,627,q),
(318,627,o),
(288,662,o),
(293,690,q),
(298,723,o),
(345,753,o),
(368,753,q)
);
}
);
width = 372;
},
{
layerId = "97194E86-8399-4162-8293-D906943AC4AA";
shapes = (
{
closed = 1;
nodes = (
(216,800,o),
(258,755,o),
(251,715,q),
(244,674,o),
(186,629,o),
(148,629,q),
(109,629,o),
(67,675,o),
(75,715,q),
(84,761,o),
(144,800,o),
(178,800,q)
);
},
{
closed = 1;
nodes = (
(442,800,o),
(484,755,o),
(477,715,q),
(470,674,o),
(412,629,o),
(374,629,q),
(335,629,o),
(293,675,o),
(301,715,q),
(310,761,o),
(370,800,o),
(404,800,q)
);
}
);
width = 394;
}
);
note = dieresis;
unicode = 168;
},
{
glyphname = copyright;
layers = (
{
layerId = m01;
shapes = (
{
closed = 1;
nodes = (
(72,467,o),
(210,647,o),
(408,753,o),
(513,753,qs),
(618,753,o),
(779,647,o),
(853,466,o),
(834,358,qs),
(815,249,o),
(682,69,o),
(486,-36,o),
(375,-36,qs),
(262,-36,o),
(101,56,o),
(31,236,o),
(54,362,qs)
);
},
{
closed = 1;
nodes = (
(785,446,o),
(724,596,o),
(590,684,o),
(502,684,qs),
(413,684,o),
(248,597,o),
(134,448,o),
(118,360,qs),
(102,267,o),
(149,119,o),
(280,33,o),
(387,33,qs),
(470,33,o),
(632,109,o),
(751,256,o),
(769,358,qs)
);
},
{
closed = 1;
nodes = (
(544,184,l),
(479,133,o),
(401,133,qs),
(339,133,o),
(252,194,o),
(217,300,o),
(229,366,qs),
(240,431,o),
(312,535,o),
(421,594,o),
(485,594,qs),
(526,594,o),
(591,568,o),
(611,549,q),
(597,468,l),
(576,493,o),
(513,522,o),
(478,522,qs),
(439,522,o),
(367,481,o),
(318,409,o),
(311,366,qs),
(299,297,o),
(360,205,o),
(425,205,qs),
(490,205,o),
(557,258,q)
);
}
);
width = 854;
},
{
layerId = "6E397364-29F0-430D-8798-B3D240BA8B9C";
shapes = (
{
closed = 1;
nodes = (
(70,463,o),
(206,641,o),
(401,747,o),
(505,747,q),
(609,747,o),
(768,642,o),
(841,463,o),
(822,357,q),
(803,251,o),
(669,72,o),
(473,-32,o),
(368,-32,q),
(253,-32,o),
(95,59,o),
(29,236,o),
(51,360,q)
);
},
{
closed = 1;
nodes = (
(777,446,o),
(716,595,o),
(583,682,o),
(494,682,q),
(406,682,o),
(241,595,o),
(128,447,o),
(112,359,q),
(96,266,o),
(143,118,o),
(274,32,o),
(380,32,q),
(454,32,o),
(618,109,o),
(743,257,o),
(761,357,q)
);
},
{
closed = 1;
nodes = (
(534,183,l),
(468,137,o),
(398,137,q),
(337,137,o),
(250,197,o),
(213,301,o),
(224,364,q),
(235,427,o),
(308,528,o),
(417,587,o),
(480,587,q),
(518,587,o),
(579,564,o),
(599,547,q),
(584,458,l),
(564,482,o),
(505,509,o),
(472,509,q),
(435,509,o),
(368,471,o),
(322,405,o),
(315,364,q),
(304,300,o),
(362,216,o),
(422,216,q),
(485,216,o),
(549,266,q)
);
}
);
width = 840;
},
{
layerId = "97194E86-8399-4162-8293-D906943AC4AA";
shapes = (
{
closed = 1;
nodes = (
(55,448,o),
(181,615,o),
(365,714,o),
(465,714,q),
(564,714,o),
(713,616,o),
(779,450,o),
(762,353,q),
(745,253,o),
(630,85,o),
(448,-14,o),
(335,-14,q),
(233,-14,o),
(84,71,o),
(18,236,o),
(38,351,q)
);
},
{
closed = 1;
nodes = (
(735,440,o),
(678,587,o),
(547,674,o),
(458,674,q),
(368,674,o),
(206,586,o),
(95,438,o),
(80,351,q),
(64,261,o),
(115,113,o),
(244,26,o),
(342,26,q),
(426,26,o),
(586,102,o),
(702,250,o),
(720,353,q)
);
},
{
closed = 1;
nodes = (
(481,178,l),
(427,155,o),
(379,155,q),
(323,155,o),
(236,210,o),
(196,302,o),
(205,355,q),
(214,408,o),
(288,499,o),
(397,554,o),
(456,554,q),
(481,554,o),
(524,544,o),
(541,534,q),
(518,405,l),
(504,421,o),
(465,441,o),
(441,441,q),
(416,441,o),
(371,418,o),
(340,379,o),
(336,355,q),
(329,319,o),
(372,268,o),
(407,268,q),
(457,268,o),
(504,304,q)
);
}
);
width = 769;
}
);
note = copyright;
unicode = 169;
},
{
glyphname = ordfeminine;
layers = (
{
layerId = m01;
shapes = (
{
closed = 1;
nodes = (
(75,562,o),
(150,611,o),
(206,611,qs),
(228,611,o),
(259,604,o),
(282,597,q),
(283,597,l),
(285,605,ls),
(291,640,o),
(256,675,o),
(219,675,qs),
(174,675,o),
(131,652,q),
(123,696,l),
(177,722,o),
(232,722,qs),
(288,722,o),
(346,663,o),
(336,605,qs),
(305,431,l),
(254,431,l),
(261,473,l),
(239,451,o),
(185,425,o),
(156,425,qs),
(115,425,o),
(59,470,o),
(67,515,qs)
);
},
{
closed = 1;
nodes = (
(297,356,l),
(288,304,l),
(20,304,l),
(36,356,l)
);
},
{
closed = 1;
nodes = (
(276,558,l),
(246,573,o),
(204,573,qs),
(168,573,o),
(123,544,o),
(118,518,qs),
(114,493,o),
(145,467,o),
(174,467,qs),
(210,467,o),
(265,499,o),
(273,537,qs)
);
}
);
width = 320;
},
{
layerId = "6E397364-29F0-430D-8798-B3D240BA8B9C";
shapes = (
{
closed = 1;
nodes = (
(76,561,o),
(150,609,o),
(206,609,q),
(227,609,o),
(258,603,o),
(281,596,q),
(282,596,l),
(283,603,l),
(289,636,o),
(256,669,o),
(220,669,q),
(176,669,o),
(132,647,q),
(125,696,l),
(182,722,o),
(236,722,q),
(296,722,o),
(354,662,o),
(343,602,q),
(313,429,l),
(253,429,l),
(260,469,l),
(238,447,o),
(185,423,o),
(157,423,q),
(113,423,o),
(60,468,o),
(68,514,q)
);
},
{
closed = 1;
nodes = (
(304,353,l),
(295,301,l),
(27,301,l),
(36,353,l)
);
},
{
closed = 1;
nodes = (
(275,555,l),
(244,569,o),
(208,569,q),
(174,569,o),
(133,542,o),
(128,517,q),
(124,494,o),
(153,469,o),
(180,469,q),
(218,469,o),
(265,499,o),
(272,536,q)
);
}
);
width = 326;
},
{
layerId = "97194E86-8399-4162-8293-D906943AC4AA";
shapes = (
{
closed = 1;
nodes = (
(77,553,o),
(146,599,o),
(202,599,q),
(223,599,o),
(258,593,o),
(270,588,q),
(271,588,l),
(271,592,l),
(276,616,o),
(250,641,o),
(220,641,q),
(180,641,o),
(135,624,q),
(127,698,l),
(185,721,o),
(251,721,q),
(328,721,o),
(385,656,o),
(374,589,q),
(344,419,l),
(240,419,l),
(246,451,l),
(226,433,o),
(180,413,o),
(152,413,q),
(110,413,o),
(60,459,o),
(68,506,q)
);
},
{
closed = 1;
nodes = (
(339,363,l),
(325,286,l),
(26,286,l),
(40,363,l)
);
},
{
closed = 1;
nodes = (
(263,541,l),
(243,549,o),
(224,549,q),
(203,549,o),
(173,529,o),
(170,513,q),
(168,498,o),
(184,479,o),
(200,479,q),
(221,479,o),
(256,503,o),
(261,528,q)
);
}
);
width = 354;
}
);
note = ordfeminine;
unicode = 170;
},
{
glyphname = guillemotleft;
layers = (
{
layerId = m01;
shapes = (
{
closed = 1;
nodes = (
(160,43,l),
(44,250,l),
(233,461,l),
(298,437,l),
(136,253,l),
(232,72,l)
);
},
{
closed = 1;
nodes = (
(369,43,l),
(253,250,l),
(442,461,l),
(507,437,l),
(345,253,l),
(441,72,l)
);
}
);
width = 534;
},
{
layerId = "6E397364-29F0-430D-8798-B3D240BA8B9C";
shapes = (
{
closed = 1;
nodes = (
(159,42,l),
(42,253,l),
(235,468,l),
(310,437,l),
(148,256,l),
(245,76,l)
);
},
{
closed = 1;
nodes = (
(379,42,l),
(262,253,l),
(455,468,l),
(530,437,l),
(368,256,l),
(465,76,l)
);
}
);
width = 555;
},
{
layerId = "97194E86-8399-4162-8293-D906943AC4AA";
shapes = (
{
closed = 1;
nodes = (
(165,37,l),
(32,268,l),
(247,500,l),
(377,439,l),
(217,268,l),
(317,98,l)
);
},
{
closed = 1;
nodes = (
(440,37,l),
(307,268,l),
(522,500,l),
(652,439,l),
(492,268,l),
(592,98,l)
);
}
);
width = 657;
}
);
note = guillemotleft;
unicode = 171;
},
{
glyphname = logicalnot;
layers = (
{
layerId = m01;
shapes = (
{
closed = 1;
nodes = (
(459,129,l),
(496,340,l),
(53,340,l),
(65,411,l),
(577,411,l),
(528,129,l)
);
}
);
width = 591;
},
{
layerId = "6E397364-29F0-430D-8798-B3D240BA8B9C";
shapes = (
{
closed = 1;
nodes = (
(455,128,l),
(490,330,l),
(58,330,l),
(73,412,l),
(587,412,l),
(537,128,l)
);
}
);
width = 607;
},
{
layerId = "97194E86-8399-4162-8293-D906943AC4AA";
shapes = (
{
closed = 1;
nodes = (
(435,125,l),
(462,277,l),
(81,277,l),
(105,416,l),
(633,416,l),
(582,125,l)
);
}
);
width = 686;
}
);
note = logicalnot;
unicode = 172;
},
{
glyphname = registered;
layers = (
{
layerId = m01;
shapes = (
{
closed = 1;
nodes = (
(560,712,o),
(707,616,o),
(775,453,o),
(758,357,qs),
(741,261,o),
(614,97,o),
(431,-1,o),
(336,-1,qs),
(238,-1,o),
(88,96,o),
(20,261,o),
(37,357,qs),
(55,457,o),
(178,619,o),
(361,712,o),
(465,712,qs)
);
},
{
closed = 1;
nodes = (
(427,60,o),
(577,141,o),
(680,279,o),
(694,358,qs),
(708,437,o),
(652,572,o),
(531,651,o),
(453,651,qs),
(371,651,o),
(218,572,o),
(114,438,o),
(101,357,qs),
(87,272,o),
(131,137,o),
(251,60,o),
(347,60,qs)
);
},
{
closed = 1;
nodes = (
(448,570,ls),
(501,570,o),
(561,506,o),
(552,454,qs),
(544,408,o),
(470,341,o),
(424,332,q),
(541,143,l),
(457,143,l),
(347,324,l),
(334,324,l),
(302,143,l),
(231,143,l),
(307,570,l)
);
},
{
closed = 1;
nodes = (
(400,389,ls),
(433,389,o),
(482,421,o),
(487,448,qs),
(491,473,o),
(459,509,o),
(423,509,qs),
(367,509,l),
(346,389,l)
);
}
);
width = 762;
},
{
layerId = "6E397364-29F0-430D-8798-B3D240BA8B9C";
shapes = (
{
closed = 1;
nodes = (
(560,713,o),
(708,617,o),
(775,453,o),
(758,357,q),
(741,261,o),
(614,96,o),
(431,-2,o),
(336,-2,q),
(238,-2,o),
(90,95,o),
(22,259,o),
(37,357,q),
(53,457,o),
(168,620,o),
(351,713,o),
(464,713,q)
);
},
{
closed = 1;
nodes = (
(428,55,o),
(580,138,o),
(684,277,o),
(698,358,q),
(712,439,o),
(656,576,o),
(534,656,o),
(454,656,q),
(361,656,o),
(207,577,o),
(109,440,o),
(97,356,q),
(84,269,o),
(128,133,o),
(249,55,o),
(346,55,q)
);
},
{
closed = 1;
nodes = (
(448,568,l),
(505,568,o),
(569,502,o),
(559,449,q),
(551,403,o),
(481,338,o),
(435,328,q),
(544,148,l),
(454,148,l),
(353,318,l),
(334,318,l),
(304,148,l),
(227,148,l),
(301,568,l)
);
},
{
closed = 1;
nodes = (
(403,386,l),
(434,386,o),
(482,417,o),
(486,443,q),
(491,468,o),
(460,502,o),
(425,502,q),
(367,502,l),
(346,386,l)
);
}
);
width = 762;
},
{
layerId = "97194E86-8399-4162-8293-D906943AC4AA";
shapes = (
{
closed = 1;
nodes = (
(561,719,o),
(709,620,o),
(775,453,o),
(758,355,q),
(741,258,o),
(614,90,o),
(430,-9,o),
(330,-9,q),
(219,-9,o),
(73,88,o),
(17,254,o),
(34,355,q),
(52,459,o),
(173,625,o),
(355,719,o),
(461,719,q)
);
},
{
closed = 1;
nodes = (
(427,31,o),
(589,119,o),
(700,268,o),
(716,357,q),
(731,445,o),
(674,592,o),
(543,679,o),
(454,679,q),
(351,679,o),
(187,582,o),
(88,432,o),
(75,353,q),
(61,267,o),
(104,121,o),
(230,31,o),
(337,31,q)
);
},
{
closed = 1;
nodes = (
(451,558,l),
(530,558,o),
(602,485,o),
(591,425,q),
(584,384,o),
(531,323,o),
(491,307,q),
(560,173,l),
(437,173,l),
(379,290,l),
(332,290,l),
(312,173,l),
(205,173,l),
(272,558,l)
);
},
{
closed = 1;
nodes = (
(417,373,l),
(443,373,o),
(479,399,o),
(483,420,q),
(487,440,o),
(459,466,o),
(432,466,q),
(363,466,l),
(347,373,l)
);
}
);
width = 762;
}
);
note = registered;
unicode = 174;
},
{
glyphname = degree;
layers = (
{
layerId = m01;
shapes = (
{
closed = 1;
nodes = (
(174,431,o),
(112,470,o),
(84,537,o),
(91,576,qs),
(98,616,o),
(146,683,o),
(220,723,o),
(264,723,qs),
(305,723,o),
(366,684,o),
(393,617,o),
(387,577,qs),
(380,535,o),
(335,469,o),
(261,431,o),
(213,431,qs)
);
},
{
closed = 1;
nodes = (
(214,669,o),
(154,614,o),
(148,577,qs),
(141,538,o),
(184,485,o),
(223,485,qs),
(263,485,o),
(325,536,o),
(330,577,qs),
(336,627,o),
(287,669,o),
(255,669,qs)
);
}
);
width = 370;
},
{
layerId = "6E397364-29F0-430D-8798-B3D240BA8B9C";
shapes = (
{
closed = 1;
nodes = (
(177.455,425,o),
(113,465,o),
(83,534.295,o),
(90,574.63,q),
(97,616,o),
(150,686,o),
(228,727,o),
(271,727,q),
(313.206,727,o),
(376,687,o),
(405,618,o),
(398,576,q),
(390.731,532.833,o),
(344,465,o),
(267,425,o),
(218,425,q)
);
},
{
closed = 1;
nodes = (
(223,667,o),
(161.182,612.598,o),
(155,576,q),
(148,537.424,o),
(190.374,485,o),
(228.696,485,q),
(268,485,o),
(328,535,o),
(334.818,576,q),
(343,626,o),
(294,667,o),
(261,667,q)
);
}
);
width = 379;
},
{
layerId = "97194E86-8399-4162-8293-D906943AC4AA";
shapes = (
{
closed = 1;
nodes = (
(185,393,o),
(110,441,o),
(76,523,o),
(84,571,q),
(92,619,o),
(154,700,o),
(246,748,o),
(297,748,q),
(345,748,o),
(419,702,o),
(455,621,o),
(448,571,q),
(441,522,o),
(384,440,o),
(291,393,o),
(234,393,q)
);
},
{
closed = 1;
nodes = (
(243,656,o),
(188,608,o),
(182,571,q),
(175,536,o),
(215,485,o),
(251,485,q),
(287,485,o),
(345,536,o),
(350,571,q),
(357,618,o),
(312,656,o),
(281,656,q)
);
}
);
width = 425;
}
);
note = degree;
unicode = 176;
},
{
glyphname = plusminus;
layers = (
{
layerId = m01;
shapes = (
{
closed = 1;
nodes = (
(286,409,l),
(315,573,l),
(384,573,l),
(355,409,l),
(569,409,l),
(557,339,l),
(343,339,l),
(315,181,l),
(246,181,l),
(274,339,l),
(60,339,l),
(72,409,l)
);
},
{
closed = 1;
nodes = (
(515,104,l),
(503,34,l),
(6,34,l),
(18,104,l)
);
}
);
width = 591;
},
{
layerId = "6E397364-29F0-430D-8798-B3D240BA8B9C";
shapes = (
{
closed = 1;
nodes = (
(286,416,l),
(315,577,l),
(394,577,l),
(365,416,l),
(572,416,l),
(558,336,l),
(351,336,l),
(324,180,l),
(245,180,l),
(272,336,l),
(65,336,l),
(79,416,l)
);
},
{
closed = 1;
nodes = (
(518,108,l),
(504,28,l),
(11,28,l),
(25,108,l)
);
}
);
width = 599;
},
{
layerId = "97194E86-8399-4162-8293-D906943AC4AA";
shapes = (
{
closed = 1;
nodes = (
(286,452,l),
(311,596,l),
(444,596,l),
(419,452,l),
(588,452,l),
(565,323,l),
(396,323,l),
(370,173,l),
(237,173,l),
(263,323,l),
(91,323,l),
(114,452,l)
);
},
{
closed = 1;
nodes = (
(531,129,l),
(508,0,l),
(34,0,l),
(57,129,l)
);
}
);
width = 636;
}
);
note = plusminus;
unicode = 177;
},
{
glyphname = uni00B2;
layers = (
{
layerId = m01;
shapes = (
{
closed = 1;
nodes = (
(159,429,l),
(174,444,ls),
(238,509,o),
(286,573,o),
(290,598,qs),
(295,626,o),
(265,663,o),
(237,663,qs),
(220,663,o),
(178,643,o),
(157,621,q),
(126,669,l),
(165,698,o),
(219,720,o),
(250,720,qs),
(290,720,o),
(343,689,o),
(365,634,o),
(358,598,qs),
(352,559,o),
(297,489,o),
(218,411,qs),
(150,342,l),
(315,342,l),
(274,285,l),
(16,285,l)
);
}
);
width = 333;
},
{
layerId = "6E397364-29F0-430D-8798-B3D240BA8B9C";
shapes = (
{
closed = 1;
nodes = (
(165,429,l),
(179,442,l),
(240,503,o),
(291,567,o),
(296,593,q),
(301,620,o),
(272,656,o),
(245,656,q),
(226,656,o),
(188,633,o),
(169,610,q),
(121,650,l),
(157,689,o),
(218,720,o),
(259,720,q),
(299,720,o),
(356,688,o),
(380,631,o),
(374,594,q),
(366,553,o),
(310,482,o),
(233,410,q),
(169,348,l),
(333,349,l),
(296,285,l),
(17,285,l)
);
}
);
width = 349;
},
{
layerId = "97194E86-8399-4162-8293-D906943AC4AA";
shapes = (
{
closed = 1;
nodes = (
(196,428,l),
(202,433,l),
(248,468,o),
(315,536,o),
(321,569,q),
(325,591,o),
(304,619,o),
(282,619,q),
(256,619,o),
(228,582,o),
(223,555,q),
(94,555,l),
(115,635,o),
(216,717,o),
(302,717,q),
(347,717,o),
(421,682,o),
(458,616,o),
(450,574,q),
(441,522,o),
(366,440,o),
(306,404,q),
(262,378,l),
(421,386,l),
(403,285,l),
(21,285,l)
);
}
);
width = 430;
}
);
note = uni00B2;
unicode = 178;
},
{
glyphname = uni00B3;
layers = (
{
layerId = m01;
shapes = (
{
closed = 1;
nodes = (
(101,419,l),
(92,372,o),
(134,334,o),
(165,334,qs),
(202,334,o),
(261,382,o),
(268,417,qs),
(273,450,o),
(232,496,o),
(176,496,qs),
(152,496,l),
(162,552,l),
(181,552,ls),
(219,552,o),
(274,588,o),
(279,615,qs),
(283,637,o),
(255,667,o),
(229,667,qs),
(205,667,o),
(169,639,o),
(163,614,q),
(98,614,l),
(109,672,o),
(188,723,o),
(236,723,qs),
(274,723,o),
(327,698,o),
(350,652,o),
(344,620,qs),
(339,590,o),
(302,548,o),
(269,528,q),
(308,511,o),
(339,458,o),
(332,418,qs),
(321,356,o),
(223,278,o),
(160,278,qs),
(98,278,o),
(23,349,o),
(36,419,q)
);
}
);
width = 330;
},
{
layerId = "6E397364-29F0-430D-8798-B3D240BA8B9C";
shapes = (
{
closed = 1;
nodes = (
(110,434,l),
(100,381,o),
(148,340,o),
(183,340,q),
(222,340,o),
(278,385,o),
(284,419,q),
(289,451,o),
(253,493,o),
(201,493,q),
(178,492,l),
(188,551,l),
(205,551,l),
(240,551,o),
(293,585,o),
(297,611,q),
(300,632,o),
(273,661,o),
(247,661,q),
(221,661,o),
(181,630,o),
(174,602,q),
(102,602,l),
(114,666,o),
(202,723,o),
(258,723,q),
(296,723,o),
(352,698,o),
(378,650,o),
(372,617,q),
(366,587,o),
(330,545,o),
(298,526,q),
(335,509,o),
(366,455,o),
(359,417,q),
(348,355,o),
(244,278,o),
(174,278,q),
(106,278,o),
(24,356,o),
(38,434,q)
);
}
);
width = 311;
},
{
layerId = "97194E86-8399-4162-8293-D906943AC4AA";
shapes = (
{
closed = 1;
nodes = (
(166,424,l),
(162,400,o),
(187,369,o),
(213,369,q),
(236,369,o),
(273,401,o),
(277,426,q),
(281,449,o),
(257,475,o),
(235,475,q),
(212,474,l),
(224,547,l),
(236,547,l),
(255,547,o),
(286,572,o),
(290,592,q),
(293,610,o),
(276,632,o),
(258,632,q),
(237,632,o),
(212,606,o),
(209,589,q),
(84,589,l),
(101,653,o),
(210,721,o),
(277,721,q),
(318,721,o),
(386,693,o),
(423,639,o),
(416,601,q),
(411,574,o),
(377,527,o),
(351,515,q),
(381,501,o),
(407,447,o),
(401,414,q),
(390,348,o),
(271,279,o),
(196,279,q),
(118,279,o),
(29,355,o),
(38,424,q)
);
}
);
width = 398;
}
);
note = uni00B3;
unicode = 179;
},
{
glyphname = acute;
layers = (
{
layerId = m01;
shapes = (
{
closed = 1;
nodes = (
(294,745,l),
(144,616,l),
(85,616,l),
(202,765,l)
);
}
);
width = 233;
},
{
layerId = "6E397364-29F0-430D-8798-B3D240BA8B9C";
shapes = (
{
closed = 1;
nodes = (
(306,745,l),
(153,616,l),
(81,616,l),
(201,771,l)
);
}
);
width = 239;
},
{
layerId = "97194E86-8399-4162-8293-D906943AC4AA";
shapes = (
{
closed = 1;
nodes = (
(369,744,l),
(200,616,l),
(66,616,l),
(202,801,l)
);
}
);
width = 269;
}
);
note = acute;
unicode = 180;
},
{
glyphname = uni00B5;
layers = (
{
layerId = m01;
shapes = (
{
closed = 1;
nodes = (
(119,64,l),
(131,27,o),
(185,-10,o),
(222,-10,qs),
(262,-10,o),
(340,30,o),
(368,62,q),
(440,0,l),
(525,483,l),
(443,483,l),
(394,204,ls),
(382,135,o),
(293,61,o),
(235,61,qs),
(188,61,o),
(132,133,o),
(144,204,qs),
(193,483,l),
(111,483,l),
(-7,-188,l),
(75,-188,l)
);
}
);
width = 564;
},
{
layerId = "6E397364-29F0-430D-8798-B3D240BA8B9C";
shapes = (
{
closed = 1;
nodes = (
(132,59,l),
(143,25,o),
(193,-10,o),
(228,-10,q),
(267,-10,o),
(340,31,o),
(366,64,q),
(456,0,l),
(543,493,l),
(443,493,l),
(393,211,l),
(382,146,o),
(299,77,o),
(245,77,q),
(200,77,o),
(147,145,o),
(159,211,q),
(209,493,l),
(109,493,l),
(-10,-183,l),
(90,-183,l)
);
}
);
width = 576;
},
{
layerId = "97194E86-8399-4162-8293-D906943AC4AA";
shapes = (
{
closed = 1;
nodes = (
(196,36,l),
(202,16,o),
(235,-12,o),
(258,-12,q),
(285,-12,o),
(336,30,o),
(359,74,q),
(536,0,l),
(631,541,l),
(441,541,l),
(390,248,l),
(382,205,o),
(330,157,o),
(295,157,q),
(260,157,o),
(226,205,o),
(234,248,q),
(285,541,l),
(95,541,l),
(-28,-160,l),
(162,-160,l)
);
}
);
width = 634;
}
);
note = uni00B5;
unicode = 181;
},
{
glyphname = paragraph;
layers = (
{
layerId = m01;
shapes = (
{
closed = 1;
nodes = (
(223,361,l),
(172,372,o),
(105,405,o),
(70,474,o),
(80,532,qs),
(95,616,o),
(215,706,o),
(307,706,qs),
(575,706,l),
(559,625,l),
(522,625,l),
(394,-104,l),
(315,-104,l),
(443,625,l),
(348,625,l),
(220,-104,l),
(141,-104,l)
);
}
);
width = 632;
},
{
layerId = "6E397364-29F0-430D-8798-B3D240BA8B9C";
shapes = (
{
closed = 1;
nodes = (
(225,352,l),
(176,361,o),
(106,400,o),
(72,472,o),
(81,527,q),
(96,613,o),
(219,706,o),
(314,706,q),
(588,706,l),
(574,622,l),
(532,622,l),
(403,-106,l),
(318,-106,l),
(447,622,l),
(358,622,l),
(229,-106,l),
(144,-106,l)
);
}
);
width = 634;
},
{
layerId = "97194E86-8399-4162-8293-D906943AC4AA";
shapes = (
{
closed = 1;
nodes = (
(236,308,l),
(183,315,o),
(107,365,o),
(74,448,o),
(84,502,q),
(101,597,o),
(239,706,o),
(349,706,q),
(647,706,l),
(630,604,l),
(575,604,l),
(448,-113,l),
(336,-113,l),
(463,604,l),
(401,604,l),
(274,-113,l),
(162,-113,l)
);
}
);
width = 641;
}
);
note = paragraph;
unicode = 182;
},
{
glyphname = periodcentered;
layers = (
{
layerId = m01;
shapes = (
{
closed = 1;
nodes = (
(194,411,o),
(223,376,o),
(219,352,qs),
(214,327,o),
(173,291,o),
(149,291,qs),
(124,291,o),
(95,327,o),
(100,352,qs),
(105,384,o),
(147,411,o),
(170,411,qs)
);
}
);
width = 290;
},
{
layerId = "6E397364-29F0-430D-8798-B3D240BA8B9C";
shapes = (
{
closed = 1;
nodes = (
(206,424,o),
(239,385,o),
(234,356,q),
(229,326,o),
(184,287,o),
(154,287,q),
(125,287,o),
(92,327,o),
(97,356,q),
(103,394,o),
(152,424,o),
(178,424,q)
);
}
);
width = 300;
},
{
layerId = "97194E86-8399-4162-8293-D906943AC4AA";
shapes = (
{
closed = 1;
nodes = (
(263,488,o),
(316,431,o),
(307,379,q),
(298,327,o),
(224,269,o),
(174,269,q),
(124,269,o),
(72,327,o),
(82,379,q),
(93,440,o),
(172,488,o),
(213,488,q)
);
}
);
width = 349;
}
);
note = periodcentered;
unicode = 183;
},
{
glyphname = cedilla;
layers = (
{
layerId = m01;
shapes = (
{
closed = 1;
nodes = (
(93,-70,ls),
(124,-70,o),
(167,-100,o),
(161,-135,qs),
(153,-178,o),
(72,-221,o),
(26,-221,qs),
(-16,-221,o),
(-53,-201,q),
(-35,-160,l),
(-9,-170,o),
(12,-170,qs),
(35,-170,o),
(81,-148,o),
(85,-125,qs),
(87,-110,o),
(67,-94,o),
(49,-94,qs),
(35,-94,o),
(17,-101,q),
(2,-88,l),
(78,0,l),
(143,0,l),
(90,-70,l)
);
}
);
width = 273;
},
{
layerId = "6E397364-29F0-430D-8798-B3D240BA8B9C";
shapes = (
{
closed = 1;
nodes = (
(104,-70,l),
(136,-70,o),
(180,-102,o),
(174,-138,q),
(166,-182,o),
(83,-225,o),
(37,-225,q),
(-6,-225,o),
(-46,-204,q),
(-24,-161,l),
(1,-172,o),
(26,-172,q),
(48,-172,o),
(92,-151,o),
(96,-129,q),
(99,-114,o),
(81,-99,o),
(62,-99,q),
(48,-99,o),
(26,-107,q),
(10,-92,l),
(88,0,l),
(154,0,l),
(100,-70,l)
);
}
);
width = 290;
},
{
layerId = "97194E86-8399-4162-8293-D906943AC4AA";
shapes = (
{
closed = 1;
nodes = (
(155,-68,l),
(191,-68,o),
(239,-111,o),
(233,-150,q),
(224,-200,o),
(139,-246,o),
(90,-246,q),
(35,-246,o),
(-14,-220,q),
(22,-164,l),
(55,-180,o),
(91,-180,q),
(110,-180,o),
(147,-165,o),
(149,-151,q),
(151,-139,o),
(133,-126,o),
(115,-126,q),
(92,-126,o),
(68,-136,q),
(42,-110,l),
(131,0,l),
(201,0,l),
(147,-68,l)
);
}
);
width = 372;
}
);
note = cedilla;
unicode = 184;
},
{
glyphname = uni00B9;
layers = (
{
layerId = m01;
shapes = (
{
closed = 1;
nodes = (
(142,619,l),
(114,586,o),
(75,562,q),
(87,631,l),
(98,639,o),
(125,661,qs),
(153,686,o),
(173,714,q),
(227,714,l),
(151,286,l),
(83,286,l)
);
}
);
width = 219;
},
{
layerId = "6E397364-29F0-430D-8798-B3D240BA8B9C";
shapes = (
{
closed = 1;
nodes = (
(147,617,l),
(117,588,o),
(80,569,q),
(93,643,l),
(111,656,o),
(129,668,q),
(161,692,o),
(182,713,q),
(242,713,l),
(166,286,l),
(88,286,l)
);
}
);
width = 240;
},
{
layerId = "97194E86-8399-4162-8293-D906943AC4AA";
shapes = (
{
closed = 1;
nodes = (
(171,604,l),
(139,603,o),
(106,602,q),
(124,704,l),
(137,705,o),
(150,705,q),
(189,706,o),
(227,706,q),
(318,708,l),
(243,285,l),
(115,285,l)
);
}
);
width = 347;
}
);
note = uni00B9;
unicode = 185;
},
{
glyphname = ordmasculine;
layers = (
{
layerId = m01;
shapes = (
{
closed = 1;
nodes = (
(80,613,o),
(131,682,o),
(206,723,o),
(248,723,qs),
(289,723,o),
(350,682,o),
(376,614,o),
(370,576,qs),
(362,534,o),
(314,464,o),
(240,423,o),
(194,423,qs),
(155,423,o),
(94,458,o),
(65,525,o),
(73,572,qs)
);
},
{
closed = 1;
nodes = (
(327,356,l),
(318,304,l),
(30,304,l),
(39,356,l)
);
},
{
closed = 1;
nodes = (
(323,617,o),
(280,673,o),
(238,673,qs),
(197,673,o),
(135,616,o),
(128,576,qs),
(120,533,o),
(163,476,o),
(205,476,qs),
(238,476,o),
(286,510,o),
(312,554,o),
(315,572,qs)
);
}
);
width = 336;
},
{
layerId = "6E397364-29F0-430D-8798-B3D240BA8B9C";
shapes = (
{
closed = 1;
nodes = (
(82,613,o),
(133,682,o),
(209,723,o),
(252,723,q),
(294,723,o),
(355,682,o),
(382,614,o),
(375,575,q),
(368,533,o),
(320,463,o),
(244,422,o),
(197,422,q),
(159,422,o),
(97,457,o),
(67,525,o),
(75,572,q)
);
},
{
closed = 1;
nodes = (
(330,354,l),
(321,302,l),
(33,302,l),
(42,354,l)
);
},
{
closed = 1;
nodes = (
(320,614,o),
(280,667,o),
(241,667,q),
(201,667,o),
(144,613,o),
(137,575,q),
(130,533,o),
(170,478,o),
(209,478,q),
(243,478,o),
(288,511,o),
(310,554,o),
(313,572,q)
);
}
);
width = 342;
},
{
layerId = "97194E86-8399-4162-8293-D906943AC4AA";
shapes = (
{
closed = 1;
nodes = (
(83,611,o),
(139,682,o),
(222,724,o),
(267,724,q),
(313,724,o),
(379,683,o),
(408,612,o),
(401,570,q),
(394,528,o),
(338,456,o),
(256,414,o),
(210,414,q),
(165,414,o),
(98,449,o),
(67,519,o),
(76,569,q)
);
},
{
closed = 1;
nodes = (
(347,366,l),
(333,289,l),
(45,289,l),
(59,366,l)
);
},
{
closed = 1;
nodes = (
(303,596,o),
(276,635,o),
(249,635,q),
(223,635,o),
(184,598,o),
(179,570,q),
(174,542,o),
(201,503,o),
(228,503,q),
(243,503,o),
(272,517,o),
(294,547,o),
(298,569,q)
);
}
);
width = 370;
}
);
note = ordmasculine;
unicode = 186;
},
{
glyphname = guillemotright;
layers = (
{
layerId = m01;
shapes = (
{
closed = 1;
nodes = (
(81,437,l),
(154,461,l),
(269,250,l),
(81,43,l),
(19,72,l),
(179,253,l)
);
},
{
closed = 1;
nodes = (
(289,437,l),
(362,461,l),
(477,250,l),
(289,43,l),
(227,72,l),
(387,253,l)
);
}
);
width = 534;
},
{
layerId = "6E397364-29F0-430D-8798-B3D240BA8B9C";
shapes = (
{
closed = 1;
nodes = (
(79,437,l),
(166,468,l),
(283,253,l),
(90,42,l),
(16,76,l),
(177,256,l)
);
},
{
closed = 1;
nodes = (
(298,437,l),
(385,468,l),
(503,253,l),
(309,42,l),
(236,76,l),
(396,256,l)
);
}
);
width = 555;
},
{
layerId = "97194E86-8399-4162-8293-D906943AC4AA";
shapes = (
{
closed = 1;
nodes = (
(66,439,l),
(218,500,l),
(351,268,l),
(138,37,l),
(6,98,l),
(166,268,l)
);
},
{
closed = 1;
nodes = (
(342,439,l),
(494,500,l),
(627,268,l),
(414,37,l),
(282,98,l),
(442,268,l)
);
}
);
width = 659;
}
);
note = guillemotright;
unicode = 187;
},
{
glyphname = questiondown;
layers = (
{
layerId = m01;
shapes = (
{
closed = 1;
nodes = (
(317,-125,l),
(288,-156,o),
(198,-193,o),
(148,-193,qs),
(95,-193,o),
(21,-151,o),
(-9,-76,o),
(0,-27,qs),
(6,9,o),
(40,73,o),
(89,126,o),
(121,150,qs),
(169,187,o),
(214,252,o),
(222,302,qs),
(227,334,l),
(309,334,l),
(299,272,ls),
(290,215,o),
(226,137,o),
(173,95,qs),
(132,62,o),
(89,12,o),
(83,-20,qs),
(76,-59,o),
(122,-117,o),
(171,-117,qs),
(212,-117,o),
(297,-70,o),
(334,-28,q)
);
},
{
closed = 1;
nodes = (
(253,415,o),
(222,451,o),
(227,474,qs),
(231,500,o),
(273,533,o),
(299,533,qs),
(324,533,o),
(353,500,o),
(348,473,qs),
(343,448,o),
(305,415,o),
(278,415,qs)
);
}
);
width = 437;
},
{
layerId = "6E397364-29F0-430D-8798-B3D240BA8B9C";
shapes = (
{
closed = 1;
nodes = (
(336,-120,l),
(303,-154,o),
(209,-193,o),
(156,-193,q),
(101,-193,o),
(24,-151,o),
(-10,-73,o),
(-1,-21,q),
(6,17,o),
(41,80,o),
(91,132,o),
(124,157,q),
(168,191,o),
(209,249,o),
(218,296,q),
(224,328,l),
(322,328,l),
(311,269,l),
(300,212,o),
(239,137,o),
(188,96,q),
(149,65,o),
(106,17,o),
(101,-13,q),
(95,-49,o),
(140,-102,o),
(186,-102,q),
(228,-102,o),
(314,-56,o),
(354,-13,q)
);
},
{
closed = 1;
nodes = (
(252,402,o),
(218,440,o),
(223,467,q),
(228,497,o),
(274,533,o),
(304,533,q),
(332,533,o),
(363,497,o),
(359,467,q),
(354,438,o),
(311,402,o),
(281,402,q)
);
}
);
width = 452;
},
{
layerId = "97194E86-8399-4162-8293-D906943AC4AA";
shapes = (
{
closed = 1;
nodes = (
(423,-94,l),
(377,-143,o),
(258,-190,o),
(192,-190,q),
(129,-190,o),
(30,-142,o),
(-19,-50,o),
(-8,13,q),
(0,56,o),
(38,117,o),
(91,162,o),
(137,194,q),
(167,214,o),
(189,243,o),
(194,270,q),
(200,301,l),
(374,301,l),
(366,258,l),
(356,204,o),
(297,134,o),
(251,102,q),
(224,83,o),
(188,45,o),
(185,25,q),
(180,-1,o),
(224,-28,o),
(256,-28,q),
(300,-28,o),
(397,21,o),
(451,64,q)
);
},
{
closed = 1;
nodes = (
(239,339,o),
(187,389,o),
(195,435,q),
(203,481,o),
(273,532,o),
(320,532,q),
(367,532,o),
(419,481,o),
(410,435,q),
(400,382,o),
(329,339,o),
(286,339,q)
);
}
);
width = 524;
}
);
note = questiondown;
unicode = 191;
},
{
glyphname = AE;
layers = (
{
layerId = m01;
shapes = (
{
closed = 1;
nodes = (
(992,705,l),
(979,629,l),
(605,629,l),
(564,397,l),
(909,397,l),
(896,321,l),
(551,321,l),
(507,76,l),
(892,76,l),
(879,0,l),
(408,0,l),
(443,197,l),
(194,197,l),
(39,0,l),
(-52,0,l),
(507,705,l)
);
},
{
closed = 1;
nodes = (
(514,602,l),
(253,272,l),
(456,272,l)
);
}
);
width = 926;
},
{
layerId = "6E397364-29F0-430D-8798-B3D240BA8B9C";
shapes = (
{
closed = 1;
nodes = (
(1008,704,l),
(992,613,l),
(618,613,l),
(581,402,l),
(925,402,l),
(909,314,l),
(565,314,l),
(526,91,l),
(910,91,l),
(894,0,l),
(406,0,l),
(439,185,l),
(200,185,l),
(57,0,l),
(-53,0,l),
(484,704,l)
);
},
{
closed = 1;
nodes = (
(512,599,l),
(263,273,l),
(454,273,l)
);
}
);
width = 940;
},
{
layerId = "97194E86-8399-4162-8293-D906943AC4AA";
shapes = (
{
closed = 1;
nodes = (
(1086,700,l),
(1057,535,l),
(684,535,l),
(666,429,l),
(1004,429,l),
(977,276,l),
(639,276,l),
(619,165,l),
(997,165,l),
(968,0,l),
(398,0,l),
(420,125,l),
(230,125,l),
(149,0,l),
(-55,0,l),
(366,700,l)
);
},
{
closed = 1;
nodes = (
(501,582,l),
(314,276,l),
(447,276,l)
);
}
);
width = 1007;
}
);
note = AE;
unicode = 198;
},
{
glyphname = Eth;
layers = (
{
layerId = m01;
shapes = (
{
closed = 1;
nodes = (
(410,705,ls),
(517,705,o),
(673,617,o),
(743,457,o),
(724,353,qs),
(706,250,o),
(584,90,o),
(397,0,o),
(285,0,qs),
(65,0,l),
(189,705,l)
);
},
{
closed = 1;
nodes = (
(294,76,ls),
(386,76,o),
(530,146,o),
(620,270,o),
(634,351,qs),
(646,419,o),
(611,547,o),
(515,628,o),
(440,628,qs),
(261,628,l),
(163,76,l)
);
},
{
closed = 1;
nodes = (
(25,319,l),
(39,396,l),
(310,396,l),
(296,319,l)
);
}
);
width = 761;
},
{
layerId = "6E397364-29F0-430D-8798-B3D240BA8B9C";
shapes = (
{
closed = 1;
nodes = (
(413,704,l),
(522,704,o),
(680,617,o),
(749,457,o),
(730,353,q),
(712,251,o),
(590,90,o),
(402,0,o),
(288,0,q),
(60,0,l),
(184,704,l)
);
},
{
closed = 1;
nodes = (
(301,92,l),
(387,92,o),
(523,157,o),
(608,275,o),
(622,351,q),
(633,417,o),
(598,537,o),
(505,611,o),
(433,611,q),
(271,611,l),
(179,92,l)
);
},
{
closed = 1;
nodes = (
(22,307,l),
(38,399,l),
(318,399,l),
(302,307,l)
);
}
);
width = 765;
},
{
layerId = "97194E86-8399-4162-8293-D906943AC4AA";
shapes = (
{
closed = 1;
nodes = (
(427,700,l),
(550,700,o),
(713,613,o),
(779,456,o),
(761,354,q),
(743,252,o),
(620,92,o),
(423,0,o),
(300,0,q),
(34,0,l),
(157,700,l)
);
},
{
closed = 1;
nodes = (
(337,172,l),
(395,172,o),
(490,215,o),
(552,295,o),
(562,351,q),
(572,406,o),
(538,486,o),
(458,528,o),
(400,528,q),
(321,528,l),
(258,172,l)
);
},
{
closed = 1;
nodes = (
(4,249,l),
(33,416,l),
(361,416,l),
(332,249,l)
);
}
);
width = 784;
}
);
note = Eth;
unicode = 208;
},
{
glyphname = multiply;
layers = (
{
layerId = m01;
shapes = (
{
closed = 1;
nodes = (
(134,533,l),
(192,583,l),
(342,399,l),
(557,583,l),
(598,533,l),
(384,351,l),
(534,168,l),
(475,117,l),
(325,301,l),
(110,117,l),
(68,167,l),
(285,351,l)
);
}
);
width = 638;
},
{
layerId = "6E397364-29F0-430D-8798-B3D240BA8B9C";
shapes = (
{
closed = 1;
nodes = (
(134,528,l),
(203,588,l),
(349,408,l),
(559,588,l),
(607,528,l),
(399,351,l),
(545,173,l),
(475,113,l),
(328,292,l),
(119,113,l),
(70,172,l),
(281,351,l)
);
}
);
width = 648;
},
{
layerId = "97194E86-8399-4162-8293-D906943AC4AA";
shapes = (
{
closed = 1;
nodes = (
(132,505,l),
(257,610,l),
(384,455,l),
(566,610,l),
(652,505,l),
(471,350,l),
(597,195,l),
(474,90,l),
(347,245,l),
(165,90,l),
(77,195,l),
(261,350,l)
);
}
);
width = 700;
}
);
note = multiply;
unicode = 215;
},
{
glyphname = Oslash;
layers = (
{
layerId = m01;
shapes = (
{
closed = 1;
nodes = (
(109,112,l),
(75,160,o),
(54,282,o),
(66,351,qs),
(84,452,o),
(209,621,o),
(395,719,o),
(499,719,qs),
(629,719,o),
(718,635,q),
(812,716,l),
(851,679,l),
(752,594,l),
(786,545,o),
(810,422,o),
(797,354,qs),
(780,253,o),
(656,85,o),
(471,-14,o),
(368,-14,qs),
(231,-14,o),
(144,71,q),
(54,-6,l),
(20,36,l)
);
},
{
closed = 1;
nodes = (
(650,577,l),
(619,608,o),
(533,642,o),
(484,642,qs),
(403,642,o),
(262,565,o),
(167,434,o),
(153,354,qs),
(136,249,o),
(178,172,q)
);
},
{
closed = 1;
nodes = (
(211,129,l),
(241,96,o),
(331,63,o),
(382,63,qs),
(462,63,o),
(602,140,o),
(696,271,o),
(710,350,qs),
(728,456,o),
(682,534,q)
);
}
);
width = 833;
},
{
layerId = "6E397364-29F0-430D-8798-B3D240BA8B9C";
shapes = (
{
closed = 1;
nodes = (
(117,101,l),
(77,150,o),
(50,277,o),
(63,351,q),
(81,452,o),
(207,620,o),
(393,718,o),
(497,718,q),
(614,718,o),
(696,646,q),
(785,730,l),
(828,685,l),
(743,603,l),
(783,554,o),
(811,426,o),
(798,354,q),
(781,253,o),
(656,85,o),
(471,-14,o),
(367,-14,q),
(243,-14,o),
(165,58,q),
(77,-26,l),
(34,19,l)
);
},
{
closed = 1;
nodes = (
(621,571,l),
(590,598,o),
(515,625,o),
(470,624,q),
(397,623,o),
(268,548,o),
(181,423,o),
(169,350,q),
(152,254,o),
(194,180,q)
);
},
{
closed = 1;
nodes = (
(240,134,l),
(274,106,o),
(347,80,o),
(394,81,q),
(468,84,o),
(595,157,o),
(679,277,o),
(692,350,q),
(710,448,o),
(666,523,q)
);
}
);
width = 831;
},
{
layerId = "97194E86-8399-4162-8293-D906943AC4AA";
shapes = (
{
closed = 1;
nodes = (
(155,47,l),
(88,99,o),
(29,256,o),
(46,350,q),
(63,449,o),
(191,616,o),
(381,714,o),
(487,714,q),
(538,714,o),
(584,702,q),
(647,798,l),
(753,728,l),
(700,645,l),
(763,594,o),
(816,442,o),
(800,352,q),
(783,253,o),
(654,85,o),
(463,-14,o),
(358,-14,q),
(321,-14,o),
(274,-5,q),
(194,-128,l),
(88,-58,l)
);
},
{
closed = 1;
nodes = (
(476,538,l),
(471,539,o),
(460,539,o),
(455,539,q),
(404,539,o),
(314,489,o),
(254,404,o),
(245,352,q),
(232,273,o),
(269,221,q)
);
},
{
closed = 1;
nodes = (
(383,161,l),
(394,162,o),
(404,162,o),
(415,163,q),
(461,168,o),
(540,223,o),
(593,306,o),
(601,350,q),
(612,417,o),
(583,467,q)
);
}
);
width = 818;
}
);
note = Oslash;
unicode = 216;
},
{
glyphname = Thorn;
layers = (
{
layerId = m01;
shapes = (
{
closed = 1;
nodes = (
(236,706,l),
(213,575,l),
(250,575,ls),
(364,575,o),
(489,485,o),
(470,376,qs),
(452,275,o),
(304,178,o),
(200,178,qs),
(143,178,l),
(112,0,l),
(33,0,l),
(157,706,l)
);
},
{
closed = 1;
nodes = (
(208,251,ls),
(282,251,o),
(379,308,o),
(392,378,qs),
(401,432,o),
(361,487,o),
(287,502,o),
(230,502,qs),
(201,502,l),
(156,251,l)
);
}
);
width = 481;
},
{
layerId = "6E397364-29F0-430D-8798-B3D240BA8B9C";
shapes = (
{
closed = 1;
nodes = (
(251,706,l),
(229,580,l),
(271,580,l),
(386,580,o),
(512,485,o),
(492,374,q),
(474,271,o),
(326,171,o),
(221,171,q),
(157,171,l),
(127,0,l),
(29,0,l),
(153,706,l)
);
},
{
closed = 1;
nodes = (
(220,256,l),
(291,256,o),
(383,310,o),
(394,376,q),
(403,427,o),
(365,478,o),
(296,493,o),
(243,493,q),
(214,493,l),
(172,256,l)
);
}
);
width = 501;
},
{
layerId = "97194E86-8399-4162-8293-D906943AC4AA";
shapes = (
{
closed = 1;
nodes = (
(327,706,l),
(309,603,l),
(373,603,l),
(496,603,o),
(619,484,o),
(597,363,q),
(578,253,o),
(436,135,o),
(327,135,q),
(227,135,l),
(203,0,l),
(11,0,l),
(135,706,l)
);
},
{
closed = 1;
nodes = (
(280,281,l),
(334,281,o),
(396,316,o),
(405,368,q),
(411,402,o),
(388,438,o),
(342,449,o),
(307,449,q),
(282,449,l),
(253,281,l)
);
}
);
width = 603;
}
);
note = Thorn;
unicode = 222;
},
{
glyphname = germandbls;
layers = (
{
layerId = m01;
shapes = (
{
closed = 1;
nodes = (
(45,0,l),
(-35,0,l),
(57,520,ls),
(75,621,o),
(210,753,o),
(321,753,qs),
(379,753,o),
(463,707,o),
(500,625,o),
(491,572,qs),
(480,511,o),
(399,423,o),
(337,399,q),
(383,391,o),
(452,340,o),
(483,259,o),
(474,209,qs),
(462,140,o),
(372,45,o),
(235,-3,o),
(153,-3,q),
(165,62,l),
(257,62,o),
(378,134,o),
(391,209,qs),
(404,280,o),
(320,347,o),
(227,360,q),
(238,422,l),
(314,448,o),
(396,508,o),
(406,564,qs),
(416,618,o),
(359,680,o),
(304,680,qs),
(235,680,o),
(149,586,o),
(137,519,qs)
);
}
);
width = 519;
},
{
layerId = "6E397364-29F0-430D-8798-B3D240BA8B9C";
shapes = (
{
closed = 1;
nodes = (
(62,0,l),
(-36,0,l),
(54,513,l),
(72,617,o),
(213,751,o),
(327,751,q),
(388,751,o),
(476,704,o),
(514,619,o),
(505,565,q),
(494,504,o),
(414,418,o),
(354,393,q),
(397,385,o),
(464,335,o),
(495,256,o),
(486,207,q),
(474,137,o),
(381,42,o),
(243,-5,o),
(163,-3,q),
(177,74,l),
(262,74,o),
(375,142,o),
(387,210,q),
(398,275,o),
(321,337,o),
(235,350,q),
(247,418,l),
(317,444,o),
(394,502,o),
(404,554,q),
(413,605,o),
(360,663,o),
(309,663,q),
(245,663,o),
(163,576,o),
(152,513,q)
);
}
);
width = 531;
},
{
layerId = "97194E86-8399-4162-8293-D906943AC4AA";
shapes = (
{
closed = 1;
nodes = (
(149,0,l),
(-40,0,l),
(44,479,l),
(65,599,o),
(232,739,o),
(362,739,q),
(438,739,o),
(541,684,o),
(586,588,o),
(575,530,q),
(565,470,o),
(494,387,o),
(441,364,q),
(476,353,o),
(531,308,o),
(559,239,o),
(551,194,q),
(538,121,o),
(429,27,o),
(282,-10,o),
(215,-3,q),
(239,133,l),
(291,135,o),
(359,178,o),
(366,214,q),
(372,250,o),
(319,293,o),
(268,297,q),
(286,398,l),
(325,415,o),
(381,470,o),
(387,505,q),
(393,540,o),
(362,580,o),
(331,580,q),
(296,580,o),
(242,529,o),
(234,483,q)
);
}
);
width = 593;
}
);
note = germandbls;
unicode = 223;
},
{
glyphname = ae;
layers = (
{
layerId = m01;
shapes = (
{
closed = 1;
nodes = (
(779,44,l),
(742,19,o),
(651,-11,o),
(599,-11,qs),
(540,-11,o),
(447,35,o),
(420,80,q),
(368,35,o),
(247,-11,o),
(182,-11,qs),
(129,-11,o),
(45,34,o),
(5,117,o),
(14,171,qs),
(29,257,o),
(166,333,o),
(254,333,qs),
(299,333,o),
(372,317,o),
(400,299,q),
(403,318,ls),
(412,372,o),
(344,422,o),
(277,422,qs),
(226,422,o),
(127,397,o),
(82,372,q),
(95,450,l),
(139,468,o),
(241,492,o),
(293,492,qs),
(353,492,o),
(451,447,o),
(473,402,q),
(511,446,o),
(611,495,o),
(669,495,qs),
(736,495,o),
(824,434,o),
(865,330,o),
(862,266,q),
(471,175,l),
(480,122,o),
(552,59,o),
(616,59,qs),
(671,59,o),
(746,91,o),
(794,132,q)
);
},
{
closed = 1;
nodes = (
(387,228,l),
(329,266,o),
(254,266,qs),
(198,266,o),
(104,214,o),
(94,161,qs),
(85,110,o),
(154,57,o),
(212,57,qs),
(302,57,o),
(369,122,q)
);
},
{
closed = 1;
nodes = (
(788,316,l),
(783,364,o),
(715,425,o),
(660,425,qs),
(613,425,o),
(535,376,o),
(483,294,o),
(475,247,q)
);
}
);
width = 895;
},
{
layerId = "6E397364-29F0-430D-8798-B3D240BA8B9C";
shapes = (
{
closed = 1;
nodes = (
(789,44,l),
(750,18,o),
(659,-12,o),
(609,-12,q),
(549,-13,o),
(451,30,o),
(423,75,q),
(374,33,o),
(250,-11,o),
(189,-11,q),
(134,-11,o),
(44,34,o),
(2,118,o),
(15,174,q),
(34,257,o),
(167,332,o),
(253,332,q),
(297,332,o),
(369,317,o),
(396,300,q),
(399,318,l),
(408,371,o),
(342,419,o),
(275,419,q),
(226,419,o),
(127,395,o),
(84,372,q),
(99,460,l),
(149,479,o),
(263,501,o),
(309,501,q),
(374,501,o),
(461,457,o),
(483,417,q),
(521,458,o),
(620,504,o),
(677,504,q),
(746,504,o),
(838,439,o),
(878,329,o),
(873,262,q),
(485,171,l),
(495,124,o),
(562,69,o),
(620,69,q),
(675,69,o),
(759,102,o),
(806,142,q)
);
},
{
closed = 1;
nodes = (
(383,227,l),
(327,261,o),
(261,261,q),
(207,261,o),
(119,211,o),
(111,163,q),
(102,115,o),
(165,65,o),
(219,65,q),
(303,65,o),
(365,125,q)
);
},
{
closed = 1;
nodes = (
(783,317,l),
(778,364,o),
(715,422,o),
(663,422,q),
(618,422,o),
(545,374,o),
(497,296,o),
(489,251,q)
);
}
);
width = 906;
},
{
layerId = "97194E86-8399-4162-8293-D906943AC4AA";
shapes = (
{
closed = 1;
nodes = (
(838,42,l),
(788,13,o),
(670,-17,o),
(613,-17,q),
(557,-17,o),
(468,17,o),
(437,48,q),
(375,15,o),
(271,-12,o),
(206,-12,q),
(143,-12,o),
(45,28,o),
(-3,105,o),
(6,157,q),
(21,244,o),
(156,327,o),
(248,327,q),
(285,327,o),
(352,315,o),
(376,306,q),
(378,315,l),
(388,361,o),
(328,404,o),
(260,404,q),
(219,404,o),
(137,390,o),
(91,373,q),
(114,507,l),
(171,529,o),
(279,549,o),
(336,549,q),
(405,549,o),
(499,520,o),
(527,491,q),
(567,518,o),
(662,548,o),
(713,548,q),
(798,548,o),
(904,463,o),
(941,323,o),
(926,240,q),
(555,148,l),
(570,134,o),
(612,121,o),
(640,121,q),
(702,121,o),
(817,153,o),
(864,190,q)
);
},
{
closed = 1;
nodes = (
(361,221,l),
(333,235,o),
(292,235,q),
(251,235,o),
(198,198,o),
(193,170,q),
(188,143,o),
(224,107,o),
(254,107,q),
(302,107,o),
(347,139,q)
);
},
{
closed = 1;
nodes = (
(754,319,l),
(753,361,o),
(712,407,o),
(677,407,q),
(644,407,o),
(594,366,o),
(565,304,o),
(562,272,q)
);
}
);
width = 962;
}
);
note = ae;
unicode = 230;
},
{
glyphname = eth;
layers = (
{
layerId = m01;
shapes = (
{
closed = 1;
nodes = (
(221,778,l),
(221,778,l),
(269,744,o),
(309,713,o),
(334,686,q),
(478,772,l),
(508,734,l),
(369,650,l),
(373,645,ls),
(409,602,o),
(470,501,o),
(509,338,o),
(491,240,qs),
(476,157,o),
(388,44,o),
(272,-11,o),
(217,-11,qs),
(154,-11,o),
(58,51,o),
(16,157,o),
(27,220,qs),
(37,279,o),
(112,385,o),
(226,450,o),
(291,450,qs),
(343,450,o),
(407,414,o),
(426,391,qs),
(427,390,l),
(416,452,o),
(354,561,o),
(307,614,q),
(169,531,l),
(138,569,l),
(275,651,l),
(265,662,o),
(232,691,o),
(206,711,qs),
(173,735,l)
);
},
{
closed = 1;
nodes = (
(275,58,o),
(354,102,o),
(406,177,o),
(414,221,qs),
(422,264,o),
(396,339,o),
(334,384,o),
(289,384,qs),
(221,384,o),
(117,291,o),
(103,221,qs),
(89,151,o),
(153,58,o),
(230,58,qs)
);
}
);
width = 531;
},
{
layerId = "6E397364-29F0-430D-8798-B3D240BA8B9C";
shapes = (
{
closed = 1;
nodes = (
(238,780,l),
(238,780,l),
(276,754,o),
(318,719,o),
(346,691,q),
(486,773,l),
(519,732,l),
(383,652,l),
(388,646,l),
(425,601,o),
(486,495,o),
(521,338,o),
(505,245,q),
(490,160,o),
(399,44,o),
(280,-11,o),
(223,-11,q),
(159,-11,o),
(61,50,o),
(15,157,o),
(26,223,q),
(37,285,o),
(115,392,o),
(230,456,o),
(294,456,q),
(341,456,o),
(398,426,o),
(419,404,q),
(420,403,l),
(408,460,o),
(351,560,o),
(307,609,q),
(171,529,l),
(138,571,l),
(271,649,l),
(260,661,o),
(228,690,o),
(204,709,q),
(174,731,l)
);
},
{
closed = 1;
nodes = (
(264,84,o),
(331,113,o),
(381,170,o),
(392,208,q),
(402,243,o),
(389,311,o),
(342,356,o),
(304,360,q),
(249,366,o),
(155,298,o),
(138,241,q),
(119,183,o),
(162,95,o),
(227,88,q)
);
}
);
width = 543;
},
{
layerId = "97194E86-8399-4162-8293-D906943AC4AA";
shapes = (
{
closed = 1;
nodes = (
(316,787,l),
(316,787,l),
(338,772,o),
(377,739,o),
(402,714,q),
(528,780,l),
(573,722,l),
(454,659,l),
(464,648,l),
(513,592,o),
(570,470,o),
(586,339,o),
(573,268,q),
(556,171,o),
(453,44,o),
(319,-13,o),
(252,-13,q),
(183,-13,o),
(69,44,o),
(11,158,o),
(25,239,q),
(38,314,o),
(125,424,o),
(246,483,o),
(310,483,q),
(334,483,o),
(370,476,o),
(385,470,q),
(386,470,l),
(371,503,o),
(334,558,o),
(310,586,q),
(182,519,l),
(135,578,l),
(257,640,l),
(244,654,o),
(212,682,o),
(197,695,q),
(181,708,l)
);
},
{
closed = 1;
nodes = (
(204,212,o),
(219,167,o),
(255,140,o),
(280,140,q),
(305,140,o),
(350,167,o),
(381,212,o),
(385,238,q),
(392,278,o),
(354,339,o),
(315,339,q),
(273,339,o),
(217,285,o),
(209,238,q)
);
}
);
width = 603;
}
);
note = eth;
unicode = 240;
},
{
glyphname = divide;
layers = (
{
layerId = m01;
shapes = (
{
closed = 1;
nodes = (
(55,314,l),
(68,386,l),
(580,386,l),
(566,314,l)
);
},
{
closed = 1;
nodes = (
(310,457,o),
(283,491,o),
(287,515,qs),
(292,540,o),
(328,571,o),
(354,571,qs),
(380,571,o),
(407,540,o),
(403,515,qs),
(398,486,o),
(360,457,o),
(337,457,qs)
);
},
{
closed = 1;
nodes = (
(254,136,o),
(227,170,o),
(231,194,qs),
(236,219,o),
(272,250,o),
(298,250,qs),
(324,250,o),
(351,219,o),
(347,194,qs),
(342,165,o),
(304,136,o),
(281,136,qs)
);
}
);
width = 604;
},
{
layerId = "6E397364-29F0-430D-8798-B3D240BA8B9C";
shapes = (
{
closed = 1;
nodes = (
(62,317,l),
(75,389,l),
(587,389,l),
(574,317,l)
);
},
{
closed = 1;
nodes = (
(315,453,o),
(286,488,o),
(291,513,q),
(295,539,o),
(335,572,o),
(362,572,q),
(390,572,o),
(418,539,o),
(413,513,q),
(407,485,o),
(370,453,o),
(341,453,q)
);
},
{
closed = 1;
nodes = (
(259,135,o),
(231,170,o),
(235,195,q),
(240,221,o),
(279,254,o),
(306,254,q),
(334,254,o),
(362,221,o),
(357,195,q),
(351,166,o),
(315,135,o),
(285,135,q)
);
}
);
width = 618;
},
{
layerId = "97194E86-8399-4162-8293-D906943AC4AA";
shapes = (
{
closed = 1;
nodes = (
(87,302,l),
(105,402,l),
(628,402,l),
(610,302,l)
);
},
{
closed = 1;
nodes = (
(340,432,o),
(305,475,o),
(310,506,q),
(315,536,o),
(364,577,o),
(397,577,q),
(429,577,o),
(464,536,o),
(459,506,q),
(455,474,o),
(404,432,o),
(372,432,q)
);
},
{
closed = 1;
nodes = (
(287,128,o),
(252,171,o),
(257,202,q),
(262,232,o),
(311,273,o),
(344,273,q),
(376,273,o),
(411,232,o),
(406,202,q),
(402,170,o),
(351,128,o),
(319,128,q)
);
}
);
width = 685;
}
);
note = divide;
unicode = 247;
},
{
glyphname = oslash;
layers = (
{
layerId = m01;
shapes = (
{
closed = 1;
nodes = (
(140,88,l),
(158,70,o),
(206,53,o),
(238,53,qs),
(290,53,o),
(378,101,o),
(437,185,o),
(446,236,qs),
(455,293,o),
(434,344,q)
);
},
{
closed = 1;
nodes = (
(405,382,l),
(369,418,o),
(306,418,qs),
(254,418,o),
(168,370,o),
(112,287,o),
(103,236,qs),
(97,201,o),
(101,149,o),
(113,127,q)
);
},
{
closed = 1;
nodes = (
(52,74,l),
(29,111,o),
(14,189,o),
(23,236,qs),
(35,305,o),
(118,418,o),
(244,483,o),
(316,483,qs),
(413,483,o),
(464,435,q),
(528,489,l),
(556,451,l),
(497,398,l),
(519,363,o),
(535,284,o),
(526,236,qs),
(514,166,o),
(428,53,o),
(301,-12,o),
(229,-12,qs),
(181,-12,o),
(112,13,o),
(84,39,q),
(3,-35,l),
(-29,4,l)
);
}
);
width = 550;
},
{
layerId = "6E397364-29F0-430D-8798-B3D240BA8B9C";
shapes = (
{
closed = 1;
nodes = (
(163,98,l),
(181,83,o),
(223,68,o),
(252,68,q),
(301,68,o),
(385,114,o),
(440,193,o),
(449,242,q),
(458,295,o),
(439,340,q)
);
},
{
closed = 1;
nodes = (
(406,384,l),
(373,415,o),
(316,415,q),
(267,415,o),
(185,369,o),
(132,290,o),
(123,242,q),
(117,210,o),
(120,163,o),
(132,142,q)
);
},
{
closed = 1;
nodes = (
(56,76,l),
(33,113,o),
(18,194,o),
(27,242,q),
(39,312,o),
(126,428,o),
(255,495,o),
(329,495,q),
(426,495,o),
(476,448,q),
(546,509,l),
(580,467,l),
(516,407,l),
(538,372,o),
(555,291,o),
(546,242,q),
(533,171,o),
(445,55,o),
(314,-12,o),
(240,-12,q),
(193,-12,o),
(123,12,o),
(95,37,q),
(9,-41,l),
(-27,3,l)
);
}
);
width = 573;
},
{
layerId = "97194E86-8399-4162-8293-D906943AC4AA";
shapes = (
{
closed = 1;
nodes = (
(288,148,l),
(297,144,o),
(319,140,o),
(331,140,q),
(367,140,o),
(428,175,o),
(468,234,o),
(475,270,q),
(480,299,o),
(474,322,q)
);
},
{
closed = 1;
nodes = (
(418,391,l),
(403,400,o),
(375,400,q),
(339,400,o),
(278,365,o),
(237,305,o),
(231,270,q),
(228,256,o),
(228,230,o),
(231,218,q)
);
},
{
closed = 1;
nodes = (
(89,87,l),
(63,125,o),
(44,217,o),
(54,270,q),
(67,347,o),
(168,477,o),
(318,553,o),
(403,553,q),
(486,553,o),
(548,515,q),
(642,608,l),
(708,540,l),
(616,454,l),
(642,417,o),
(661,323,o),
(652,270,q),
(638,193,o),
(537,63,o),
(387,-13,o),
(302,-13,q),
(260,-13,o),
(187,7,o),
(156,25,q),
(47,-70,l),
(-18,-3,l)
);
}
);
width = 687;
}
);
note = oslash;
unicode = 248;
},
{
glyphname = thorn;
layers = (
{
layerId = m01;
shapes = (
{
closed = 1;
nodes = (
(124,181,o),
(145,104,o),
(201,57,o),
(246,57,qs),
(310,57,o),
(409,143,o),
(422,224,qs),
(433,293,o),
(371,383,o),
(303,383,qs),
(261,383,o),
(188,339,o),
(139,267,o),
(132,225,qs)
);
},
{
closed = 1;
nodes = (
(231,772,l),
(195,566,ls),
(188,525,o),
(180,483,qs),
(167,406,o),
(161,377,q),
(163,377,l),
(197,414,o),
(283,452,o),
(329,452,qs),
(349,452,o),
(374,447,qs),
(422,435,o),
(485,369,o),
(508,273,o),
(499,219,qs),
(489,164,o),
(432,69,o),
(346,3,o),
(294,-7,qs),
(267,-12,o),
(246,-12,qs),
(201,-12,o),
(128,26,o),
(108,62,q),
(106,62,l),
(93,-12,l),
(51,-247,l),
(-24,-247,l),
(156,772,l)
);
}
);
width = 541;
},
{
layerId = "6E397364-29F0-430D-8798-B3D240BA8B9C";
shapes = (
{
closed = 1;
nodes = (
(140,187,o),
(160,115,o),
(213,71,o),
(254,71,q),
(315,69,o),
(404,146,o),
(418,227,q),
(429,290,o),
(368,376,o),
(306,376,q),
(267,376,o),
(199,335,o),
(154,266,o),
(147,228,q)
);
},
{
closed = 1;
nodes = (
(247,773,l),
(211,567,l),
(204,525,o),
(196,483,q),
(186,438,o),
(178,384,q),
(180,384,l),
(213,418,o),
(291,456,o),
(336,458,q),
(366,458,o),
(380,455,q),
(431,446,o),
(497,378,o),
(522,278,o),
(512,223,q),
(502,167,o),
(444,68,o),
(354,1,o),
(299,-8,q),
(276,-12,o),
(253,-11,q),
(210,-10,o),
(143,27,o),
(124,61,q),
(121,61,l),
(109,-13,l),
(68,-243,l),
(-25,-243,l),
(154,773,l)
);
}
);
width = 553;
},
{
layerId = "97194E86-8399-4162-8293-D906943AC4AA";
shapes = (
{
closed = 1;
nodes = (
(216,214,o),
(230,168,o),
(264,140,o),
(289,140,q),
(337,140,o),
(384,188,o),
(392,241,q),
(399,279,o),
(362,339,o),
(324,339,q),
(299,339,o),
(255,310,o),
(226,264,o),
(221,240,q)
);
},
{
closed = 1;
nodes = (
(328,776,l),
(292,571,l),
(282,533,o),
(273,480,q),
(266,449,o),
(259,418,q),
(259,418,l),
(278,437,o),
(337,475,o),
(369,485,q),
(395,492,o),
(414,492,q),
(479,492,o),
(561,421,o),
(590,306,o),
(579,243,q),
(568,180,o),
(497,62,o),
(388,-13,o),
(323,-13,q),
(307,-13,o),
(287,-8,q),
(257,-1,o),
(209,33,o),
(200,55,q),
(196,55,l),
(187,-20,l),
(151,-225,l),
(-35,-225,l),
(142,776,l)
);
}
);
width = 612;
}
);
note = thorn;
unicode = 254;
},
{
glyphname = dcroat;
layers = (
{
layerId = m01;
shapes = (
{
closed = 1;
nodes = (
(413,77,l),
(369,34,o),
(281,-10,o),
(225,-10,qs),
(159,-10,o),
(61,52,o),
(17,166,o),
(30,241,qs),
(43,315,o),
(127,431,o),
(247,494,o),
(311,494,qs),
(371,494,o),
(456,444,o),
(479,398,q),
(538,732,l),
(620,732,l),
(491,1,l)
);
},
{
closed = 1;
nodes = (
(295,60,o),
(384,107,o),
(446,191,o),
(455,242,qs),
(464,293,o),
(430,376,o),
(358,424,o),
(312,424,qs),
(266,424,o),
(181,378,o),
(122,295,o),
(114,242,qs),
(102,162,o),
(164,60,o),
(248,60,qs)
);
},
{
closed = 1;
nodes = (
(373,584,l),
(387,661,l),
(658,661,l),
(644,584,l)
);
}
);
width = 583;
},
{
layerId = "6E397364-29F0-430D-8798-B3D240BA8B9C";
shapes = (
{
closed = 1;
nodes = (
(410,76,l),
(367,34,o),
(280,-10,o),
(224,-10,q),
(158,-10,o),
(60,53,o),
(17,170,o),
(30,246,q),
(44,322,o),
(129,440,o),
(249,504,o),
(313,504,q),
(372,504,o),
(453,455,o),
(477,411,q),
(534,732,l),
(634,732,l),
(505,-1,l)
);
},
{
closed = 1;
nodes = (
(302,75,o),
(385,119,o),
(443,198,o),
(452,247,q),
(460,295,o),
(429,374,o),
(361,419,o),
(318,419,q),
(275,419,o),
(196,376,o),
(140,297,o),
(132,247,q),
(121,172,o),
(179,75,o),
(257,75,q)
);
},
{
closed = 1;
nodes = (
(379,577,l),
(395,669,l),
(675,669,l),
(659,577,l)
);
}
);
width = 599;
},
{
layerId = "97194E86-8399-4162-8293-D906943AC4AA";
shapes = (
{
closed = 1;
nodes = (
(399,72,l),
(360,33,o),
(275,-12,o),
(220,-12,q),
(155,-12,o),
(58,57,o),
(15,185,o),
(30,270,q),
(45,355,o),
(133,484,o),
(254,553,o),
(319,553,q),
(375,553,o),
(444,511,o),
(470,475,q),
(515,730,l),
(705,730,l),
(574,-12,l)
);
},
{
closed = 1;
nodes = (
(335,147,o),
(391,178,o),
(431,235,o),
(437,272,q),
(443,307,o),
(423,363,o),
(378,394,o),
(348,394,q),
(319,394,o),
(263,363,o),
(223,306,o),
(217,270,q),
(209,218,o),
(250,147,o),
(305,147,q)
);
},
{
closed = 1;
nodes = (
(404,542,l),
(433,709,l),
(761,709,l),
(732,542,l)
);
}
);
width = 681;
}
);
note = dcroat;
unicode = 273;
},
{
glyphname = kgreenlandic;
layers = (
{
layerId = m01;
shapes = (
{
closed = 1;
nodes = (
(371,482,l),
(476,482,l),
(217,254,l),
(400,0,l),
(299,0,l),
(140,216,l),
(102,0,l),
(20,0,l),
(105,482,l),
(187,482,l),
(152,281,l)
);
}
);
width = 454;
},
{
layerId = "6E397364-29F0-430D-8798-B3D240BA8B9C";
shapes = (
{
closed = 1;
nodes = (
(382,492,l),
(506,492,l),
(252,266,l),
(427,0,l),
(308,0,l),
(157,227,l),
(117,0,l),
(17,0,l),
(104,492,l),
(204,492,l),
(169,294,l)
);
}
);
width = 480;
},
{
layerId = "97194E86-8399-4162-8293-D906943AC4AA";
shapes = (
{
closed = 1;
nodes = (
(436,541,l),
(651,541,l),
(425,324,l),
(561,0,l),
(352,0,l),
(244,283,l),
(194,0,l),
(4,0,l),
(99,541,l),
(289,541,l),
(257,360,l)
);
}
);
width = 609;
}
);
note = kgreenlandic;
unicode = 312;
},
{
glyphname = Eng;
layers = (
{
layerId = m01;
shapes = (
{
closed = 1;
nodes = (
(241,700,l),
(559,126,l),
(661,705,l),
(743,705,l),
(619,0,l),
(612,-37,ls),
(599,-113,o),
(540,-194,o),
(471,-194,qs),
(447,-194,o),
(422,-187,q),
(434,-119,l),
(449,-125,o),
(466,-125,qs),
(495,-125,o),
(522,-91,o),
(527,-62,qs),
(537,-4,l),
(217,577,l),
(115,0,l),
(33,0,l),
(156,700,l)
);
}
);
width = 746;
},
{
layerId = "6E397364-29F0-430D-8798-B3D240BA8B9C";
shapes = (
{
closed = 1;
nodes = (
(253,700,l),
(556,160,l),
(652,704,l),
(752,704,l),
(630,14,l),
(623,-27,l),
(610,-106,o),
(541,-189,o),
(468,-189,q),
(440,-189,o),
(414,-182,q),
(428,-103,l),
(445,-109,o),
(461,-109,q),
(489,-109,o),
(516,-76,o),
(521,-48,q),
(529,1,l),
(226,545,l),
(130,0,l),
(29,0,l),
(152,700,l)
);
}
);
width = 751;
},
{
layerId = "97194E86-8399-4162-8293-D906943AC4AA";
shapes = (
{
closed = 1;
nodes = (
(315,700,l),
(538,330,l),
(603,700,l),
(795,700,l),
(686,81,l),
(676,24,l),
(659,-75,o),
(546,-163,o),
(450,-163,q),
(413,-163,o),
(373,-156,q),
(397,-23,l),
(419,-31,o),
(434,-31,q),
(453,-31,o),
(481,-4,o),
(486,25,q),
(487,26,l),
(271,384,l),
(203,0,l),
(11,0,l),
(134,700,l)
);
}
);
width = 778;
}
);
note = Eng;
unicode = 330;
},
{
glyphname = eng;
layers = (
{
layerId = m01;
shapes = (
{
closed = 1;
nodes = (
(178,421,l),
(252,493,o),
(347,493,qs),
(400,493,o),
(471,450,o),
(498,365,o),
(487,303,qs),
(427,-37,ls),
(414,-112,o),
(353,-194,o),
(285,-194,qs),
(261,-194,o),
(236,-187,q),
(248,-119,l),
(263,-125,o),
(280,-125,qs),
(309,-125,o),
(336,-91,o),
(341,-62,qs),
(401,280,ls),
(414,354,o),
(357,421,o),
(308,421,qs),
(257,421,o),
(164,354,o),
(151,280,qs),
(102,0,l),
(20,0,l),
(105,482,l)
);
}
);
width = 542;
},
{
layerId = "6E397364-29F0-430D-8798-B3D240BA8B9C";
shapes = (
{
closed = 1;
nodes = (
(194,428,l),
(269,503,o),
(365,503,q),
(419,503,o),
(490,459,o),
(518,373,o),
(507,312,q),
(447,-27,l),
(434,-105,o),
(364,-189,o),
(291,-189,q),
(263,-189,o),
(237,-182,q),
(251,-103,l),
(268,-109,o),
(284,-109,q),
(312,-109,o),
(339,-76,o),
(344,-46,q),
(402,282,l),
(414,351,o),
(360,415,o),
(314,415,q),
(266,415,o),
(179,351,o),
(167,282,q),
(117,0,l),
(17,0,l),
(104,492,l)
);
}
);
width = 558;
},
{
layerId = "97194E86-8399-4162-8293-D906943AC4AA";
shapes = (
{
closed = 1;
nodes = (
(276,465,l),
(360,553,o),
(454,553,q),
(507,553,o),
(581,504,o),
(613,414,o),
(602,354,q),
(544,24,l),
(527,-75,o),
(414,-163,o),
(318,-163,q),
(281,-163,o),
(241,-156,q),
(265,-23,l),
(287,-31,o),
(302,-31,q),
(321,-31,o),
(350,-1,o),
(356,32,q),
(402,293,l),
(409,336,o),
(375,384,o),
(342,384,q),
(308,384,o),
(253,335,o),
(246,293,q),
(194,0,l),
(4,0,l),
(99,541,l)
);
}
);
width = 635;
}
);
note = eng;
unicode = 331;
},
{
glyphname = OE;
layers = (
{
layerId = m01;
shapes = (
{
closed = 1;
nodes = (
(478,78,l),
(458,71,o),
(404,63,o),
(382,63,qs),
(300,63,o),
(186,140,o),
(139,273,o),
(153,354,qs),
(167,434,o),
(262,565,o),
(403,642,o),
(484,642,qs),
(535,642,o),
(574,626,q)
);
},
{
closed = 1;
nodes = (
(952,321,l),
(965,397,l),
(620,397,l),
(661,629,l),
(1035,629,l),
(1048,705,l),
(599,705,l),
(552,719,o),
(499,719,qs),
(395,719,o),
(209,621,o),
(84,452,o),
(66,351,qs),
(48,249,o),
(115,82,o),
(266,-14,o),
(368,-14,qs),
(427,-14,o),
(473,0,q),
(935,0,l),
(948,76,l),
(563,76,l),
(607,321,l)
);
}
);
width = 1049;
},
{
layerId = "6E397364-29F0-430D-8798-B3D240BA8B9C";
shapes = (
{
closed = 1;
nodes = (
(481,97,l),
(460,89,o),
(411,80,o),
(387,80,q),
(311,80,o),
(203,157,o),
(156,283,o),
(169,354,q),
(182,430,o),
(272,554,o),
(407,625,o),
(484,625,q),
(528,625,o),
(571,607,q)
);
},
{
closed = 1;
nodes = (
(966,314,l),
(982,402,l),
(639,402,l),
(676,613,l),
(1049,613,l),
(1065,704,l),
(599,704,l),
(552,718,o),
(498,718,q),
(394,718,o),
(208,620,o),
(82,452,o),
(64,351,q),
(46,248,o),
(117,82,o),
(273,-13,o),
(377,-13,q),
(428,-13,o),
(483,0,q),
(951,0,l),
(967,91,l),
(584,91,l),
(623,314,l)
);
}
);
width = 1062;
},
{
layerId = "97194E86-8399-4162-8293-D906943AC4AA";
shapes = (
{
closed = 1;
nodes = (
(495,189,l),
(473,175,o),
(421,161,o),
(394,161,q),
(343,161,o),
(271,214,o),
(241,302,o),
(250,352,q),
(259,403,o),
(319,488,o),
(408,539,o),
(460,539,q),
(513,539,o),
(552,510,q)
);
},
{
closed = 1;
nodes = (
(1039,276,l),
(1066,429,l),
(730,429,l),
(748,535,l),
(1119,535,l),
(1148,700,l),
(596,700,l),
(545,714,o),
(492,714,q),
(386,714,o),
(196,616,o),
(68,449,o),
(51,350,q),
(33,251,o),
(102,84,o),
(257,-14,o),
(363,-14,q),
(425,-14,o),
(471,0,q),
(1030,0,l),
(1059,165,l),
(683,165,l),
(703,276,l)
);
}
);
width = 1127;
}
);
note = OE;
unicode = 338;
},
{
glyphname = oe;
layers = (
{
layerId = m01;
shapes = (
{
closed = 1;
nodes = (
(872,44,l),
(836,19,o),
(743,-11,o),
(692,-11,qs),
(615,-11,o),
(514,62,o),
(498,126,q),
(454,64,o),
(319,-10,o),
(242,-10,qs),
(169,-10,o),
(64,56,o),
(18,170,o),
(30,240,qs),
(42,310,o),
(129,427,o),
(259,494,o),
(332,494,qs),
(409,494,o),
(518,421,o),
(539,360,q),
(577,423,o),
(690,495,o),
(762,495,qs),
(829,495,o),
(917,434,o),
(958,330,o),
(955,266,q),
(576,176,l),
(585,120,o),
(647,59,o),
(709,59,qs),
(764,59,o),
(839,92,o),
(887,132,q)
);
},
{
closed = 1;
nodes = (
(268,425,o),
(181,376,o),
(122,292,o),
(114,242,qs),
(105,191,o),
(135,107,o),
(206,59,o),
(255,59,qs),
(305,59,o),
(394,108,o),
(454,192,o),
(463,241,qs),
(478,322,o),
(407,425,o),
(319,425,qs)
);
},
{
closed = 1;
nodes = (
(864,316,l),
(859,364,o),
(791,425,o),
(736,425,qs),
(668,425,o),
(589,328,o),
(575,251,q)
);
}
);
width = 990;
},
{
layerId = "6E397364-29F0-430D-8798-B3D240BA8B9C";
shapes = (
{
closed = 1;
nodes = (
(878,44,l),
(840,18,o),
(742,-12,o),
(691,-12,q),
(616,-12,o),
(517,54,o),
(498,115,q),
(454,57,o),
(322,-11,o),
(248,-11,q),
(173,-11,o),
(65,57,o),
(18,174,o),
(30,245,q),
(43,316,o),
(132,435,o),
(265,504,o),
(340,504,q),
(414,504,o),
(522,437,o),
(546,379,q),
(583,438,o),
(696,504,o),
(766,504,q),
(835,504,o),
(927,439,o),
(967,329,o),
(962,262,q),
(584,171,l),
(595,122,o),
(653,69,o),
(709,69,q),
(765,69,o),
(850,103,o),
(895,142,q)
);
},
{
closed = 1;
nodes = (
(276,420,o),
(193,374,o),
(139,295,o),
(131,247,q),
(122,199,o),
(151,120,o),
(218,74,o),
(264,74,q),
(311,74,o),
(394,121,o),
(451,200,o),
(460,246,q),
(474,322,o),
(406,420,o),
(324,420,q)
);
},
{
closed = 1;
nodes = (
(857,317,l),
(852,364,o),
(789,422,o),
(737,422,q),
(672,422,o),
(598,328,o),
(585,255,q)
);
}
);
width = 997;
},
{
layerId = "97194E86-8399-4162-8293-D906943AC4AA";
shapes = (
{
closed = 1;
nodes = (
(906,42,l),
(853,11,o),
(732,-17,o),
(681,-17,q),
(619,-17,o),
(526,23,o),
(496,62,q),
(449,26,o),
(338,-13,o),
(278,-13,q),
(193,-13,o),
(70,63,o),
(16,193,o),
(30,270,q),
(43,347,o),
(144,477,o),
(295,553,o),
(380,553,q),
(442,553,o),
(541,512,o),
(575,475,q),
(617,511,o),
(722,548,o),
(781,548,q),
(866,548,o),
(972,463,o),
(1009,323,o),
(994,240,q),
(623,148,l),
(638,134,o),
(680,121,o),
(708,121,q),
(771,121,o),
(886,154,o),
(933,190,q)
);
},
{
closed = 1;
nodes = (
(315,392,o),
(258,360,o),
(221,305,o),
(215,272,q),
(209,239,o),
(229,182,o),
(275,148,o),
(308,148,q),
(341,148,o),
(399,181,o),
(437,237,o),
(443,270,q),
(452,322,o),
(405,392,o),
(349,392,q)
);
},
{
closed = 1;
nodes = (
(822,319,l),
(821,361,o),
(780,407,o),
(745,407,q),
(697,407,o),
(635,323,o),
(630,272,q)
);
}
);
width = 1030;
}
);
note = oe;
unicode = 339;
},
{
glyphname = florin;
layers = (
{
layerId = m01;
shapes = (
{
closed = 1;
nodes = (
(15,371,l),
(40,439,l),
(124,439,l),
(160,531,ls),
(197,630,o),
(313,713,o),
(374,713,qs),
(409,713,o),
(436,703,q),
(409,631,l),
(393,641,o),
(366,641,qs),
(322,641,o),
(259,580,o),
(229,500,qs),
(206,439,l),
(307,439,l),
(283,371,l),
(181,371,l),
(-9,-103,l),
(-87,-103,l),
(98,371,l)
);
}
);
width = 382;
},
{
layerId = "6E397364-29F0-430D-8798-B3D240BA8B9C";
shapes = (
{
closed = 1;
nodes = (
(17,364,l),
(47,445,l),
(127,445,l),
(163,538,l),
(200,635,o),
(315,718,o),
(383,718,q),
(423,718,o),
(452,708,q),
(421,625,l),
(407,634,o),
(380,634,q),
(338,634,o),
(276,577,o),
(250,506,q),
(227,445,l),
(330,445,l),
(301,364,l),
(198,364,l),
(9,-113,l),
(-88,-113,l),
(97,364,l)
);
}
);
width = 396;
},
{
layerId = "97194E86-8399-4162-8293-D906943AC4AA";
shapes = (
{
closed = 1;
nodes = (
(28,329,l),
(83,473,l),
(139,473,l),
(180,571,l),
(215,659,o),
(333,743,o),
(428,743,q),
(486,743,o),
(532,731,q),
(483,596,l),
(469,599,o),
(446,599,q),
(411,599,o),
(370,570,o),
(357,536,q),
(330,473,l),
(444,473,l),
(389,329,l),
(279,329,l),
(101,-163,l),
(-89,-163,l),
(89,329,l)
);
}
);
width = 463;
}
);
note = florin;
unicode = 402;
},
{
glyphname = Aringacute;
layers = (
{
layerId = m01;
shapes = (
{
closed = 1;
nodes = (
(426,656,o),
(462,687,o),
(466,711,qs),
(471,734,o),
(444,768,o),
(419,768,qs),
(395,768,o),
(357,736,o),
(352,712,qs),
(346,683,o),
(378,656,o),
(400,656,qs)
);
},
{
closed = 1;
nodes = (
(346,623,l),
(324,636,o),
(302,683,o),
(307,711,qs),
(312,738,o),
(348,785,o),
(399,812,o),
(425,812,qs),
(453,812,o),
(496,784,o),
(515,737,o),
(510,709,qs),
(505,679,o),
(465,632,o),
(436,621,q),
(615,0,l),
(522,0,l),
(478,167,l),
(141,167,l),
(39,0,l),
(-52,0,l)
);
},
{
closed = 1;
nodes = (
(379,555,l),
(188,242,l),
(460,242,l)
);
},
{
closed = 1;
nodes = (
(615,954,l),
(464,825,l),
(405,825,l),
(523,974,l)
);
}
);
width = 657;
},
{
layerId = "6E397364-29F0-430D-8798-B3D240BA8B9C";
shapes = (
{
closed = 1;
nodes = (
(433,663,o),
(467,692,o),
(471,713,q),
(475,735,o),
(451,765,o),
(428,765,q),
(405,765,o),
(371,735,o),
(367,714,q),
(362,687,o),
(390,663,o),
(410,663,q)
);
},
{
closed = 1;
nodes = (
(348,627,l),
(327,642,o),
(308,686,o),
(313,713,q),
(318,742,o),
(355,789,o),
(408,817,o),
(435,817,q),
(464,817,o),
(508,789,o),
(529,741,o),
(524,712,q),
(519,683,o),
(481,637,o),
(454,625,q),
(634,0,l),
(522,0,l),
(481,155,l),
(152,155,l),
(57,0,l),
(-53,0,l)
);
},
{
closed = 1;
nodes = (
(385,536,l),
(206,243,l),
(460,243,l)
);
},
{
closed = 1;
nodes = (
(628,962,l),
(474,833,l),
(402,833,l),
(522,988,l)
);
}
);
width = 675;
},
{
layerId = "97194E86-8399-4162-8293-D906943AC4AA";
shapes = (
{
closed = 1;
nodes = (
(471,700,o),
(488,713,o),
(490,723,q),
(492,733,o),
(480,747,o),
(471,747,q),
(460,747,o),
(444,734,o),
(442,724,q),
(441,713,o),
(452,700,o),
(461,700,q)
);
},
{
closed = 1;
nodes = (
(356,646,l),
(345,662,o),
(336,700,o),
(340,723,q),
(346,756,o),
(390,811,o),
(453,843,o),
(485,843,q),
(518,843,o),
(570,811,o),
(593,756,o),
(588,724,q),
(584,702,o),
(561,662,o),
(545,646,q),
(728,0,l),
(520,0,l),
(497,95,l),
(206,95,l),
(149,0,l),
(-55,0,l)
);
},
{
closed = 1;
nodes = (
(411,438,l),
(296,246,l),
(459,246,l)
);
},
{
closed = 1;
nodes = (
(727,999,l),
(558,871,l),
(424,871,l),
(560,1056,l)
);
}
);
width = 767;
}
);
note = Aringacute;
unicode = 506;
},
{
glyphname = circumflex;
layers = (
{
layerId = m01;
shapes = (
{
closed = 1;
nodes = (
(314,625,l),
(251,707,l),
(160,625,l),
(94,625,l),
(226,766,l),
(299,766,l),
(380,625,l)
);
}
);
width = 349;
},
{
layerId = "6E397364-29F0-430D-8798-B3D240BA8B9C";
shapes = (
{
closed = 1;
nodes = (
(313,623,l),
(252,702,l),
(165,623,l),
(88,623,l),
(226,772,l),
(304,772,l),
(389,623,l)
);
}
);
width = 352;
},
{
layerId = "97194E86-8399-4162-8293-D906943AC4AA";
shapes = (
{
closed = 1;
nodes = (
(303,613,l),
(255,674,l),
(185,613,l),
(54,613,l),
(227,799,l),
(326,799,l),
(433,613,l)
);
}
);
width = 365;
}
);
note = circumflex;
unicode = 710;
},
{
glyphname = caron;
layers = (
{
layerId = m01;
shapes = (
{
closed = 1;
nodes = (
(271,606,l),
(196,606,l),
(109,749,l),
(181,749,l),
(243,663,l),
(336,749,l),
(407,749,l)
);
}
);
width = 347;
},
{
layerId = "6E397364-29F0-430D-8798-B3D240BA8B9C";
shapes = (
{
closed = 1;
nodes = (
(274,603,l),
(195,603,l),
(105,754,l),
(188,754,l),
(247,672,l),
(336,754,l),
(418,754,l)
);
}
);
width = 351;
},
{
layerId = "97194E86-8399-4162-8293-D906943AC4AA";
shapes = (
{
closed = 1;
nodes = (
(294,590,l),
(194,590,l),
(81,777,l),
(221,777,l),
(268,714,l),
(335,777,l),
(472,777,l)
);
}
);
width = 373;
}
);
note = caron;
unicode = 711;
},
{
glyphname = uni02C9;
layers = (
{
layerId = m01;
shapes = (
{
closed = 1;
nodes = (
(109,611,l),
(119,668,l),
(420,668,l),
(410,611,l)
);
}
);
width = 395;
},
{
layerId = "6E397364-29F0-430D-8798-B3D240BA8B9C";
shapes = (
{
closed = 1;
nodes = (
(105,606,l),
(117,673,l),
(430,673,l),
(418,606,l)
);
}
);
width = 401;
},
{
layerId = "97194E86-8399-4162-8293-D906943AC4AA";
shapes = (
{
closed = 1;
nodes = (
(86,579,l),
(107,696,l),
(478,696,l),
(457,579,l)
);
}
);
width = 432;
}
);
note = uni02C9;
unicode = 713;
},
{
glyphname = breve;
layers = (
{
layerId = m01;
shapes = (
{
closed = 1;
nodes = (
(408,741,l),
(391,678,o),
(294,602,o),
(232,602,qs),
(191,602,o),
(134,636,o),
(107,699,o),
(109,741,q),
(163,741,l),
(165,706,o),
(210,668,o),
(247,668,qs),
(283,668,o),
(338,706,o),
(354,741,q)
);
}
);
width = 351;
},
{
layerId = "6E397364-29F0-430D-8798-B3D240BA8B9C";
shapes = (
{
closed = 1;
nodes = (
(411,744,l),
(394,678,o),
(294,597,o),
(231,597,q),
(190,597,o),
(131,634,o),
(103,700,o),
(105,744,q),
(168,744,l),
(171,709,o),
(212,672,o),
(247,672,q),
(281,672,o),
(334,709,o),
(349,744,q)
);
}
);
width = 348;
},
{
layerId = "97194E86-8399-4162-8293-D906943AC4AA";
shapes = (
{
closed = 1;
nodes = (
(423,757,l),
(403,676,o),
(290,574,o),
(221,574,q),
(176,574,o),
(110,620,o),
(79,704,o),
(84,757,q),
(188,757,l),
(192,726,o),
(222,691,o),
(244,691,q),
(265,691,o),
(305,726,o),
(319,757,q)
);
}
);
width = 335;
}
);
note = breve;
unicode = 728;
},
{
glyphname = dotaccent;
layers = (
{
layerId = m01;
shapes = (
{
closed = 1;
nodes = (
(212,739,o),
(242,704,o),
(237,678,qs),
(232,654,o),
(191,619,o),
(165,619,qs),
(140,619,o),
(112,656,o),
(116,682,qs),
(121,711,o),
(163,739,o),
(186,739,qs)
);
}
);
width = 205;
},
{
layerId = "6E397364-29F0-430D-8798-B3D240BA8B9C";
shapes = (
{
closed = 1;
nodes = (
(220,745,o),
(252,709,o),
(247,678.84,q),
(242,651,o),
(196,613,o),
(166.709,613,q),
(138.544,613,o),
(107,651,o),
(111,679,q),
(116,714,o),
(164,745,o),
(190.286,745,q)
);
}
);
width = 211;
},
{
layerId = "97194E86-8399-4162-8293-D906943AC4AA";
shapes = (
{
closed = 1;
nodes = (
(255,777,o),
(307,727,o),
(299,681,q),
(291,635,o),
(221,584,o),
(174,584,q),
(127,584,o),
(75,635,o),
(84,681,q),
(95,738,o),
(170,777,o),
(208,777,q)
);
}
);
width = 239;
}
);
note = dotaccent;
unicode = 729;
},
{
glyphname = ring;
layers = (
{
layerId = m01;
shapes = (
{
closed = 1;
nodes = (
(166,612,o),
(124,638,o),
(104,684,o),
(109,711,qs),
(114,739,o),
(148,785,o),
(199,812,o),
(227,812,qs),
(256,812,o),
(299,784,o),
(317,737,o),
(312,709,qs),
(304,667,o),
(238,612,o),
(192,612,qs)
);
},
{
closed = 1;
nodes = (
(196,768,o),
(158,735,o),
(154,712,qs),
(149,687,o),
(177,656,o),
(202,656,qs),
(228,656,o),
(265,687,o),
(268,711,qs),
(273,740,o),
(243,768,o),
(221,768,qs)
);
}
);
width = 265;
},
{
layerId = "6E397364-29F0-430D-8798-B3D240BA8B9C";
shapes = (
{
closed = 1;
nodes = (
(167.235,609,o),
(124,636,o),
(103,683.26,o),
(108,711,q),
(113.385,740.135,o),
(150,788,o),
(202.291,815,o),
(231,815,q),
(260,815,o),
(303,787,o),
(323,738.747,o),
(318,710,q),
(310,665,o),
(239,609,o),
(194,609,q)
);
},
{
closed = 1;
nodes = (
(201,763,o),
(165,733,o),
(161.889,711.917,q),
(158,689,o),
(183,661,o),
(204.875,661,q),
(227.625,661,o),
(260,689,o),
(265,711,q),
(271,740,o),
(242,763,o),
(223.619,763,q)
);
}
);
width = 270;
},
{
layerId = "97194E86-8399-4162-8293-D906943AC4AA";
shapes = (
{
closed = 1;
nodes = (
(173,591,o),
(120,623,o),
(95,678,o),
(101,711,q),
(107,744,o),
(151,799,o),
(214,831,o),
(246,831,q),
(279,831,o),
(331,799,o),
(354,744,o),
(349,712,q),
(340,659,o),
(261,591,o),
(208,591,q)
);
},
{
closed = 1;
nodes = (
(219,735,o),
(204,721,o),
(202,712,q),
(200,701,o),
(210,687,o),
(220,687,q),
(231,687,o),
(247,700,o),
(248,711,q),
(250,721,o),
(239,735,o),
(229,735,q)
);
}
);
width = 293;
}
);
note = ring;
unicode = 730;
},
{
glyphname = ogonek;
layers = (
{
layerId = m01;
shapes = (
{
closed = 1;
nodes = (
(195,-182,l),
(158,-197,o),
(124,-197,qs),
(74,-197,o),
(21,-148,o),
(29,-104,qs),
(34,-78,o),
(68,-29,o),
(95,-1,qs),
(96,0,l),
(156,0,l),
(142,-17,ls),
(120,-45,o),
(102,-74,o),
(99,-92,qs),
(94,-116,o),
(121,-147,o),
(147,-147,qs),
(162,-147,o),
(192,-139,q)
);
}
);
width = 369;
},
{
layerId = "6E397364-29F0-430D-8798-B3D240BA8B9C";
shapes = (
{
closed = 1;
nodes = (
(201,-187,l),
(160,-204,o),
(124,-204,q),
(74,-204,o),
(19,-153,o),
(27,-108,q),
(32,-81,o),
(66,-33,o),
(96,-1,q),
(97,0,l),
(168,0,l),
(167,-1,l),
(135,-39,o),
(109,-75,o),
(106,-95,q),
(102,-117,o),
(126,-145,o),
(150,-145,q),
(171,-145,o),
(198,-136,q)
);
}
);
width = 374;
},
{
layerId = "97194E86-8399-4162-8293-D906943AC4AA";
shapes = (
{
closed = 1;
nodes = (
(229,-211,l),
(174,-238,o),
(120,-238,q),
(64,-238,o),
(2,-178,o),
(11,-128,q),
(17,-94,o),
(62,-34,o),
(96,-1,q),
(97,0,l),
(223,0,l),
(207,-16,l),
(170,-54,o),
(140,-98,o),
(138,-109,q),
(136,-121,o),
(151,-133,o),
(164,-133,q),
(183,-133,o),
(222,-118,q)
);
}
);
width = 401;
}
);
note = ogonek;
unicode = 731;
},
{
glyphname = tilde;
layers = (
{
layerId = m01;
shapes = (
{
closed = 1;
nodes = (
(93,618,l),
(116,667,o),
(180,722,o),
(218,722,qs),
(235,722,o),
(261,713,o),
(285,702,qs),
(301,694,o),
(324,685,o),
(335,685,qs),
(352,685,o),
(377,707,o),
(390,730,q),
(441,720,l),
(417,670,o),
(363,617,o),
(329,617,qs),
(314,617,o),
(288,627,o),
(270,636,qs),
(250,645,o),
(226,654,o),
(212,654,qs),
(193,654,o),
(157,631,o),
(145,608,q)
);
}
);
width = 392;
},
{
layerId = "6E397364-29F0-430D-8798-B3D240BA8B9C";
shapes = (
{
closed = 1;
nodes = (
(86,616,l),
(111,669,o),
(175,728,o),
(215,728,q),
(232,728,o),
(261,718,o),
(282,707,q),
(294,701,o),
(320,691,o),
(331,691,q),
(348,691,o),
(371,712,o),
(384,736,q),
(443,724,l),
(418,671,o),
(359,614,o),
(324,614,q),
(309,614,o),
(284,623,o),
(263,633,q),
(244,642,o),
(222,651,o),
(209,651,q),
(191,651,o),
(157,629,o),
(146,605,q)
);
}
);
width = 388;
},
{
layerId = "97194E86-8399-4162-8293-D906943AC4AA";
shapes = (
{
closed = 1;
nodes = (
(53,607,l),
(84,677,o),
(159,755,o),
(205,755,q),
(223,755,o),
(251,745,o),
(278,734,q),
(289,728,o),
(310,720,o),
(318,720,q),
(328,720,o),
(347,741,o),
(357,765,q),
(456,746,l),
(425,678,o),
(350,601,o),
(304,601,q),
(286,601,o),
(254,612,o),
(234,622,q),
(223,628,o),
(203,636,o),
(195,636,q),
(184,636,o),
(166,616,o),
(153,589,q)
);
}
);
width = 366;
}
);
note = tilde;
unicode = 732;
},
{
glyphname = hungarumlaut;
layers = (
{
layerId = m01;
shapes = (
{
closed = 1;
nodes = (
(84,606,l),
(211,755,l),
(297,739,l),
(150,606,l)
);
},
{
closed = 1;
nodes = (
(237,606,l),
(364,755,l),
(450,737,l),
(301,606,l)
);
}
);
width = 385;
},
{
layerId = "6E397364-29F0-430D-8798-B3D240BA8B9C";
shapes = (
{
closed = 1;
nodes = (
(76,605,l),
(209,762,l),
(306,744,l),
(152,605,l)
);
},
{
closed = 1;
nodes = (
(242,605,l),
(375,762,l),
(472,742,l),
(317,605,l)
);
}
);
width = 399;
},
{
layerId = "97194E86-8399-4162-8293-D906943AC4AA";
shapes = (
{
closed = 1;
nodes = (
(39,600,l),
(207,796,l),
(356,767,l),
(168,600,l)
);
},
{
closed = 1;
nodes = (
(272,600,l),
(438,796,l),
(588,768,l),
(400,600,l)
);
}
);
width = 471;
}
);
note = hungarumlaut;
unicode = 733;
},
{
glyphname = tonos;
layers = (
{
layerId = m01;
shapes = (
{
closed = 1;
nodes = (
(407,806,l),
(234,657,l),
(175,657,l),
(292,806,l)
);
}
);
width = 414;
},
{
layerId = "6E397364-29F0-430D-8798-B3D240BA8B9C";
shapes = (
{
closed = 1;
nodes = (
(427,812,l),
(242,657,l),
(171,657,l),
(291,812,l)
);
}
);
width = 427;
},
{
layerId = "97194E86-8399-4162-8293-D906943AC4AA";
shapes = (
{
closed = 1;
nodes = (
(524,842,l),
(284,657,l),
(150,657,l),
(286,842,l)
);
}
);
width = 493;
}
);
note = tonos;
unicode = 900;
},
